<?xml version="1.0" encoding="UTF-8"?>
<svg xmlns="http://www.w3.org/2000/svg" width="106" height="74" viewBox="0 0 106 74" fill="none">
  <g clip-path="url(#clip0_137_1373)">
    <path fill-rule="evenodd" clip-rule="evenodd" d="M98.1819 0L98.1391 2.36042L97.9632 4.67277L97.6636 6.96589L97.2736 9.21094L96.76 11.4175L96.1561 13.6001L95.4428 15.7201L94.6248 17.7921L93.7165 19.8256L92.7321 21.8111L91.6289 23.71L90.4495 25.5656L89.194 27.378L87.8578 29.1039L86.4168 30.7672L84.9284 32.3585L83.3543 33.8872L81.7232 35.3294L80.0159 36.6803L78.2326 37.9687L76.397 39.1513L74.4996 40.2618L72.5641 41.2665L70.562 42.1848L68.5124 43.0164L66.4247 43.7327L64.2705 44.3481L62.0925 44.8721L59.8717 45.2615L57.6128 45.5692L55.3302 45.7422L53 45.8095L50.6745 45.7422L48.3919 45.5692L46.1283 45.2615L43.9075 44.8721L41.7342 44.3481L39.58 43.7327L37.4875 43.0164L35.4427 42.1848L33.4359 41.2665L31.5004 40.2618L29.6029 39.1513L27.7721 37.9687L25.984 36.6803L24.2815 35.3294L22.6456 33.8872L21.0716 32.3585L19.5641 30.7672L18.1422 29.1039L16.8059 27.378L15.5552 25.5656L14.3711 23.71L13.2726 21.8111L12.2787 19.8256L11.3751 17.7921L10.5619 15.7201L9.84384 13.6001L9.24465 11.4175L8.7263 9.21094L8.33635 6.96589L8.03675 4.67277L7.86555 2.36042L7.82275 0H53V12.7299L61.8547 0H65.7114L53 18.47V22.8591L68.793 0H72.7781L53 28.5799V32.993L75.755 0H79.6735L53 38.7331V43.1222L82.7979 0H98.1819Z" fill="#243278"></path>
    <path fill-rule="evenodd" clip-rule="evenodd" d="M16.7726 65.1497L16.7489 65.6016L16.7298 66.0486L16.6633 66.4765L16.6014 66.9284L16.5158 67.3562L16.3827 67.7601L16.2543 68.1879L16.1069 68.5966L15.9357 68.9811L15.7645 69.3609L15.5505 69.7215L15.3365 70.082L15.0987 70.4426L14.8419 70.7791L14.5851 71.0964L14.3045 71.3896L14.0049 71.7021L13.7053 71.9761L13.382 72.2454L13.0633 72.4905L12.7162 72.7165L12.3595 72.9184L11.9886 73.1203L11.6272 73.303L11.242 73.4616L10.852 73.5962L10.4478 73.7068L10.0341 73.8222L9.62988 73.8847L9.20189 73.9568L8.77389 73.9808L8.34589 74L7.91315 73.9808L7.48515 73.9568L7.07618 73.8847L6.67196 73.8222L6.26299 73.7068L5.87779 73.5962L5.4926 73.4616L5.1074 73.303L4.74123 73.1203L4.37506 72.9184L4.02791 72.7165L3.69027 72.4905L3.36689 72.2454L3.04827 71.9761L2.74392 71.7021L2.4681 71.3896L2.18753 71.0964L1.90695 70.7791L1.67393 70.4426L1.43616 70.082L1.22216 69.7215L1.00817 69.3609L0.832212 68.9811L0.665769 68.5966L0.513594 68.1879L0.385195 67.7601L0.256797 67.3562L0.171198 66.9284L0.0855989 66.4765L0.0427995 66.0486L0 65.6016V65.1497V55.3474H3.43347V65.1497V65.3948L3.45249 65.6689L3.47627 65.9381L3.51907 66.1881L3.58564 66.4332L3.64747 66.6784L3.73306 66.9284L3.81866 67.1784L3.92328 67.3995L4.02791 67.6255L4.16106 67.8514L4.28946 68.0581L4.41786 68.2552L4.56528 68.4571L4.72221 68.6639L4.89341 68.8417L5.0646 69.0196L5.25482 69.1782L5.42602 69.3369L5.621 69.4955L5.83499 69.6301L6.02521 69.7455L6.23921 69.8801L6.45796 69.9715L6.69098 70.082L6.90498 70.1493L7.138 70.2166L7.38053 70.2888L7.61355 70.332L7.85132 70.3753L8.08434 70.3993H8.34589H8.60269L8.83571 70.3753L9.09251 70.332L9.33028 70.2888L9.58708 70.2166L9.82485 70.1493L10.0341 70.082L10.2719 69.9715L10.4859 69.8801L10.6999 69.7455L10.9186 69.6301L11.1326 69.4955L11.3276 69.3369L11.5178 69.1782L11.689 69.0196L11.8602 68.8417L12.0314 68.6639L12.1836 68.4571L12.331 68.2552L12.4832 68.0581L12.6116 67.8514L12.74 67.6255L12.8494 67.3995L12.954 67.1784L13.0396 66.9284L13.1252 66.6784L13.1917 66.4332L13.2345 66.1881L13.2964 65.9381L13.3201 65.6689L13.3392 65.3948V65.1497V55.3474H16.7726V65.1497Z" fill="#243278"></path>
    <path fill-rule="evenodd" clip-rule="evenodd" d="M34.8102 69.5195V55.3281H38.1343V73.75H34.3156L24.6239 60.2797V73.75H21.3188V55.3281H24.6239L34.8102 69.5195Z" fill="#243278"></path>
    <path d="M45.981 55.3281H42.6807V73.7548H45.981V55.3281Z" fill="#243278"></path>
    <path d="M106 55.3281H102.671V73.7548H106V55.3281Z" fill="#243278"></path>
    <path fill-rule="evenodd" clip-rule="evenodd" d="M87.2966 55.3281H90.7681V70.9617H99.4564V73.75H87.2966V55.3281Z" fill="#243278"></path>
    <path fill-rule="evenodd" clip-rule="evenodd" d="M72.3881 55.3281L65.4832 73.75H69.0831L74.8325 58.3664L80.5819 73.75H84.1627L77.2768 55.3281H72.3881Z" fill="#243278"></path>
    <path fill-rule="evenodd" clip-rule="evenodd" d="M55.8295 73.75L48.9246 55.3281H52.5292L58.2786 70.7358L64.0233 55.3281H67.6042L60.7229 73.75H55.8295Z" fill="#243278"></path>
  </g>
  <defs>
    <clipPath id="clip0_137_1373">
      <rect width="106" height="74" fill="white"></rect>
    </clipPath>
  </defs>
</svg>
