<?xml version="1.0" encoding="UTF-8"?>
<svg xmlns="http://www.w3.org/2000/svg" width="118" height="76" viewBox="0 0 118 76" fill="none">
  <g clip-path="url(#clip0_137_1226)">
    <path d="M117.67 68.199H0.941895V69.8967H117.67V68.199Z" fill="#243278"></path>
    <path d="M117.67 42.6902H0.941895V44.3879H117.67V42.6902Z" fill="#243278"></path>
    <path d="M0.941895 30.3555H44.2027L44.1788 31.0953H0.941895V30.3555ZM46.3545 30.3555H51.3275L51.3036 31.0953H46.3784L46.3545 30.3555ZM53.4793 30.3555H58.3998L58.3759 31.0953H53.5032L53.4793 30.3555ZM60.5516 30.3555H65.472L65.4481 31.0953H60.5755L60.5516 30.3555ZM67.6238 30.3555H72.4391L72.4152 31.0953H67.6477L67.6238 30.3555ZM74.5861 30.3555H117.675V31.0953H74.61L74.5861 30.3555Z" fill="#243278"></path>
    <path d="M117.67 33.7461H84.8384V34.4859H117.67V33.7461Z" fill="#243278"></path>
    <path d="M117.67 37.5115H84.8384V38.2513H117.67V37.5115Z" fill="#243278"></path>
    <path d="M34.204 33.7461H0.941895V34.4859H34.204V33.7461Z" fill="#243278"></path>
    <path d="M34.2997 30.3933H33.5537V44.1317H34.2997V30.3933Z" fill="#243278"></path>
    <path d="M85.4073 30.4834H84.6614V44.1602H85.4073V30.4834Z" fill="#243278"></path>
    <path d="M34.204 37.5115H0.941895V38.2513H34.204V37.5115Z" fill="#243278"></path>
    <path d="M117.67 40.7932H0.941895V41.533H117.67V40.7932Z" fill="#243278"></path>
    <path d="M36.0069 39.1904H35.5V41.0542H36.0069V39.1904Z" fill="#243278"></path>
    <path d="M83.447 39.1809H35.5049V39.6836H83.447V39.1809Z" fill="#243278"></path>
    <path d="M83.4373 39.2947H82.9304V41.1584H83.4373V39.2947Z" fill="#243278"></path>
    <path d="M37.7809 37.7915H37.3123V39.6552H37.7809V37.7915Z" fill="#243278"></path>
    <path d="M81.5486 37.7866H37.3171V38.2893H81.5486V37.7866Z" fill="#243278"></path>
    <path d="M81.5389 37.9004H81.0703V39.7641H81.5389V37.9004Z" fill="#243278"></path>
    <path d="M42.5435 35.9562H42.553V35.9514H47.9995V37.9859H47.5213V36.4683H43.0264V37.8768H42.5435V35.9562Z" fill="#243278"></path>
    <path d="M49.6826 35.9562H49.6874V35.9514H55.1386V37.9859H54.6557V36.4683H50.1656V37.8768H49.6826V35.9562Z" fill="#243278"></path>
    <path d="M56.707 35.9562H56.7118V35.9514H62.163V37.9859H61.6801V36.4683H57.1852V37.8768H56.707V35.9562Z" fill="#243278"></path>
    <path d="M63.7268 35.9562H63.7316V35.9514H69.1828V37.9859H68.6999V36.4683H64.205V37.8768H63.7268V35.9562Z" fill="#243278"></path>
    <path d="M70.7368 35.9562H70.7464V35.9514H76.1928V37.9859H75.7147V36.4683H71.2198V37.8768H70.7368V35.9562Z" fill="#243278"></path>
    <path d="M47.33 34.9316H43.3181V35.771H47.33V34.9316Z" fill="#243278"></path>
    <path d="M54.3833 34.9556H50.3713V35.795H54.3833V34.9556Z" fill="#243278"></path>
    <path d="M61.4411 34.9556H57.4292V35.795H61.4411V34.9556Z" fill="#243278"></path>
    <path d="M68.475 34.9556H64.4631V35.795H68.475V34.9556Z" fill="#243278"></path>
    <path d="M75.5427 34.9556H71.5308V35.795H75.5427V34.9556Z" fill="#243278"></path>
    <path d="M43.7007 34.5097H46.7993L46.1585 15.2039H44.4514L43.7055 34.5097H43.7007ZM44.0402 34.1446L44.6762 15.5263H45.8907L46.4311 34.1446H44.0402Z" fill="#243278"></path>
    <path d="M50.8542 34.5097H53.9528L53.3121 15.2039H51.605L50.859 34.5097H50.8542ZM51.1938 34.1446L51.8297 15.5263H53.0443L53.5846 34.1446H51.1938Z" fill="#243278"></path>
    <path d="M57.9265 34.5097H61.0251L60.3843 15.2039H58.6773L57.9313 34.5097H57.9265ZM58.266 34.1446L58.902 15.5263H60.1166L60.6569 34.1446H58.266Z" fill="#243278"></path>
    <path d="M64.9939 34.5097H68.0925L67.4517 15.2039H65.7446L64.9987 34.5097H64.9939ZM65.3334 34.1446L65.9694 15.5263H67.184L67.7243 34.1446H65.3334Z" fill="#243278"></path>
    <path d="M71.9609 34.5097H75.0595L74.4188 15.2039H72.7117L71.9657 34.5097H71.9609ZM72.3004 34.1446L72.9364 15.5263H74.151L74.6913 34.1446H72.3004Z" fill="#243278"></path>
    <path d="M46.2877 14.3406H44.2029V14.9049H46.2877V14.3406Z" fill="#243278"></path>
    <path d="M46.8663 13.4539H43.6243V14.1699H46.8663V13.4539Z" fill="#243278"></path>
    <path d="M53.4459 14.355H51.3611V14.9193H53.4459V14.355Z" fill="#243278"></path>
    <path d="M54.0245 13.468H50.7825V14.1841H54.0245V13.468Z" fill="#243278"></path>
    <path d="M60.5182 14.3645H58.4333V14.9288H60.5182V14.3645Z" fill="#243278"></path>
    <path d="M61.0921 13.4824H57.8501V14.1985H61.0921V13.4824Z" fill="#243278"></path>
    <path d="M67.5856 14.3787H65.5007V14.943H67.5856V14.3787Z" fill="#243278"></path>
    <path d="M68.1642 13.4966H64.9221V14.2127H68.1642V13.4966Z" fill="#243278"></path>
    <path d="M74.5526 14.3928H72.4678V14.9572H74.5526V14.3928Z" fill="#243278"></path>
    <path d="M75.1266 13.5107H71.8845V14.2268H75.1266V13.5107Z" fill="#243278"></path>
    <path d="M0.941895 21.5583H5.04944V22.3503H0.941895V21.5583ZM6.43616 21.5583H10.3333V22.3503H6.43616V21.5583ZM11.7248 21.5583H15.4355V22.3503H11.7248V21.5583ZM16.827 21.5583H20.6476V22.3503H16.827V21.5583ZM22.0343 21.5583H25.6398V22.3503H22.0343V21.5583ZM27.0265 21.5583H30.8471V22.3503H27.0265V21.5583ZM32.2339 21.5583H44.4704L44.437 22.3503H32.2291V21.5583H32.2339ZM46.0723 21.5583H51.6335V21.7386L51.6049 22.3503H46.101L46.0723 21.5583ZM53.2307 21.5583H58.701V21.6485L58.6723 22.3503H53.2546L53.2307 21.5583ZM60.3077 21.5583H65.7781L65.7637 21.9188L65.7494 22.3503H60.3316L60.3077 21.5583ZM67.3752 21.5583H72.7403L72.726 21.952L72.7116 22.3503H67.3991L67.3752 21.5583ZM74.3374 21.5583H86.6027V22.3503H74.3613L74.3374 21.5583ZM87.9894 21.5583H91.8866V22.3503H87.9894V21.5583ZM93.2781 21.5583H96.9887V22.3503H93.2781V21.5583ZM98.3802 21.5583H102.201V22.3503H98.3802V21.5583ZM103.588 21.5583H107.193V22.3503H103.588V21.5583ZM108.58 21.5583H112.4V22.3503H108.58V21.5583ZM113.787 21.5583H117.684V22.3503H113.787V21.5583Z" fill="#243278"></path>
    <path d="M4.68604 14.3596H6.7948V29.2267H4.68604V14.3596ZM5.04467 14.8623V28.6719H6.43138V14.8623H5.04467Z" fill="#243278"></path>
    <path d="M10.0417 14.3596H12.1505V29.2267H10.0417V14.3596ZM10.4004 14.8623V28.6719H11.7871V14.8623H10.4004Z" fill="#243278"></path>
    <path d="M15.2539 14.3596H17.3627V29.2267H15.2539V14.3596ZM15.6125 14.8623V28.6719H16.9993V14.8623H15.6125Z" fill="#243278"></path>
    <path d="M20.4373 14.3596H22.546V29.2267H20.4373V14.3596ZM20.7959 14.8623V28.6719H22.1826V14.8623H20.7959Z" fill="#243278"></path>
    <path d="M25.2573 14.3596H27.3661V29.2267H25.2573V14.3596ZM25.616 14.8623V28.6719H27.0027V14.8623H25.616Z" fill="#243278"></path>
    <path d="M30.5842 14.3596H32.693V29.2267H30.5842V14.3596ZM30.9429 14.8623V28.6719H32.3296V14.8623H30.9429Z" fill="#243278"></path>
    <path d="M7.22042 13.5676H4.2605V14.241H7.22042V13.5676Z" fill="#243278"></path>
    <path d="M7.22042 29.5017H4.2605V30.1751H7.22042V29.5017Z" fill="#243278"></path>
    <path d="M12.5713 13.5676H9.61133V14.241H12.5713V13.5676Z" fill="#243278"></path>
    <path d="M17.7834 13.5676H14.8235V14.241H17.7834V13.5676Z" fill="#243278"></path>
    <path d="M22.9716 13.5676H20.0117V14.241H22.9716V13.5676Z" fill="#243278"></path>
    <path d="M27.7917 13.5676H24.8318V14.241H27.7917V13.5676Z" fill="#243278"></path>
    <path d="M33.1186 13.5676H30.1587V14.241H33.1186V13.5676Z" fill="#243278"></path>
    <path d="M12.5713 29.407H9.61133V30.0804H12.5713V29.407Z" fill="#243278"></path>
    <path d="M17.7834 29.407H14.8235V30.0804H17.7834V29.407Z" fill="#243278"></path>
    <path d="M22.9716 29.407H20.0117V30.0804H22.9716V29.407Z" fill="#243278"></path>
    <path d="M27.7917 29.407H24.8318V30.0804H27.7917V29.407Z" fill="#243278"></path>
    <path d="M33.1186 29.407H30.1587V30.0804H33.1186V29.407Z" fill="#243278"></path>
    <path d="M86.1965 14.3596H88.3053V29.2267H86.1965V14.3596ZM86.5552 14.8623V28.6719H87.9419V14.8623H86.5552Z" fill="#243278"></path>
    <path d="M91.5474 14.3596H93.6561V29.2267H91.5474V14.3596ZM91.906 14.8623V28.6719H93.2927V14.8623H91.906Z" fill="#243278"></path>
    <path d="M96.7595 14.3596H98.8683V29.2267H96.7595V14.3596ZM97.1182 14.8623V28.6719H98.5049V14.8623H97.1182Z" fill="#243278"></path>
    <path d="M101.943 14.3596H104.052V29.2267H101.943V14.3596ZM102.302 14.8623V28.6719H103.688V14.8623H102.302Z" fill="#243278"></path>
    <path d="M106.768 14.3596H108.876V29.2267H106.768V14.3596ZM107.126 14.8623V28.6719H108.513V14.8623H107.126Z" fill="#243278"></path>
    <path d="M112.09 14.3596H114.199V29.2267H112.09V14.3596ZM112.448 14.8623V28.6719H113.835V14.8623H112.448Z" fill="#243278"></path>
    <path d="M88.726 13.5676H85.7661V14.241H88.726V13.5676Z" fill="#243278"></path>
    <path d="M88.726 29.5017H85.7661V30.1751H88.726V29.5017Z" fill="#243278"></path>
    <path d="M94.0815 13.5676H91.1216V14.241H94.0815V13.5676Z" fill="#243278"></path>
    <path d="M99.2937 13.5676H96.3337V14.241H99.2937V13.5676Z" fill="#243278"></path>
    <path d="M104.477 13.5676H101.517V14.241H104.477V13.5676Z" fill="#243278"></path>
    <path d="M109.297 13.5676H106.337V14.241H109.297V13.5676Z" fill="#243278"></path>
    <path d="M114.624 13.5676H111.664V14.241H114.624V13.5676Z" fill="#243278"></path>
    <path d="M94.0815 29.407H91.1216V30.0804H94.0815V29.407Z" fill="#243278"></path>
    <path d="M99.2937 29.407H96.3337V30.0804H99.2937V29.407Z" fill="#243278"></path>
    <path d="M104.477 29.407H101.517V30.0804H104.477V29.407Z" fill="#243278"></path>
    <path d="M109.297 29.407H106.337V30.0804H109.297V29.407Z" fill="#243278"></path>
    <path d="M114.624 29.407H111.664V30.0804H114.624V29.407Z" fill="#243278"></path>
    <path d="M117.723 12.8279H1.0376V13.34H117.723V12.8279Z" fill="#243278"></path>
    <path d="M3.50971 10.49H2.8833V13.0319H3.50971V10.49Z" fill="#243278"></path>
    <path d="M34.5102 10.3525H33.8264V13.0604H34.5102V10.3525Z" fill="#243278"></path>
    <path d="M36.2507 10.4853L18.3955 3.62793L0 10.5659L36.2507 10.4853ZM34.1897 10.1723L3.06512 9.89724L18.5007 4.25865L34.1945 10.1723H34.1897Z" fill="#243278"></path>
    <path d="M85.2399 10.49H84.6135V13.0319H85.2399V10.49Z" fill="#243278"></path>
    <path d="M116.24 10.3525H115.556V13.0604H116.24V10.3525Z" fill="#243278"></path>
    <path d="M118 10.3667L100.126 3.62793L81.7493 10.4473L118 10.3667ZM115.92 10.1723L84.7953 9.89724L100.226 4.25865L115.92 10.1723Z" fill="#243278"></path>
    <path d="M86.1103 10.0347H34.7922V10.5516H86.1103V10.0347Z" fill="#243278"></path>
    <path d="M41.2238 10.395H40.4587V12.9369H41.2238V10.395Z" fill="#243278"></path>
    <path d="M78.2683 10.395H77.5032V12.9369H78.2683V10.395Z" fill="#243278"></path>
    <path d="M82.3424 7.82004L59.7724 0L36.5186 7.91015L82.3424 7.8153V7.82004ZM79.7411 7.46437L40.4014 7.15138L59.9015 0.716086L79.7411 7.46437Z" fill="#243278"></path>
    <path d="M78.7989 8.73535H39.8035V9.34237H78.7989V8.73535Z" fill="#243278"></path>
    <path d="M41.4486 6.5538H24.8367L22.661 5.66699H43.3661L41.4486 6.5538ZM106.619 6.5538L105.567 5.78555L117.603 5.66699L117.661 6.5538H106.624H106.619ZM93.4361 6.5538H77.0298L75.6861 5.66699H95.0332L93.5222 6.53957L93.4409 6.5538H93.4361ZM13.6425 5.66699L11.6629 6.5538H0.975586V5.66699H13.6425Z" fill="#243278"></path>
    <path d="M1.31494 72.0593H1.89832V74.4209C1.89832 74.805 2.00352 75.0848 2.20913 75.2651C2.41475 75.4453 2.74469 75.5354 3.1894 75.5354C3.63411 75.5354 3.96405 75.4453 4.16966 75.2651C4.38006 75.0848 4.48048 74.805 4.48048 74.4209V72.0593H5.06864V74.4209C5.06864 74.9331 4.91084 75.3172 4.60002 75.5733C4.28921 75.8294 3.82059 75.9574 3.1894 75.9574C2.5582 75.9574 2.09437 75.8294 1.78356 75.5733C1.47274 75.3172 1.31494 74.9331 1.31494 74.4209V72.0593ZM6.21627 75.8531V71.9075L9.75957 74.9378V72.0545H10.3095V75.9954L6.76617 72.9982V75.8484H6.21627V75.8531ZM11.4714 75.8531V72.0593H12.0453V75.8531H11.4714ZM14.6035 76.0001L12.5569 72.0593H13.1833L14.6083 74.9615L16.0237 72.0593H16.6453L14.6083 76.0001H14.6035ZM17.1522 75.8531V72.0593H19.7057V72.4718H17.726V73.5578H19.7057V73.9799H17.726V75.431H19.7057V75.8531H17.1522ZM20.6859 75.8531V72.0593H21.824C22.1492 72.0593 22.3883 72.0735 22.5365 72.1019C22.6895 72.1304 22.8234 72.1778 22.9334 72.249C23.0768 72.3343 23.1868 72.4529 23.2681 72.6046C23.3494 72.7516 23.3876 72.9176 23.3876 73.0978C23.3876 73.4061 23.2777 73.6432 23.0529 73.8044C22.833 73.9657 22.5078 74.0463 22.0774 74.0463H21.977L23.8276 75.8531H23.096L21.3267 74.0463H21.2454V75.8531H20.6812H20.6859ZM21.2502 72.4386V73.7096H21.6901C22.1396 73.7096 22.4408 73.6622 22.5939 73.5721C22.7469 73.482 22.8234 73.3255 22.8234 73.0978C22.8234 72.856 22.7469 72.6852 22.5891 72.5857C22.4313 72.4861 22.1348 72.4386 21.6901 72.4386H21.2502ZM26.0798 73.7428C26.3954 73.8471 26.6345 73.9894 26.7923 74.1601C26.9501 74.3356 27.0314 74.5395 27.0314 74.7813C27.0314 75.1323 26.8879 75.4121 26.6058 75.6255C26.3237 75.8389 25.9459 75.9479 25.4773 75.9479C25.0947 75.9479 24.7744 75.8721 24.5161 75.7203C24.2579 75.5686 24.0858 75.3504 23.9949 75.0706L24.5161 74.8667C24.5879 75.0991 24.7026 75.2698 24.8652 75.3884C25.0278 75.5069 25.2334 75.5686 25.4773 75.5686C25.7642 75.5686 25.9985 75.5022 26.1802 75.3741C26.3571 75.2413 26.448 75.0754 26.448 74.8667C26.448 74.696 26.3858 74.549 26.2615 74.4257C26.1372 74.3024 25.9507 74.1933 25.6972 74.1079L25.1091 73.9088C24.7887 73.8044 24.5448 73.6669 24.3918 73.5009C24.234 73.3349 24.1527 73.1358 24.1527 72.9034C24.1527 72.6331 24.2818 72.4102 24.5353 72.2347C24.7887 72.0593 25.1186 71.9692 25.5155 71.9692C25.8072 71.9692 26.0607 72.0166 26.2711 72.1162C26.4862 72.211 26.6488 72.358 26.7684 72.543L26.2902 72.7801C26.185 72.6331 26.0607 72.524 25.9268 72.4529C25.7929 72.3817 25.6399 72.3438 25.4725 72.3438C25.2573 72.3438 25.0804 72.396 24.9417 72.5003C24.803 72.6046 24.7361 72.7374 24.7361 72.8986C24.7361 73.0314 24.7887 73.15 24.8939 73.2496C24.9991 73.3492 25.1617 73.4345 25.3864 73.5104L26.0798 73.7475V73.7428ZM27.806 75.8484V72.0545H28.3798V75.8484H27.806ZM30.1395 75.4215H30.5077C31.1054 75.4215 31.5167 75.4026 31.7462 75.3599C31.9757 75.3172 32.167 75.2508 32.32 75.1512C32.5208 75.0232 32.6691 74.8525 32.7743 74.6486C32.8795 74.4446 32.9321 74.2075 32.9321 73.9467C32.9321 73.6859 32.8795 73.4488 32.7791 73.2448C32.6786 73.0457 32.5256 72.8797 32.3248 72.7469C32.1718 72.6473 31.9805 72.5762 31.7462 72.5335C31.5119 72.4908 31.1007 72.4718 30.5173 72.4718H30.1491V75.4215H30.1395ZM29.5561 75.8484V72.0545H30.4886C31.1772 72.0545 31.6601 72.083 31.9422 72.1351C32.2244 72.192 32.473 72.2822 32.6834 72.4102C32.9608 72.5762 33.1712 72.7943 33.3146 73.0551C33.4581 73.316 33.5298 73.6147 33.5298 73.9562C33.5298 74.2976 33.4581 74.5964 33.3146 74.8572C33.1712 75.118 32.9608 75.3314 32.6786 75.4974C32.4682 75.6255 32.2244 75.7156 31.9566 75.7725C31.6888 75.8246 31.2632 75.8531 30.6942 75.8531H29.5561V75.8484ZM35.8824 72.9034L35.1126 74.3024H36.6523L35.8824 72.9034ZM35.8824 71.9075L38.0868 75.8531H37.4604L36.8292 74.6912H34.9356L34.3092 75.8531H33.6828L35.8777 71.9075H35.8824ZM39.1675 75.4263H39.5357C40.1334 75.4263 40.5447 75.4073 40.7742 75.3646C41.0037 75.322 41.195 75.2556 41.348 75.156C41.5488 75.0279 41.6971 74.8572 41.8023 74.6533C41.9075 74.4494 41.9601 74.2123 41.9601 73.9514C41.9601 73.6906 41.9075 73.4535 41.8071 73.2496C41.7066 73.0504 41.5536 72.8844 41.3528 72.7516C41.1998 72.6521 41.0085 72.5809 40.7742 72.5382C40.5399 72.4956 40.1287 72.4766 39.5453 72.4766H39.1771V75.4263H39.1675ZM38.5841 75.8531V72.0593H39.5166C40.2052 72.0593 40.6881 72.0877 40.9702 72.1399C41.2524 72.1968 41.501 72.2869 41.7114 72.4149C41.9888 72.5809 42.1992 72.7991 42.3426 73.0599C42.4861 73.3207 42.5578 73.6195 42.5578 73.9609C42.5578 74.3024 42.4861 74.6011 42.3426 74.862C42.1992 75.1228 41.9888 75.3362 41.7066 75.5022C41.4962 75.6302 41.2524 75.7203 40.9846 75.7772C40.7168 75.8294 40.2912 75.8578 39.7222 75.8578H38.5841V75.8531ZM43.4998 75.8531V72.0593H46.0533V72.4718H44.0736V73.5578H46.0533V73.9799H44.0736V75.431H46.0533V75.8531H43.4998ZM49.0323 75.8531V72.0593H51.5858V72.4718H49.6061V73.5578H51.5858V73.9799H49.6061V75.8531H49.0323ZM52.4657 75.8531V72.0593H55.0191V72.4718H53.0395V73.5578H55.0191V73.9799H53.0395V75.431H55.0191V75.8531H52.4657ZM56.578 75.4263H56.9462C57.5439 75.4263 57.9551 75.4073 58.1847 75.3646C58.4142 75.322 58.6055 75.2556 58.7585 75.156C58.9593 75.0279 59.1075 74.8572 59.2127 74.6533C59.3179 74.4494 59.3705 74.2123 59.3705 73.9514C59.3705 73.6906 59.3179 73.4535 59.2175 73.2496C59.1171 73.0504 58.9641 72.8844 58.7633 72.7516C58.6102 72.6521 58.419 72.5809 58.1847 72.5382C57.9504 72.4956 57.5391 72.4766 56.9557 72.4766H56.5875V75.4263H56.578ZM55.9946 75.8531V72.0593H56.9271C57.6156 72.0593 58.0986 72.0877 58.3807 72.1399C58.6628 72.1968 58.9115 72.2869 59.1219 72.4149C59.3992 72.5809 59.6096 72.7991 59.7531 73.0599C59.8965 73.3207 59.9683 73.6195 59.9683 73.9609C59.9683 74.3024 59.8965 74.6011 59.7531 74.862C59.6096 75.1228 59.3992 75.3362 59.1171 75.5022C58.9067 75.6302 58.6628 75.7203 58.3951 75.7772C58.1273 75.8294 57.7017 75.8578 57.1327 75.8578H55.9946V75.8531ZM60.9103 75.8531V72.0593H63.4637V72.4718H61.4841V73.5578H63.4637V73.9799H61.4841V75.431H63.4637V75.8531H60.9103ZM64.444 75.8531V72.0593H65.5821C65.9072 72.0593 66.1463 72.0735 66.2946 72.1019C66.4476 72.1304 66.5815 72.1778 66.6915 72.249C66.8349 72.3343 66.9449 72.4529 67.0262 72.6046C67.1075 72.7516 67.1457 72.9176 67.1457 73.0978C67.1457 73.4061 67.0357 73.6432 66.811 73.8044C66.591 73.9657 66.2659 74.0463 65.8355 74.0463H65.7351L67.5856 75.8531H66.854L65.0848 74.0463H65.0035V75.8531H64.4392H64.444ZM65.0083 72.4386V73.7096H65.4482C65.8977 73.7096 66.1989 73.6622 66.3519 73.5721C66.505 73.482 66.5815 73.3255 66.5815 73.0978C66.5815 72.856 66.505 72.6852 66.3472 72.5857C66.1894 72.4861 65.8929 72.4386 65.4482 72.4386H65.0083ZM69.6036 72.9034L68.8337 74.3024H70.3734L69.6036 72.9034ZM69.6036 71.9075L67.4087 75.8531H68.0351L68.6615 74.6912H70.5551L71.1863 75.8531H71.8127L69.6083 71.9075H69.6036ZM72.31 75.8531V72.0593H72.8839V75.4215H74.7153V75.8531H72.31ZM77.9812 75.4263H78.3494C78.9472 75.4263 79.3584 75.4073 79.5879 75.3646C79.8174 75.322 80.0087 75.2556 80.1617 75.156C80.3626 75.0279 80.5108 74.8572 80.616 74.6533C80.7212 74.4494 80.7738 74.2123 80.7738 73.9514C80.7738 73.6906 80.7212 73.4535 80.6208 73.2496C80.5204 73.0504 80.3673 72.8844 80.1665 72.7516C80.0135 72.6521 79.8222 72.5809 79.5879 72.5382C79.3536 72.4956 78.9424 72.4766 78.359 72.4766H77.9908V75.4263H77.9812ZM77.3979 75.8531V72.0593H78.3303C79.0189 72.0593 79.5018 72.0877 79.784 72.1399C80.0661 72.1968 80.3147 72.2869 80.5251 72.4149C80.8025 72.5809 81.0129 72.7991 81.1563 73.0599C81.2998 73.3207 81.3715 73.6195 81.3715 73.9609C81.3715 74.3024 81.2998 74.6011 81.1563 74.862C81.0129 75.1228 80.8025 75.3362 80.5204 75.5022C80.31 75.6302 80.0661 75.7203 79.7983 75.7772C79.5305 75.8294 79.105 75.8578 78.5359 75.8578H77.3979V75.8531ZM84.6805 75.5306C84.9435 75.5306 85.1969 75.4927 85.436 75.4121C85.6751 75.3314 85.8903 75.2176 86.0816 75.0659C86.2728 74.9189 86.4163 74.7481 86.5167 74.5585C86.6171 74.3688 86.6649 74.1696 86.6649 73.9609C86.6649 73.7523 86.6171 73.5483 86.5167 73.3539C86.4163 73.1642 86.2728 72.9935 86.0863 72.8465C85.8951 72.6995 85.6799 72.5857 85.4408 72.505C85.2017 72.4292 84.9483 72.3865 84.6805 72.3865C84.4127 72.3865 84.1545 72.4244 83.9154 72.505C83.6763 72.5809 83.4612 72.6947 83.2747 72.8465C83.0834 72.9982 82.9399 73.169 82.8395 73.3587C82.7391 73.5483 82.6913 73.7475 82.6913 73.9609C82.6913 74.1743 82.7391 74.3688 82.8395 74.5585C82.9399 74.7434 83.0834 74.9141 83.2747 75.0659C83.4707 75.2176 83.6859 75.3314 83.9202 75.4121C84.1593 75.4879 84.4127 75.5306 84.6805 75.5306ZM87.2674 73.9657C87.2674 74.236 87.2053 74.4921 87.0762 74.7339C86.9471 74.9758 86.7606 75.1892 86.5167 75.3741C86.2728 75.5591 85.9907 75.7061 85.6703 75.8057C85.35 75.9053 85.02 75.9574 84.6805 75.9574C84.341 75.9574 84.0063 75.9053 83.6907 75.8057C83.3751 75.7061 83.093 75.5591 82.8491 75.3741C82.6004 75.1844 82.4139 74.971 82.2848 74.7292C82.1557 74.4873 82.0888 74.236 82.0888 73.9657C82.0888 73.6954 82.1509 73.4393 82.2848 73.1974C82.4139 72.9556 82.6004 72.7422 82.8491 72.5525C83.093 72.3675 83.3751 72.2252 83.6907 72.1257C84.0063 72.0261 84.341 71.9739 84.6805 71.9739C85.02 71.9739 85.3547 72.0261 85.6751 72.1257C85.9955 72.2252 86.2776 72.3675 86.5167 72.5525C86.7606 72.7374 86.9471 72.9508 87.0762 73.1927C87.2053 73.4345 87.2674 73.6906 87.2674 73.9657ZM90.7725 74.1506V75.8531H90.2082V72.0593H91.222C91.5758 72.0593 91.8388 72.0735 92.0062 72.1019C92.1736 72.1304 92.317 72.1778 92.4413 72.249C92.5944 72.3343 92.7187 72.4529 92.8048 72.6046C92.8908 72.7564 92.9339 72.9224 92.9339 73.1073C92.9339 73.2923 92.8908 73.4582 92.8048 73.6053C92.7187 73.757 92.5991 73.8756 92.4413 73.9609C92.317 74.0321 92.1736 74.0795 92.0062 74.1079C91.8388 74.1364 91.5758 74.1506 91.222 74.1506H90.7677H90.7725ZM90.7725 73.7428H91.0642C91.5567 73.7428 91.8914 73.6954 92.0636 73.6053C92.2357 73.5152 92.3218 73.3587 92.3218 73.131C92.3218 72.8892 92.2357 72.7184 92.0588 72.6189C91.8819 72.5193 91.5519 72.4718 91.069 72.4718H90.7773V73.7428H90.7725ZM94.8131 72.9081L94.0432 74.3071H95.583L94.8131 72.9081ZM94.8131 71.9123L92.6183 75.8578H93.2447L93.8711 74.696H95.7647L96.3959 75.8578H97.0223L94.8179 71.9123H94.8131ZM97.5196 75.8578V72.064H98.6577C98.9828 72.064 99.2219 72.0782 99.3701 72.1067C99.5232 72.1351 99.657 72.1826 99.767 72.2537C99.9105 72.3391 100.02 72.4576 100.102 72.6094C100.183 72.7564 100.221 72.9224 100.221 73.1026C100.221 73.4108 100.111 73.6479 99.8866 73.8092C99.6666 73.9704 99.3415 74.051 98.9111 74.051H98.8107L100.661 75.8578H99.9296L98.1603 74.051H98.0791V75.8578H97.5148H97.5196ZM98.0838 72.4434V73.7143H98.5238C98.9733 73.7143 99.2745 73.6669 99.4275 73.5768C99.5805 73.4867 99.6571 73.3302 99.6571 73.1026C99.6571 72.8607 99.5805 72.69 99.4227 72.5904C99.2649 72.4908 98.9685 72.4434 98.5238 72.4434H98.0838ZM102.679 72.9081L101.909 74.3071H103.449L102.679 72.9081ZM102.679 71.9123L100.484 75.8578H101.111L101.737 74.696H103.631L104.262 75.8578H104.888L102.684 71.9123H102.679ZM105.386 75.8578V71.9123L108.929 74.9426V72.0593H109.479V76.0001L105.936 73.003V75.8531H105.386V75.8578ZM112.171 72.9129L111.401 74.3119H112.941L112.171 72.9129ZM112.171 71.917L114.375 75.8626H113.749L113.118 74.7007H111.224L110.598 75.8626H109.971L112.166 71.917H112.171ZM111.702 71.6894L112.377 70.7883H113.041L112.099 71.6894H111.702Z" fill="#243278"></path>
    <path d="M1.29102 47.2616H6.54141L6.5701 57.7611C6.5701 59.5394 7.02437 60.8436 8.49716 61.6782C9.96517 62.5081 11.9353 62.9302 15.0721 62.9302C18.209 62.9302 19.5431 62.5935 21.0063 61.7636C22.4791 60.9289 23.5167 59.7908 23.5167 58.0124V47.2095L28.7097 47.3185V58.259C28.7097 60.6396 27.4426 62.6124 25.2382 63.798C23.0386 64.9788 19.4761 65.3203 15.0434 65.3203C10.6107 65.3203 7.0961 64.865 4.90126 63.6889C2.69686 62.5081 1.29102 60.5875 1.29102 58.2068V47.2664V47.2616Z" fill="#243278"></path>
    <path d="M33.6445 47.1667C41.2237 47.1667 48.798 47.181 56.3915 47.181V49.4905H38.9714V54.081H56.4488V56.5707H38.9714V64.8934H33.6493V47.1715L33.6445 47.1667Z" fill="#243278"></path>
    <path d="M69.4028 55.5275C69.5127 55.5275 70.7225 55.5275 70.9377 55.5418C71.1672 55.5513 71.3298 55.556 71.4398 55.556C73.4099 55.556 74.9114 55.3378 75.9442 54.9016C76.9771 54.4653 77.4888 53.844 77.4888 53.0236C77.4888 52.2032 77.001 51.7479 76.0207 51.3401C75.05 50.9417 73.5151 50.7378 71.4398 50.7378C71.3298 50.7378 71.1672 50.7378 70.9377 50.752C70.7225 50.7615 69.5127 50.7663 69.4028 50.7663V55.5323V55.5275ZM60.7334 64.9315V47.1052H70.3878C75.5139 47.1052 79.3058 47.5889 81.8067 48.3809C87.2818 50.1166 87.564 56.0492 82.0219 58.022C79.5927 58.8898 76.1403 58.9942 71.7984 58.9942C71.2533 58.9942 70.8277 58.9942 70.5456 58.9942C70.2539 58.9942 69.6992 58.9799 69.4506 58.9752V64.9362H60.7334V64.9315Z" fill="#243278"></path>
    <path d="M99.289 55.5939C99.399 55.5939 100.241 55.5939 100.484 55.6081C100.738 55.6176 100.91 55.6223 101.02 55.6223C103.043 55.6223 104.573 55.4042 105.587 54.9774C106.615 54.5458 107.126 53.9104 107.126 53.071C107.126 52.2316 106.658 51.5961 105.716 51.2073C104.774 50.8184 103.277 50.6192 101.202 50.6192C100.886 50.6192 100.633 50.6192 100.47 50.6287C100.293 50.6287 99.4755 50.6382 99.3224 50.6477L99.289 55.6034V55.5939ZM91.0691 64.9315V47.1289H100.771C105.099 47.1289 115.805 46.5741 115.805 53.0236C115.805 54.2945 115.193 55.3141 113.969 56.0776C112.735 56.8506 110.89 57.3865 108.408 57.6947L117.546 64.9315L107.298 65.0405L99.3559 57.9271L99.3129 64.9315H91.0691Z" fill="#243278"></path>
  </g>
  <defs>
    <clipPath id="clip0_137_1226">
      <rect width="118" height="76" fill="white"></rect>
    </clipPath>
  </defs>
</svg>
