<?xml version="1.0" encoding="UTF-8"?>
<svg xmlns="http://www.w3.org/2000/svg" width="111" height="97" viewBox="0 0 111 97" fill="none">
  <g clip-path="url(#clip0_137_367)">
    <path d="M47.3457 92.6395H58.4317V96.559H42.489V70.1566H57.8356V74.0903H47.3457V80.8907H57.2418V84.8362H47.3433V92.6419L47.3457 92.6395Z" fill="#243278"></path>
    <path d="M90.0129 86.6477V96.5566H85.2394C85.2299 96.3811 85.2133 96.189 85.2133 95.9994C85.2133 87.6933 85.2157 79.3873 85.2014 71.0813C85.2014 70.6118 85.3154 70.434 85.8118 70.3723C89.1817 69.9598 92.5564 69.68 95.9288 70.2158C98.5032 70.626 100.731 71.6764 102.056 74.0926C104.5 78.5551 102.438 84.113 97.6791 85.896C95.4206 86.7425 93.0789 86.918 90.6945 86.7141C90.4974 86.6975 90.3003 86.6761 90.0129 86.6477ZM90.0082 78.3511C90.0082 79.6766 90.0319 81.0021 89.9963 82.3251C89.9844 82.797 90.1934 82.9321 90.5877 82.9487C91.1505 82.9748 91.7134 83.008 92.2762 83.008C93.5586 83.008 94.8173 82.8752 95.9573 82.2137C97.7313 81.187 98.2799 79.577 98.1541 77.6398C98.0401 75.8757 97.1352 74.6996 95.4847 74.095C93.8484 73.4951 92.1646 73.6231 90.4784 73.7773C90.1032 73.8104 89.9963 73.9598 90.0011 74.3226C90.0177 75.6647 90.0082 77.0091 90.0082 78.3511Z" fill="#243278"></path>
    <path d="M27.1663 92.0681C27.4109 93.2418 27.6697 94.4036 27.8716 95.5773C27.893 95.7006 27.5937 95.9804 27.4061 96.0255C26.1379 96.3337 24.8721 96.7036 23.5825 96.8506C21.0177 97.1423 18.4528 97.045 15.9758 96.2175C11.8031 94.8233 9.13134 91.9803 8.07689 87.7242C7.17205 84.075 7.39529 80.4804 9.03397 77.0399C10.5159 73.929 12.9359 71.8116 16.1563 70.6711C19.702 69.4144 23.3237 69.4026 26.943 70.4079C28.2231 70.7636 28.2183 70.7826 27.8716 72.0345C27.6294 72.9071 27.3824 73.7773 27.133 74.6664C26.4704 74.4649 25.8434 74.2373 25.1998 74.0855C22.9864 73.5615 20.773 73.4904 18.5834 74.2278C15.2039 75.3683 13.3943 77.8224 12.8314 81.2439C12.4799 83.385 12.5559 85.5214 13.3634 87.5748C14.6221 90.7782 17.0397 92.4688 20.4073 92.8885C22.7038 93.1754 24.9267 92.8102 27.1663 92.0681Z" fill="#243278"></path>
    <path d="M67.3993 96.585H62.4976V77.5378H66.599C66.6821 78.4436 66.7652 79.3707 66.8531 80.3358C67.3637 79.7714 67.7912 79.2119 68.3065 78.7519C70.8904 76.4424 75.8207 76.3357 78.1457 79.3992C79.1408 80.7104 79.7345 82.1971 79.7725 83.8284C79.8533 87.3329 79.8438 90.8422 79.8699 94.3491C79.8746 95.0723 79.8699 95.7978 79.8699 96.5589H75.0156C75.0156 96.3598 75.0156 96.1511 75.0156 95.9425C75.0109 92.3976 75.0156 88.8552 74.9942 85.3104C74.9871 84.2031 74.7805 83.1218 74.0561 82.2421C72.5647 80.433 69.9096 80.5492 68.3707 82.4461C67.6487 83.3376 67.3827 84.3453 67.3898 85.4835C67.416 88.9548 67.3993 92.4261 67.3993 95.8974C67.3993 96.1108 67.3993 96.3266 67.3993 96.585Z" fill="#243278"></path>
    <path d="M36.882 96.5827H32.1108V70.1471H36.882V96.5827Z" fill="#243278"></path>
    <path d="M53.0954 55.6501H27.8693C12.5014 55.6501 0 43.1685 0 27.825C0 12.4816 12.5014 0 27.8693 0H53.0954V9.24735H27.8693C17.6098 9.24735 9.26207 17.5818 9.26207 27.825C9.26207 38.0683 17.6098 46.4027 27.8693 46.4027H53.0954V55.6501Z" fill="#243278"></path>
    <path d="M53.0954 40.3968H27.9382C20.9964 40.3968 15.3489 34.7582 15.3489 27.8275C15.3489 20.8967 20.9964 15.2582 27.9382 15.2582H53.093V20.9489H27.9382C24.1383 20.9489 21.0486 24.0361 21.0486 27.8275C21.0486 31.6189 24.1407 34.7061 27.9382 34.7061H53.093V40.3968H53.0954Z" fill="#243278"></path>
    <path d="M53.0953 29.959H28.3894C27.209 29.959 26.252 29.0035 26.252 27.825C26.252 26.6466 27.209 25.691 28.3894 25.691H53.0953V29.959Z" fill="#243278"></path>
    <path d="M57.9069 55.6501H83.133C98.5009 55.6501 111.002 43.1685 111.002 27.825C111.002 12.4816 98.4985 0 83.1306 0H57.9045V9.24735H83.1306C93.3902 9.24735 101.738 17.5818 101.738 27.825C101.738 38.0683 93.3902 46.4027 83.1306 46.4027H57.9045V55.6501H57.9069Z" fill="#243278"></path>
    <path d="M57.907 40.3968H83.0618C90.0036 40.3968 95.6511 34.7582 95.6511 27.8275C95.6511 20.8967 90.0036 15.2582 83.0618 15.2582H57.907V20.9489H83.0618C86.8616 20.9489 89.9514 24.0361 89.9514 27.8275C89.9514 31.6189 86.8593 34.7061 83.0618 34.7061H57.907V40.3968Z" fill="#243278"></path>
    <path d="M57.907 29.959H82.613C83.7933 29.959 84.7504 29.0035 84.7504 27.825C84.7504 26.6466 83.7933 25.691 82.613 25.691H57.907V29.959Z" fill="#243278"></path>
  </g>
  <defs>
    <clipPath id="clip0_137_367">
      <rect width="111" height="97" fill="white"></rect>
    </clipPath>
  </defs>
</svg>
