<?xml version="1.0" encoding="UTF-8"?>
<svg xmlns="http://www.w3.org/2000/svg" width="91" height="89" viewBox="0 0 91 89" fill="none">
  <g clip-path="url(#clip0_137_1419)">
    <path d="M45.5407 0C30.5822 0 18.4565 12.0364 18.4565 26.8895C18.4565 41.7426 30.5822 53.7695 45.5407 53.7695C60.4992 53.7695 72.6249 41.7332 72.6249 26.8895C72.6249 12.0459 60.4992 0 45.5407 0ZM61.8726 44.7494H29.1323V41.7141H61.8678V44.7494H61.8726ZM54.2976 19.5271C52.6707 19.5271 51.3356 20.8476 51.3356 22.4673V39.7334H48.4693V22.4721C48.4693 20.8523 47.1342 19.5318 45.5072 19.5318C43.8803 19.5318 42.5452 20.8523 42.5452 22.4721V39.7382H39.6741V22.4721C39.6741 20.8523 38.339 19.5318 36.7121 19.5318C35.0851 19.5318 33.75 20.8523 33.75 22.4721V39.7382H30.8358V16.6676H60.1738V39.7382H57.2597V22.4721C57.2597 20.8523 55.9294 19.5318 54.2976 19.5318V19.5271ZM28.7256 14.6726L45.5024 4.04697L62.2793 14.6774H28.7256V14.6726Z" fill="#243278"></path>
    <path fill-rule="evenodd" clip-rule="evenodd" d="M29.6921 56.7477L26.9167 55.7503C27.1177 55.2515 27.7015 53.2233 27.6249 52.62C27.4239 51.1095 25.3328 49.3141 23.993 48.0411C24.7347 49.4138 24.0599 50.853 24.2944 52.487C24.505 53.9263 25.285 54.5628 26.0075 55.5128C24.2035 54.6198 22.4521 53.5368 20.7677 52.2828C21.4329 51.309 22.7105 50.3306 22.945 48.7963C23.2273 47.1338 21.6291 44.7921 20.6481 43.1961C20.9974 44.8063 19.8394 46.1553 19.5379 47.9556C19.2939 49.7416 20.0547 50.6203 20.5045 52.069C19.1025 50.9148 17.777 49.6418 16.4993 48.2216C17.265 47.2383 18.7723 46.3406 19.2173 44.6971C19.7246 42.9776 18.4326 40.3841 17.7196 38.6314C17.8105 40.2939 16.4563 41.5906 15.9012 43.4241C15.4083 45.3573 16.1644 46.3738 16.3893 48.0838C15.1451 46.5876 13.9823 44.9393 12.9009 43.1771C13.8149 42.2461 15.461 41.5146 16.1357 39.8616C16.9204 38.1707 16.0878 35.3967 15.6954 33.5774C15.504 35.2114 13.8818 36.3799 13.0301 38.1754C12.2166 40.0754 12.8339 41.2201 12.8052 43.0156C11.8338 41.2249 10.9677 39.3201 10.269 37.3157C11.3361 36.5224 13.054 35.9904 14.035 34.4609C15.1069 32.8744 14.791 30.0435 14.7288 28.229C14.2694 29.7632 12.4463 30.7417 11.2787 32.39C10.1398 34.1189 10.47 35.3064 10.1685 37.0212C9.60867 35.0689 9.20671 33.0502 8.96745 30.9602C10.1685 30.357 11.9008 30.072 13.0971 28.7372C14.4274 27.336 14.6235 24.5715 14.9154 22.8615C14.1977 24.22 12.2214 24.9373 10.7667 26.3623C9.42683 27.8157 9.4699 28.9747 8.91481 30.4757C8.81432 28.4997 8.85261 26.4905 9.05358 24.4813C10.3025 24.1013 11.9534 24.0158 13.2933 22.9423C14.8437 21.8023 15.5279 19.2326 16.1117 17.6793C15.2026 18.8098 13.0971 19.2468 11.4605 20.4011C10.0298 21.4603 9.77136 22.472 9.14929 23.6548C9.45554 21.826 9.91013 20.0068 10.47 18.2066C11.7189 18.0688 13.2598 18.1923 14.6858 17.4276C16.3701 16.5821 17.4899 14.3211 18.3464 13.0244C17.2841 13.8841 15.1499 14.0029 13.3411 14.8104C12.0348 15.4658 11.5323 16.2116 10.915 17.0238C11.5419 15.5323 12.2597 14.0646 13.0875 12.6539C14.4226 12.5019 16.1692 12.8534 17.8871 12.1504C19.7102 11.4806 21.0788 9.43815 22.0406 8.27441C20.94 8.9774 18.6431 8.92515 16.7338 9.56164C14.8724 10.2694 14.4752 11.2146 13.3172 12.2596C14.2312 10.8774 15.2265 9.56639 16.3032 8.3029C16.2936 8.3029 16.2888 8.28391 16.284 8.27916C17.5712 6.99667 18.9733 6.65467 20.6338 5.49568C22.6914 4.19894 22.9785 3.0922 25.0074 1.71471C25.4524 1.38696 26.0362 1.10197 24.7682 1.32996C22.3373 1.86196 20.5141 2.14221 18.691 3.29645C16.3749 4.95418 16.4276 6.65942 15.7959 7.69016C14.5374 9.1389 13.389 10.6779 12.3554 12.2976C12.8339 10.4499 13.6904 9.59964 13.8436 7.41466C14.0876 5.37693 13.6617 3.2917 14.3699 2.03296C13.1354 3.2727 11.1016 5.30093 10.8815 7.39566C10.7571 9.47614 11.8386 11.0436 12.2692 12.4449C11.2643 14.1881 10.4221 15.9978 9.71394 17.8741C9.57996 17.0286 9.824 15.7081 9.86707 14.6299C9.90535 14.0266 9.89578 13.3569 9.75701 12.5494C9.46511 10.3501 8.52721 8.28865 8.90046 6.75917C7.98649 8.4074 6.48394 11.0626 6.82368 13.3189C7.26871 15.5513 8.80475 16.9241 9.5656 18.2873C8.98181 20.2253 8.53678 22.187 8.24489 24.163C7.71852 22.928 7.78551 21.6313 7.39791 20.2871C7.28306 19.8073 7.12037 19.2753 6.86675 18.6721C5.97192 16.4586 4.47416 14.5586 4.45501 12.8724C3.96692 14.8294 3.20129 17.9691 4.15833 20.2016C5.18715 22.377 7.06294 23.4125 8.19225 24.6238C8.00084 26.7517 7.99127 28.8702 8.13004 30.9555C7.01509 28.97 7.01509 27.5545 5.37377 25.4123C3.90472 23.3508 1.86623 21.7738 1.39249 20.0401C1.44034 22.1823 1.5504 25.5785 3.1008 27.6305C4.66556 29.5352 6.71841 30.1812 8.15397 31.1217C8.4028 33.2022 8.79997 35.2162 9.37419 37.1684C7.89557 35.4869 7.4984 34.0999 5.39291 32.3615C3.40706 30.585 0.942683 29.464 0 27.8157C0.62686 29.9817 1.65089 33.3779 3.73245 35.0832C5.74223 36.6032 7.84772 36.8597 9.4699 37.4677C10.1494 39.3866 10.9677 41.2296 11.896 42.9634C10.1781 41.6286 9.4029 40.3604 6.96246 39.0874C4.52679 37.7242 1.79445 37.1352 0.406741 35.6817C1.62697 37.7099 3.61282 40.8639 6.09155 42.1131C8.3693 43.1819 10.4126 43.0774 12.1113 43.3481C13.1401 45.0581 14.2599 46.6541 15.4514 48.1171C13.5277 47.1243 12.5133 46.0318 9.89099 45.2196C7.20171 44.3266 4.39281 44.2791 2.68928 43.1344C4.37845 44.8776 7.00074 47.5518 9.67087 48.3071C12.0922 48.9341 14.0541 48.4971 15.7529 48.4828C17.0688 49.9553 18.4517 51.29 19.9064 52.4775C17.6717 51.8125 16.5041 50.8673 13.6713 50.4873C10.8767 50.0741 8.10612 50.5158 6.22075 49.7131C8.2066 51.0953 11.2787 53.19 14.0254 53.4608C16.5807 53.6888 18.4565 52.9288 20.1648 52.6818C21.8875 53.9833 23.7011 55.0853 25.5481 55.9973C23.4474 55.793 22.1411 55.2183 19.5332 55.3893C16.8774 55.5508 14.4609 56.477 12.5707 56.1635C13.6282 56.572 15.0112 57.446 16.4276 57.7737C22.6005 59.2177 25.0361 55.7883 29.6921 56.743V56.7477Z" fill="#243278"></path>
    <path fill-rule="evenodd" clip-rule="evenodd" d="M61.3079 56.7478L64.0833 55.7503C63.8871 55.2516 63.2985 53.2233 63.3799 52.6201C63.5808 51.1096 65.672 49.3141 67.0118 48.0411C66.2653 49.4139 66.9448 50.8531 66.7103 52.4871C66.4998 53.9263 65.7198 54.5628 64.9925 55.5128C66.8013 54.6198 68.5479 53.5368 70.237 52.2828C69.5719 51.3091 68.2895 50.3306 68.0598 48.7964C67.7774 47.1339 69.3757 44.7921 70.3567 43.1962C70.0073 44.8064 71.1654 46.1554 71.4668 47.9556C71.7109 49.7416 70.95 50.6203 70.5002 52.0691C71.9023 50.9148 73.2326 49.6418 74.5054 48.2216C73.7446 47.2384 72.2325 46.3406 71.7922 44.6971C71.285 42.9777 72.577 40.3842 73.29 38.6314C73.1991 40.2939 74.5533 41.5907 75.1084 43.4242C75.6012 45.3574 74.85 46.3739 74.6251 48.0839C75.8692 46.5876 77.032 44.9394 78.1135 43.1772C77.1995 42.2462 75.5534 41.5147 74.8787 39.8617C74.0939 38.1707 74.9265 35.3967 75.3189 33.5775C75.5103 35.2115 77.1325 36.38 77.9843 38.1754C78.7977 40.0754 78.1757 41.2202 78.2044 43.0157C79.1806 41.2249 80.0467 39.3202 80.7453 37.3157C79.6734 36.5225 77.9603 35.9905 76.9794 34.461C75.9075 32.8745 76.2233 30.0435 76.2855 28.229C76.7449 29.7633 78.5633 30.7418 79.7309 32.39C80.8745 34.119 80.5396 35.3065 80.8458 37.0212C81.4057 35.069 81.8028 33.0502 82.0469 30.9603C80.8458 30.357 79.1136 30.072 77.9173 28.7373C76.5918 27.336 76.3908 24.5716 76.1037 22.8616C76.8215 24.2201 78.7977 24.9373 80.2524 26.3623C81.5971 27.8158 81.5492 28.9748 82.1043 30.4758C82.2048 28.4998 82.1665 26.4905 81.9703 24.4813C80.7262 24.1013 79.0657 24.0158 77.7306 22.9423C76.1755 21.8023 75.496 19.2326 74.9122 17.6794C75.8214 18.8099 77.9268 19.2469 79.5586 20.4011C80.9894 21.4603 81.2478 22.4721 81.8651 23.6548C81.5588 21.8261 81.109 20.0069 80.5443 18.2066C79.2954 18.0689 77.7594 18.1924 76.3286 17.4276C74.6442 16.5821 73.5245 14.3211 72.6727 13.0244C73.735 13.8842 75.8692 14.0029 77.678 14.8104C78.9796 15.4659 79.4868 16.2116 80.1041 17.0239C79.4772 15.5324 78.7642 14.0647 77.9316 12.6539C76.5918 12.5019 74.8452 12.8534 73.1273 12.1504C71.3089 11.4807 69.9356 9.43819 68.9737 8.27445C70.0743 8.97744 72.3712 8.92519 74.2805 9.56169C76.142 10.2694 76.5391 11.2147 77.6971 12.2597C76.7832 10.8774 75.7879 9.56644 74.7064 8.30295C74.7208 8.30295 74.7255 8.28395 74.7255 8.2792C73.4335 6.99671 72.0363 6.65471 70.3758 5.49572C68.3182 4.19898 68.0311 3.09224 66.0021 1.71475C65.538 1.46776 65.3944 1.21601 66.2414 1.33001C68.6723 1.862 70.4954 2.14225 72.3186 3.29649C74.6298 4.95423 74.582 6.65946 75.2136 7.6902C76.4673 9.13894 77.6158 10.6779 78.6542 12.2977C78.1757 10.4499 77.3239 9.59969 77.166 7.41471C76.9219 5.37697 77.3478 3.29174 76.6396 2.033C77.8742 3.27274 79.9079 5.30097 80.1328 7.39571C80.2572 9.47619 79.1758 11.0437 78.7451 12.4449C79.75 14.1881 80.5922 15.9979 81.3004 17.8741C81.4296 17.0286 81.1856 15.7081 81.1473 14.6299C81.109 14.0267 81.1233 13.3569 81.2525 12.5494C81.5444 10.3502 82.4823 8.2887 82.1091 6.75921C83.0231 8.40745 84.5256 11.0627 84.1811 13.3189C83.7408 15.5514 82.2048 16.9241 81.444 18.2874C82.0277 20.2253 82.4728 22.1871 82.7647 24.1631C83.2863 22.9281 83.2288 21.6313 83.6116 20.2871C83.7265 19.8074 83.8844 19.2754 84.1428 18.6721C85.0328 16.4586 86.5306 14.5586 86.5498 12.8724C87.0378 14.8294 87.8083 17.9691 86.8464 20.2016C85.8128 22.3771 83.9418 23.4126 82.8125 24.6238C83.0039 26.7518 83.0087 28.8703 82.8747 30.9555C83.9897 28.97 83.9897 27.5545 85.631 25.4123C87.1 23.3508 89.1385 21.7738 89.6123 20.0401C89.5644 22.1823 89.4544 25.5786 87.904 27.6305C86.3392 29.5353 84.2864 30.1813 82.8508 31.1218C82.602 33.2022 82.2048 35.2162 81.6306 37.1685C83.114 35.487 83.5064 34.1 85.6119 32.3615C87.6025 30.585 90.0621 29.464 91.0048 27.8158C90.3827 29.9818 89.3587 33.378 87.2723 35.0832C85.2673 36.6032 83.1618 36.8597 81.5349 37.4677C80.8554 39.3867 80.0371 41.2297 79.1088 42.9634C80.8267 41.6287 81.6067 40.3604 84.0423 39.0874C86.478 37.7242 89.2103 37.1352 90.598 35.6817C89.3778 37.71 87.3919 40.8639 84.9132 42.1132C82.6355 43.1819 80.5922 43.0774 78.8934 43.3482C77.8646 45.0581 76.7449 46.6541 75.5534 48.1171C77.477 47.1244 78.4915 46.0319 81.1138 45.2196C83.803 44.3266 86.6072 44.2791 88.3107 43.1344C86.6263 44.8776 83.9992 47.5519 81.3339 48.3071C78.9126 48.9341 76.9507 48.4971 75.2519 48.4829C73.936 49.9553 72.5483 51.2901 71.0984 52.4776C73.3283 51.8126 74.5006 50.8673 77.3335 50.4873C80.128 50.0741 82.9034 50.5158 84.784 49.7131C82.7982 51.0953 79.7261 53.1901 76.9794 53.4608C74.4289 53.6888 72.5531 52.9288 70.84 52.6818C69.1173 53.9833 67.3085 55.0853 65.4566 55.9973C67.5573 55.793 68.8637 55.2183 71.4716 55.3893C74.1274 55.5508 76.5391 56.477 78.4389 56.1635C77.3765 56.572 75.9936 57.446 74.5772 57.7738C68.4091 59.2178 65.9686 55.7883 61.3127 56.743L61.3079 56.7478Z" fill="#243278"></path>
    <path d="M3.58413 80.906H5.07233V83.7797C5.07233 84.193 5.17281 84.5017 5.37858 84.706C5.57956 84.9102 5.89059 85.01 6.31169 85.01C6.73279 85.01 7.07254 84.9102 7.28308 84.7107C7.49363 84.5065 7.59891 84.2025 7.59891 83.7845V80.9108H9.0871V83.7892C9.0871 84.5872 8.86698 85.1667 8.41718 85.5372C7.97215 85.9077 7.26394 86.0882 6.29733 86.0882C5.83796 86.0882 5.43121 86.0407 5.0819 85.9505C4.72779 85.8555 4.44547 85.7225 4.22535 85.5515C3.99087 85.3615 3.82818 85.1335 3.72769 84.8675C3.6272 84.6015 3.57935 84.2405 3.57935 83.7892V80.9108L3.58413 80.906Z" fill="#243278"></path>
    <path d="M11.9868 86.0027V80.906H13.8865L16.2361 84.573V80.906H17.5376V86.0027H15.6283L13.2836 82.35V86.0027H11.9868Z" fill="#243278"></path>
    <path d="M21.9354 80.906H20.4663V85.998H21.9354V80.906Z" fill="#243278"></path>
    <path d="M26.3855 86.0027L24.2656 80.906H25.84L27.3473 84.763L28.9073 80.906H30.3476L28.1416 86.0027H26.3855Z" fill="#243278"></path>
    <path d="M32.6494 86.0027V80.906H37.0135V81.9937H34.061V82.8772H36.87V83.9222H34.061V84.9102H37.0949V86.0027H32.6494Z" fill="#243278"></path>
    <path d="M39.7075 86.0028V80.9109H42.5069C42.9184 80.9109 43.2294 80.9299 43.4448 80.9631C43.6601 80.9964 43.8419 81.0486 44.0046 81.1246C44.2152 81.2291 44.3731 81.3716 44.4879 81.5569C44.6028 81.7421 44.6554 81.9511 44.6554 82.1886C44.6554 82.5401 44.5358 82.8251 44.3061 83.0389C44.0716 83.2526 43.7223 83.3999 43.2533 83.4759C43.6074 83.4806 43.8706 83.5281 44.0525 83.6231C44.2343 83.7134 44.3539 83.8559 44.4209 84.0601C44.4544 84.1694 44.5071 84.4401 44.5645 84.8771C44.6315 85.3189 44.708 85.6941 44.8085 86.0076H43.2964C43.2486 85.9174 43.2103 85.7416 43.172 85.4851C43.1672 85.4519 43.1624 85.4329 43.1624 85.4091L43.0667 84.7299C43.0237 84.4544 42.9471 84.2739 42.8322 84.1884C42.7126 84.1029 42.4303 84.0554 41.9853 84.0554H41.1239V86.0028H39.7075ZM41.1239 81.8941V83.0816H42.0331C42.4638 83.0816 42.7557 83.0341 42.9184 82.9439C43.0811 82.8536 43.1576 82.6969 43.1576 82.4736C43.1576 82.2504 43.0811 82.1079 42.9327 82.0224C42.7844 81.9369 42.4877 81.8941 42.0331 81.8941H41.1239Z" fill="#243278"></path>
    <path d="M47.1294 84.3022H48.5841V84.3497C48.5841 84.6015 48.6702 84.7867 48.8377 84.9102C49.0052 85.029 49.2636 85.0907 49.6129 85.0907C49.9239 85.0907 50.1536 85.0432 50.3068 84.9577C50.4599 84.8675 50.5365 84.7345 50.5365 84.5587C50.5365 84.3022 50.1823 84.1122 49.4694 83.984C49.3258 83.9602 49.2157 83.9412 49.1392 83.927C48.4405 83.794 47.9477 83.6135 47.6653 83.3855C47.3782 83.1622 47.2395 82.8487 47.2395 82.445C47.2395 81.9272 47.4452 81.5282 47.8567 81.2575C48.2683 80.982 48.8616 80.8442 49.6416 80.8442C50.4216 80.8442 50.9336 80.9677 51.2877 81.2147C51.6466 81.4617 51.838 81.8465 51.8715 82.3785H50.4886V82.3642C50.4886 82.179 50.4168 82.0365 50.2637 81.9415C50.1154 81.8465 49.8952 81.799 49.5986 81.799C49.3019 81.799 49.0961 81.8417 48.943 81.9272C48.7899 82.008 48.7133 82.1267 48.7133 82.2787C48.7133 82.521 49.0578 82.7062 49.7421 82.8345C49.8617 82.8535 49.9574 82.8725 50.0244 82.8915H50.0819C50.8379 83.0435 51.3356 83.224 51.5796 83.4282C51.7184 83.5565 51.8285 83.699 51.905 83.8795C51.9816 84.0552 52.0151 84.2452 52.0151 84.459C52.0151 84.9862 51.8045 85.3947 51.3739 85.6749C50.948 85.9599 50.3355 86.1024 49.5411 86.1024C48.7468 86.1024 48.1391 85.9647 47.7371 85.6892C47.3352 85.4042 47.139 84.9862 47.139 84.4257V84.3212L47.1294 84.3022Z" fill="#243278"></path>
    <path d="M56.159 80.906H54.6899V85.998H56.159V80.906Z" fill="#243278"></path>
    <path d="M59.1211 86.0028V80.9109H61.7099C62.2123 80.9109 62.6143 80.9441 62.9157 81.0011C63.2172 81.0581 63.49 81.1579 63.7244 81.2861C64.0977 81.4951 64.38 81.7896 64.581 82.1744C64.782 82.5591 64.8825 83.0009 64.8825 83.5091C64.8825 84.0174 64.7868 84.4306 64.5954 84.7964C64.4039 85.1621 64.1312 85.4424 63.7723 85.6419C63.5474 85.7749 63.2938 85.8604 63.0162 85.9174C62.7339 85.9743 62.2985 85.9981 61.7147 85.9981H59.1259L59.1211 86.0028ZM61.4945 82.0271H60.5614V84.8914H61.4945C62.1549 84.8914 62.6286 84.7774 62.9301 84.5589C63.2316 84.3309 63.3751 83.9746 63.3751 83.4806C63.3751 82.9866 63.222 82.6304 62.9062 82.3881C62.5951 82.1506 62.1262 82.0319 61.4945 82.0271Z" fill="#243278"></path>
    <path d="M66.6625 86.0028L69.3326 80.9109H71.0649L73.5819 86.0028H71.931L71.4716 84.9674H68.6771L68.2033 86.0028H66.6577H66.6625ZM69.1604 83.9889H71.0027L70.127 82.0271L69.1604 83.9889Z" fill="#243278"></path>
    <path d="M75.7161 86.0028V80.9109H78.3096C78.8121 80.9109 79.214 80.9441 79.5155 81.0011C79.817 81.0581 80.0897 81.1579 80.329 81.2861C80.6974 81.4951 80.9846 81.7896 81.1808 82.1744C81.3817 82.5591 81.4822 83.0009 81.4822 83.5091C81.4822 84.0174 81.3865 84.4306 81.1951 84.7964C81.0037 85.1621 80.7262 85.4424 80.3721 85.6419C80.1472 85.7749 79.8935 85.8604 79.6112 85.9174C79.3289 85.9743 78.8982 85.9981 78.3144 85.9981H75.7209L75.7161 86.0028ZM78.0895 82.0271H77.1564V84.8914H78.0895C78.7499 84.8914 79.2284 84.7774 79.5251 84.5589C79.8218 84.3309 79.9701 83.9746 79.9701 83.4806C79.9701 82.9866 79.8122 82.6304 79.5012 82.3881C79.1853 82.1506 78.7164 82.0319 78.0895 82.0271Z" fill="#243278"></path>
    <path d="M84.1523 86.0027V80.906H88.5164V81.9937H85.5735V82.8772H88.3777V83.9222H85.5735V84.9102H88.6026V86.0027H84.1523Z" fill="#243278"></path>
    <path d="M17.7244 70.556C17.6622 72.2755 17.0353 73.577 15.839 74.4652C14.6427 75.3535 12.9105 75.7952 10.6519 75.7952C7.9913 75.7952 5.96238 75.1682 4.56989 73.9C3.1774 72.6365 2.47876 70.8078 2.47876 68.4043C2.47876 66.0008 3.18697 64.1768 4.61774 62.9181C6.04851 61.6593 8.1205 61.0276 10.8433 61.0276C12.9823 61.0276 14.6188 61.4361 15.7481 62.2436C16.8726 63.0606 17.5138 64.2861 17.6622 65.9343H13.5421C13.4321 65.2693 13.1258 64.7611 12.6234 64.4143C12.1257 64.0723 11.4414 63.9013 10.5801 63.9013C9.24981 63.9013 8.25927 64.2623 7.61327 64.9843C6.96727 65.7015 6.64666 66.8225 6.64666 68.3235C6.64666 69.8245 6.95291 70.974 7.57499 71.7292C8.19228 72.4845 9.12539 72.8597 10.3648 72.8597C11.3553 72.8597 12.1114 72.6697 12.6329 72.2945C13.1497 71.9192 13.4703 71.335 13.5804 70.5465H17.7244V70.556ZM18.4182 75.553V61.2128H30.7114V64.2671H22.3995V66.756H30.3047V69.7058H22.3995V72.475H30.9315V75.5577H18.4135L18.4182 75.553ZM31.6014 61.2128H35.7933V69.302C35.7933 70.4705 36.0804 71.335 36.6546 71.905C37.2288 72.475 38.0997 72.7647 39.2817 72.7647C40.4636 72.7647 41.4302 72.4797 42.0236 71.9145C42.617 71.3445 42.9136 70.48 42.9136 69.302V61.2128H47.1055V69.321C47.1055 71.5678 46.4786 73.2065 45.2201 74.242C43.9616 75.2822 41.9757 75.8 39.2577 75.8C37.9657 75.8 36.8221 75.6717 35.8316 75.4105C34.841 75.1492 34.0371 74.774 33.4198 74.28C32.769 73.748 32.3001 73.1067 32.0178 72.361C31.7354 71.6105 31.5967 70.5988 31.5967 69.321V61.2128H31.6014ZM48.0051 75.553V61.2128H54.2641L58.7143 71.943L63.3225 61.2128H68.9499V75.553H65.4854V64.0771L60.6428 75.553H56.3122L51.5318 64.0771V75.553H48.0051ZM76.0655 69.872H81.2622L78.793 64.3573L76.0655 69.872ZM69.0264 75.553L76.5488 61.2128H81.4392L88.5213 75.553H83.8653L82.5829 72.646H74.716L73.3762 75.553H69.0264Z" fill="#243278"></path>
    <path d="M88.5262 77.9277H3.58423V79.5047H88.5262V77.9277Z" fill="#243278"></path>
    <path d="M88.5262 87.4182H3.58423V89H88.5262V87.4182Z" fill="#243278"></path>
  </g>
  <defs>
    <clipPath id="clip0_137_1419">
      <rect width="91" height="89" fill="white"></rect>
    </clipPath>
  </defs>
</svg>
