<?xml version="1.0" encoding="UTF-8"?>
<svg xmlns="http://www.w3.org/2000/svg" width="191" height="84" viewBox="0 0 191 84" fill="none">
  <g clip-path="url(#clip0_138_1455)">
    <path d="M2.42728 48.9435C2.60164 47.6362 2.39746 46.3764 1.95009 45.146C1.89503 44.9945 1.81932 44.8498 1.77802 44.6937C1.69543 44.368 1.78261 44.0876 2.06939 43.8885C2.33552 43.7031 2.61541 43.7144 2.89301 43.8637C3.00313 43.9225 3.10637 43.9994 3.20732 44.0763C4.35442 44.9357 5.4327 45.8675 6.30909 47.0052C6.36415 47.0753 6.39168 47.1658 6.45821 47.3015C7.47226 45.379 8.27982 43.5493 8.29358 41.4753C8.29358 41.3848 8.29358 41.2943 8.30964 41.2061C8.3647 40.8578 8.53677 40.6045 8.89926 40.5118C9.26404 40.4191 9.54163 40.5661 9.7527 40.8443C9.86053 40.9868 9.94771 41.1496 10.0142 41.3124C10.9136 43.4837 11.2072 45.7364 10.8585 48.0569C10.7094 49.0475 10.4983 50.0268 10.3102 51.0559C10.5786 51.0559 10.8562 51.0649 11.1338 51.0536C11.4229 51.0401 11.712 50.9903 12.0033 50.9858C12.5815 50.9767 12.8751 51.2346 12.9531 51.8023C12.9784 51.9787 12.9738 52.1596 12.983 52.3383C13.0587 53.7338 13.0701 55.136 13.2238 56.5225C13.5037 59.0601 14.5614 61.2653 16.3715 63.1086C16.4472 63.1855 16.5321 63.2488 16.6606 63.3619C16.6858 63.2058 16.7133 63.095 16.7202 62.9819C16.7271 62.8394 16.7042 62.6947 16.7179 62.5522C16.7936 61.7538 16.5459 61.0866 16.087 60.4081C15.0202 58.8317 14.6233 57.0313 14.543 55.1564C14.3457 50.5538 14.1507 45.9535 13.9511 41.3509C13.7722 37.2504 13.5909 33.1499 13.4097 29.0517C13.3477 27.6562 13.2789 26.2585 13.217 24.863C13.2078 24.6685 13.217 24.4717 13.217 24.2139C13.9878 24.1008 14.7518 23.99 15.541 23.8746C15.5571 23.7344 15.5846 23.6168 15.5823 23.4969C15.5571 22.5832 15.5226 21.6695 15.502 20.7557C15.4974 20.5273 15.4699 20.3351 15.2359 20.2174C15.1602 20.179 15.0707 20.0976 15.0546 20.0229C14.9629 19.5593 14.566 19.3557 14.2654 19.0572C13.6643 18.4556 13.5152 17.7183 13.7767 16.9199C14.0314 16.1464 14.605 15.7257 15.4125 15.6013C15.658 15.5628 15.9012 15.5176 16.2568 15.4565C16.0595 15.2575 15.9448 15.1309 15.8163 15.0178C15.0844 14.3641 14.4444 13.6336 13.8915 12.8284C13.139 11.7315 13.1986 10.7499 14.0865 9.7412C14.3962 9.38837 14.7105 9.04007 15.011 8.68045C15.3529 8.27108 15.5685 7.80065 15.6305 7.26914C15.6419 7.16284 15.6603 7.05428 15.6924 6.9525C15.8438 6.47754 16.266 6.34184 16.6743 6.63813C16.7753 6.7105 16.8625 6.80097 16.9726 6.89822C17.0575 6.77609 17.1332 6.67658 17.1974 6.57254C17.8903 5.44168 18.8102 4.55735 20.0101 3.94669C21.0356 3.42649 21.6115 2.56931 21.756 1.44071C21.779 1.2643 21.7881 1.07884 21.756 0.906947C21.6757 0.506624 21.8203 0.214863 22.1621 0H22.4902C23.128 0.531502 23.5891 1.19418 23.8988 1.9496C24.1626 2.5874 24.1535 3.24556 23.8988 3.89241C23.7933 4.15929 23.6717 4.41939 23.5639 4.68627C23.4629 4.93506 23.4056 5.18837 23.5088 5.45977C23.9516 5.23134 24.1764 4.97803 24.3485 4.51438C24.4058 4.36284 24.4425 4.20452 24.5045 4.05525C24.594 3.84039 24.7614 3.70468 25 3.68659C25.2616 3.66624 25.4543 3.79063 25.5782 4.01454C25.6309 4.10727 25.6654 4.21131 25.7044 4.31082C26.115 5.36252 26.1013 6.41874 25.6768 7.45687C25.4474 8.02003 25.1721 8.56737 24.8945 9.11244C24.7155 9.46527 24.7155 9.7412 24.9748 10.0872C25.9039 11.3334 25.8856 12.6317 24.9014 13.8439C24.5091 14.3257 23.9883 14.7102 23.5271 15.1376C23.4308 15.2281 23.3321 15.3163 23.1715 15.4633C23.534 15.5221 23.8025 15.5628 24.0663 15.6058C24.8463 15.737 25.413 16.1418 25.6631 16.8973C25.9108 17.6459 25.8191 18.3651 25.2799 18.9645C24.9312 19.3512 24.3989 19.5819 24.2475 20.1383C23.8506 20.317 23.8942 20.6721 23.8873 21.0113C23.8759 21.5134 23.8483 22.0132 23.8323 22.5153C23.8254 22.6895 23.8323 22.8637 23.8323 23.0785C25.4382 23.0016 26.9868 22.9292 28.5836 22.8546C28.5836 22.6149 28.5882 22.4204 28.5836 22.2281C28.5652 21.6717 28.5446 21.1176 28.5125 20.5635C28.5079 20.4843 28.4666 20.3758 28.4046 20.3351C28.1339 20.1496 27.9802 19.9076 27.916 19.5887C27.8999 19.5073 27.776 19.4326 27.6866 19.3784C26.895 18.8943 26.5555 18.0304 26.7643 17.0872C26.9455 16.2753 27.5994 15.6737 28.6019 15.5832C28.8245 15.5628 29.0401 15.4814 29.3659 15.4C29.1594 15.1964 29.0401 15.0698 28.9117 14.9544C28.1959 14.3099 27.5741 13.5884 27.0373 12.7945C26.3192 11.7315 26.3743 10.7635 27.2162 9.79321C27.5237 9.43813 27.8403 9.09208 28.1431 8.73473C28.5148 8.29822 28.7396 7.79612 28.813 7.23069C28.8268 7.12439 28.8337 7.01357 28.8704 6.91406C29.0172 6.50921 29.4324 6.36898 29.7949 6.60646C29.9119 6.68336 30.0106 6.78514 30.1643 6.91858C30.201 6.85299 30.2262 6.80549 30.2538 6.76026C30.9971 5.48013 32.0501 4.54604 33.367 3.8336C34.4705 3.23651 34.9982 2.21874 34.9294 0.96349C34.9087 0.576737 34.9707 0.262359 35.2552 0H35.6911C36.0971 0.524717 36.5537 1.01777 36.8932 1.57868C37.3452 2.32504 37.3727 3.14378 37.0423 3.96026C36.9345 4.22714 36.8037 4.48498 36.7097 4.75412C36.6317 4.98029 36.5606 5.22229 36.7257 5.51179C37.1318 5.21099 37.4094 4.87851 37.5494 4.43748C37.593 4.30178 37.6228 4.15703 37.6893 4.03037C37.921 3.58029 38.4625 3.55767 38.7378 3.9874C38.7951 4.07561 38.8272 4.18191 38.8662 4.28142C39.3205 5.40775 39.2631 6.5273 38.7859 7.62649C38.5588 8.15347 38.2973 8.66688 38.0403 9.18029C37.8797 9.49919 37.8958 9.74798 38.1298 10.0578C39.075 11.3153 39.0635 12.6475 38.0656 13.8598C37.6595 14.3528 37.1203 14.7418 36.6409 15.1784C36.5445 15.2643 36.4436 15.3457 36.2853 15.4792C36.6271 15.5312 36.8772 15.5674 37.1272 15.6103C38.0174 15.7619 38.5955 16.3092 38.7837 17.1754C38.9718 18.0349 38.6208 18.8717 37.8614 19.3625C37.414 19.652 37.3383 20.222 36.9345 20.5454V22.8637C38.4854 22.9383 40.0179 23.0129 41.5849 23.0876C41.5986 22.9089 41.6193 22.7709 41.617 22.633C41.6078 22.0427 41.5849 21.4501 41.5803 20.8598C41.5803 20.5816 41.5619 20.3373 41.2683 20.1767C41.1582 20.1157 41.0618 19.9574 41.0366 19.8284C40.9884 19.5706 40.8278 19.4417 40.6236 19.3015C39.9101 18.8129 39.5958 17.9535 39.7954 17.1257C40.0065 16.2504 40.5961 15.737 41.5482 15.599C41.7088 15.5764 41.874 15.5583 42.03 15.5153C42.1217 15.4905 42.202 15.4249 42.3557 15.3389C42.1745 15.1829 42.0368 15.0675 41.9061 14.9499C41.2063 14.3189 40.5938 13.611 40.0615 12.8352C39.3044 11.7338 39.3595 10.759 40.2497 9.75024C40.5479 9.41325 40.8484 9.07625 41.1398 8.73247C41.5115 8.29596 41.7386 7.79612 41.8074 7.22843C41.8212 7.12213 41.8327 7.01357 41.8694 6.91406C42.0185 6.50242 42.4223 6.36672 42.7893 6.60646C42.9063 6.68336 43.005 6.7874 43.1059 6.87334C43.1587 6.84168 43.2 6.83037 43.2161 6.80549C43.9755 5.4937 45.0583 4.53926 46.405 3.80646C47.4672 3.22973 47.9743 2.23231 47.9261 1.02229C47.91 0.626494 47.9421 0.282714 48.2427 0H48.6786C49.2177 0.468174 49.6284 1.03586 49.9473 1.66462C50.3212 2.40646 50.3557 3.17997 50.0436 3.95574C49.9427 4.20452 49.8119 4.44653 49.7339 4.7021C49.6628 4.9328 49.6467 5.18158 49.594 5.50275C50.0941 5.31955 50.2914 4.98934 50.4658 4.6433C50.5369 4.50081 50.5782 4.34023 50.6241 4.18643C50.709 3.90372 50.8764 3.70016 51.1908 3.68659C51.5051 3.67076 51.6978 3.85848 51.8079 4.12989C52.1268 4.91018 52.3034 5.71761 52.097 6.5454C51.9501 7.13118 51.7115 7.69661 51.4982 8.26656C51.4225 8.46785 51.3123 8.65557 51.2022 8.84103C50.9017 9.34087 50.8604 9.75024 51.2665 10.2885C52.0327 11.3063 51.9914 12.4281 51.3192 13.5137C50.9246 14.1515 50.3786 14.6469 49.7729 15.0879C49.633 15.1897 49.4953 15.2982 49.2751 15.4679C49.6261 15.5244 49.8693 15.5651 50.1148 15.6058C51.0118 15.7483 51.6404 16.3069 51.8217 17.1257C52.0144 17.9942 51.6817 18.8649 50.9407 19.3354C50.7158 19.4779 50.5369 19.6136 50.491 19.8918C50.475 19.9868 50.3969 20.1066 50.3121 20.1519C49.9588 20.3418 49.9748 20.654 49.9679 20.9819C49.9542 21.7532 49.9175 22.5221 49.8945 23.2934C49.8899 23.4698 49.8945 23.6462 49.8945 23.8724C50.3144 23.9312 50.7067 23.9855 51.0967 24.0397C51.4913 24.094 51.8859 24.1506 52.3241 24.2116C52.3241 24.3903 52.331 24.5486 52.3241 24.7047C52.1979 27.7128 52.0717 30.7208 51.9387 33.7289C51.7781 37.3635 51.606 40.9981 51.4454 44.6326C51.3146 47.5683 51.2045 50.5063 51.0646 53.442C51.0049 54.6565 51.0164 55.8779 50.7755 57.0834C50.4864 58.5309 49.9312 59.8607 49.0434 61.0481C48.8598 61.2924 48.7681 61.5344 48.7749 61.8375C48.7887 62.3509 48.7795 62.8666 48.7795 63.4523C48.9172 63.337 49.0273 63.2578 49.1214 63.1651C50.8856 61.3897 51.9501 59.2659 52.2782 56.8097C52.4296 55.6766 52.4434 54.5231 52.5145 53.3787C52.5466 52.8607 52.5604 52.3406 52.5994 51.8226C52.6407 51.2662 52.9504 50.9903 53.5263 50.9948C53.7809 50.9948 54.0333 51.0333 54.2879 51.0514C54.5931 51.0717 54.8982 51.0853 55.2653 51.1057C55.2171 50.8795 55.1873 50.7099 55.1483 50.5425C54.7674 48.9502 54.5036 47.3467 54.5586 45.7002C54.6114 44.1599 54.9578 42.6853 55.5566 41.2649C55.6323 41.0863 55.7402 40.9121 55.8686 40.7651C56.0728 40.5344 56.339 40.4349 56.6533 40.5231C56.9653 40.609 57.1534 40.8126 57.2062 41.1225C57.2452 41.3509 57.2658 41.5861 57.2727 41.8168C57.3094 43.0155 57.6122 44.1554 58.0917 45.2501C58.3762 45.9015 58.6905 46.5393 58.9888 47.1838L59.131 47.2381C59.1585 47.1703 59.1723 47.0911 59.2136 47.0346C60.0992 45.8811 61.1889 44.9357 62.3544 44.0695C62.4117 44.0265 62.4691 43.979 62.5287 43.9406C62.8843 43.7144 63.217 43.7053 63.4923 43.9111C63.7699 44.1215 63.8456 44.4223 63.7217 44.8339C63.5451 45.4152 63.3134 45.9874 63.2009 46.5822C62.9188 48.084 63.0151 49.5926 63.373 51.0649C63.7906 52.7884 64.3113 54.4869 64.7794 56.1968C65.0065 57.0268 65.2359 57.8569 65.4217 58.6937C65.4997 59.0375 65.502 59.4084 65.4791 59.7612C65.4217 60.6614 64.8964 61.2223 63.9879 61.3354C62.9784 61.4598 61.9621 61.5389 60.9503 61.6385C60.6635 61.6679 60.3768 61.7018 60.0831 61.7357C60.0349 61.8375 59.9936 61.9166 59.9615 61.9981C58.1216 66.9784 54.7215 70.6084 50.0368 73.1234C49.6054 73.3541 49.1627 73.5645 48.7199 73.7725C48.5409 73.8562 48.4193 73.949 48.4148 74.1661C48.3918 75.1703 48.362 76.1722 48.3345 77.1764C48.3299 77.3166 48.3345 77.4569 48.3345 77.6604H49.7408C49.9863 78.452 49.7454 79.1057 49.1145 79.4721C48.9906 79.5444 48.8575 79.61 48.7245 79.6643C48.456 79.7751 48.3345 79.9651 48.3528 80.2523C48.362 80.3948 48.3528 80.5396 48.3413 80.6821C48.3138 81.0507 48.1394 81.3515 47.8068 81.5008C47.5292 81.6252 47.3525 81.8197 47.1667 82.0436C46.4693 82.8759 45.0675 82.833 44.3884 81.9871C44.2691 81.8401 44.136 81.6727 43.9709 81.5958C43.4799 81.3719 43.2367 80.9919 43.2642 80.4876C43.2918 80.0058 43.122 79.7435 42.67 79.5399C41.9015 79.1984 41.7157 78.7415 41.8304 77.7057C42.264 77.6853 42.709 77.6649 43.1725 77.6446V75.6543C40.5525 76.2401 37.9623 76.5454 35.2987 76.6788V78.9745C35.7759 78.9971 36.26 79.0174 36.7326 79.0401C36.8978 80.0397 36.6822 80.5034 35.8287 80.9082C35.4754 81.0756 35.2873 81.2814 35.3102 81.6863C35.3446 82.2766 35.1381 82.7402 34.5164 82.9438C34.4522 82.9641 34.3765 83.0116 34.3466 83.0682C34.0805 83.5929 33.5781 83.801 33.0711 84.0023H32.4172C31.9263 83.7761 31.4261 83.5658 31.16 83.041C31.1141 82.9506 30.9466 82.9212 30.8342 82.8669C30.4625 82.6814 30.2629 82.3806 30.2285 81.9735C30.2194 81.8491 30.2102 81.7225 30.2217 81.5981C30.2538 81.2814 30.1092 81.0869 29.8202 80.9738C29.7353 80.9399 29.655 80.8992 29.5747 80.8562C28.8543 80.4763 28.5928 79.8701 28.8084 79.0401C29.2627 79.0152 29.7261 78.9881 30.1643 78.9632V76.6698C27.4961 76.5386 24.906 76.2265 22.2952 75.6339V77.6695C22.5636 77.6695 22.7999 77.6672 23.0339 77.6695C23.2633 77.674 23.4927 77.6853 23.7107 77.6921C23.8392 78.7234 23.6097 79.1735 22.7792 79.5919C22.6989 79.6326 22.5911 79.6507 22.5406 79.7141C22.4351 79.8452 22.3365 79.9922 22.2791 80.1483C22.2378 80.2591 22.2653 80.3971 22.2653 80.5215C22.2653 81.0213 22.0405 81.3696 21.5748 81.58C21.4371 81.6433 21.3086 81.7564 21.2169 81.8763C20.4323 82.8986 19.0121 82.9031 18.239 81.8876C18.1472 81.7654 18.021 81.6456 17.8834 81.5845C17.3878 81.3674 17.1492 80.9806 17.1791 80.4763C17.2066 79.9922 17.0276 79.7344 16.5803 79.5331C15.7957 79.1803 15.5616 78.5809 15.7865 77.6943C16.2201 77.674 16.6652 77.6536 17.1355 77.6333C17.1355 77.4026 17.1401 77.2262 17.1355 77.0498C17.1079 76.136 17.0598 75.2223 17.0575 74.3086C17.0575 73.9648 16.9129 73.8132 16.6216 73.6685C15.8117 73.2637 14.9996 72.8566 14.2287 72.3839C10.3744 70.0249 7.52502 66.8132 5.82272 62.6472C5.70112 62.3509 5.58871 62.0478 5.46253 61.7289C5.17804 61.695 4.90962 61.6588 4.6412 61.6317C3.59274 61.5276 2.542 61.4304 1.49354 61.3218C0.926871 61.263 0.493265 60.9826 0.250078 60.4759C0.0458935 60.0507 -0.0665229 59.5916 0.0321282 59.1166C0.183546 58.3974 0.323493 57.6759 0.523089 56.9703C0.965872 55.4007 1.46372 53.8446 1.89273 52.2727C2.19098 51.1848 2.42728 50.0788 2.4227 48.9389L2.42728 48.9435ZM46.6046 14.6333L47.5934 14.7192L47.8045 14.7147C48.0706 14.769 48.3459 14.8006 48.6029 14.8843C48.8415 14.9635 49.0342 14.9137 49.2085 14.7645C49.6467 14.3913 50.1148 14.043 50.5071 13.6246C50.9751 13.127 51.2389 12.5254 51.2137 11.8174C51.193 11.252 50.982 10.7635 50.6218 10.3473C50.2662 9.9357 50.2364 9.51955 50.4589 9.0559C50.6057 8.7483 50.764 8.44523 50.9017 8.13312C51.0944 7.68982 51.3055 7.25105 51.4454 6.78966C51.6863 5.99354 51.6427 5.2042 51.216 4.32439C51.0049 5.07981 50.6401 5.62262 50.0689 6.00937C49.516 6.38255 49.0021 6.81454 48.3505 7.21712C48.4239 6.69467 48.7061 6.43457 48.9562 6.1609C49.103 6.00032 49.1856 5.85331 49.0984 5.63393C48.9447 5.24039 49.0365 4.85816 49.181 4.48271C49.298 4.18191 49.4426 3.89015 49.5458 3.58708C49.8601 2.6643 49.4449 1.47237 48.6075 0.88433C48.5891 0.936349 48.5616 0.983845 48.5593 1.03134C48.5042 2.66882 47.7242 3.84265 46.249 4.58675C45.407 5.00969 44.7211 5.62714 44.2049 6.40065C43.8584 6.9231 43.5831 7.49079 43.2757 8.03813C43.2138 8.14895 43.1472 8.25751 43.0509 8.42488C42.8949 7.9454 42.8903 7.48853 42.5117 7.21486C42.4727 7.23522 42.4475 7.23974 42.4406 7.25331C42.4154 7.30081 42.3856 7.3483 42.3787 7.40032C42.2961 8.16704 41.8923 8.77544 41.4013 9.34087C41.165 9.61228 40.9241 9.87916 40.6856 10.1506C39.9996 10.9354 39.9308 11.6614 40.5571 12.4892C41.0641 13.1609 41.6629 13.767 42.1997 14.4184C42.5485 14.8414 42.9499 14.9431 43.4455 14.7192L45.6204 14.6039L46.6023 14.6265L46.6046 14.6333ZM32.5296 14.6288C33.1858 14.6582 33.8419 14.6876 34.4981 14.7147H34.8147C35.0624 14.7712 35.3194 14.8052 35.5557 14.8866C35.7897 14.968 35.987 14.9454 36.1637 14.7916C36.6409 14.38 37.1662 14.009 37.57 13.5363C38.4326 12.5231 38.4533 11.442 37.6434 10.3926C37.2695 9.90856 37.2465 9.46074 37.5012 8.9496C37.726 8.49952 37.9486 8.04944 38.1642 7.59483C38.5129 6.86204 38.646 6.09305 38.529 5.29241C38.49 5.021 38.3913 4.75638 38.3019 4.42617C38.0059 4.88078 37.8063 5.28562 37.5127 5.60905C37.2259 5.92343 36.8519 6.16769 36.4963 6.41196C36.1407 6.65622 35.8379 6.98643 35.363 7.15832C35.4249 6.7105 35.7048 6.47076 35.9159 6.18805C36.0145 6.0546 36.1407 5.85331 36.1017 5.72666C35.9113 5.10242 36.1338 4.56414 36.3747 4.0168C36.9024 2.82262 36.6202 1.6895 35.5809 0.80517C35.5695 0.81874 35.5511 0.83231 35.5511 0.845881C35.5695 2.57609 34.7734 3.80194 33.2271 4.61389C32.7223 4.87851 32.2635 5.25622 31.846 5.64523C31.1508 6.29435 30.6874 7.10856 30.302 7.96801C30.24 8.10372 30.1666 8.23489 30.0634 8.43166C29.8844 7.97254 29.9119 7.5021 29.4852 7.23748C29.4393 7.31212 29.3934 7.35283 29.3889 7.40032C29.2856 8.18061 28.8727 8.80485 28.3656 9.38158C28.1041 9.68013 27.8288 9.96737 27.5787 10.2727C27.0442 10.9263 26.9937 11.6003 27.4342 12.315C27.9871 13.2084 28.6937 13.9751 29.4806 14.6763C29.6458 14.8233 29.8179 14.8753 30.0289 14.8187C30.1689 14.7826 30.3111 14.7509 30.4534 14.7192C31.1439 14.6876 31.8322 14.6559 32.5227 14.6242L32.5296 14.6288ZM19.4274 14.6152L20.4139 14.6288C20.6433 14.6649 20.8705 14.7124 21.1022 14.7373C21.5335 14.7826 21.9763 14.7803 22.3984 14.864C22.676 14.9183 22.8985 14.9002 23.105 14.7215C23.5271 14.3551 23.9722 14.009 24.3508 13.6042C24.8211 13.1021 25.0666 12.4914 25.0299 11.7858C25 11.243 24.8004 10.7635 24.4494 10.3654C24.0755 9.93797 24.0548 9.50598 24.2957 9.02649C24.4655 8.6895 24.6582 8.36155 24.7913 8.00872C25.0115 7.4252 25.2432 6.8349 25.3763 6.22876C25.5093 5.61809 25.3694 5.01422 25.0459 4.45105C24.7981 5.30372 24.1925 5.8307 23.5042 6.29435C23.144 6.53635 22.8045 6.80775 22.4535 7.06333C22.3777 7.11761 22.2906 7.15606 22.13 7.24879C22.2286 6.74217 22.5085 6.45945 22.7724 6.17221C22.9169 6.01389 23.0064 5.86688 22.9215 5.64523C22.7609 5.23134 22.8687 4.83328 23.0224 4.442C23.1348 4.15703 23.2679 3.88336 23.3666 3.59386C23.6809 2.67108 23.2725 1.49725 22.403 0.859451C22.3777 1.14216 22.3777 1.40679 22.3296 1.66236C22.091 2.91535 21.4348 3.88788 20.2717 4.47819C19.2049 5.01874 18.3721 5.79451 17.7595 6.80097C17.5163 7.19903 17.3213 7.62423 17.1011 8.03813C17.0391 8.15574 16.9703 8.26882 16.8625 8.45428C16.7386 7.95897 16.6973 7.52019 16.3073 7.18998C16.2614 7.30307 16.2109 7.37997 16.1971 7.46139C16.087 8.20097 15.7016 8.80032 15.2198 9.34992C14.995 9.60775 14.7656 9.86333 14.5384 10.1189C13.8043 10.949 13.7722 11.6342 14.4031 12.5502C14.8963 13.2649 15.4813 13.8982 16.0985 14.5089C16.4541 14.8617 16.7959 14.9906 17.2456 14.7283C17.9706 14.6898 18.6955 14.6536 19.4205 14.6152H19.4274ZM5.0381 52.3089C5.00598 52.4265 4.97845 52.4785 4.98304 52.5283C5.07022 54.3535 5.05416 56.1832 5.33864 57.9971C6.10032 62.8801 8.39453 66.9173 12.2465 70.0769C15.1831 72.4856 18.59 73.9603 22.2745 74.8559C25.5415 75.6498 28.8658 75.946 32.2222 75.9709C35.7966 75.9981 39.3457 75.7606 42.8375 74.9599C46.1091 74.209 49.1902 73.0149 51.9455 71.0901C56.4881 67.9192 59.248 63.6378 60.168 58.2142C60.4846 56.3506 60.4525 54.4643 60.5626 52.5871C60.5672 52.5057 60.5282 52.4197 60.503 52.3044C58.1216 52.1166 55.7608 51.8814 53.3588 51.7276C53.3312 52.2094 53.306 52.6187 53.2808 53.0281C53.2097 54.2449 53.1982 55.4662 53.0536 56.674C52.6682 59.8585 51.2022 62.4889 48.7015 64.5448C46.678 66.2071 44.3265 67.2204 41.7982 67.8649C39.6784 68.4078 37.515 68.6611 35.3309 68.7651C31.9056 68.928 28.4941 68.8284 25.1193 68.1771C22.8572 67.7406 20.6915 67.0236 18.7047 65.843C14.6485 63.432 12.531 59.8901 12.3452 55.2265C12.3039 54.1884 12.2603 53.1502 12.2121 52.1099C12.2075 51.9922 12.1685 51.8746 12.1364 51.7095C9.75729 51.9086 7.40802 52.1053 5.0358 52.3044L5.0381 52.3089ZM29.0906 50.4973C28.4826 51.022 27.9297 51.5015 27.3424 52.0081C28.345 53.1616 29.3086 54.2675 30.2928 55.3961C30.9007 54.885 31.4536 54.4236 32.0593 53.9147C33.1674 55.1926 34.2503 56.4365 35.363 57.7189C34.7688 58.23 34.2113 58.7118 33.6125 59.2275C34.6013 60.3674 35.5649 61.4756 36.5583 62.6178C37.1708 62.1111 37.7352 61.643 38.3225 61.1567C38.4831 61.3286 38.607 61.4553 38.724 61.5887C39.5637 62.5544 40.4171 63.5089 41.2362 64.495C41.5 64.8139 41.7501 64.8818 42.1194 64.7302C42.9247 64.4 43.7621 64.1399 44.5398 63.7554C47.7517 62.17 49.7339 59.6866 50.1813 56.1063C50.2731 55.3803 50.2386 54.7515 49.6261 54.2087C49.1466 53.7835 48.7704 53.2475 48.323 52.7296C48.9172 52.2139 49.4701 51.7344 50.0666 51.2165C49.0732 50.0721 48.1096 48.9638 47.1277 47.833C46.5128 48.3396 45.9462 48.8055 45.3864 49.2669C44.7922 48.7467 42.303 45.8313 42.1217 45.4378C42.6678 44.9696 43.2229 44.4947 43.7713 44.0265C43.0853 43.0675 41.1283 40.885 40.7727 40.6792C40.2244 41.1338 39.6738 41.5906 39.0773 42.0837C37.9646 40.8036 36.884 39.5596 35.7759 38.2817C36.3816 37.7638 36.9391 37.2889 37.4851 36.8207C37.0928 36.1964 34.8743 33.6837 34.5095 33.4485C33.9543 33.9099 33.3923 34.3758 32.8072 34.862C31.6854 33.5706 30.614 32.3357 29.5127 31.0669L31.2586 29.5515C30.2675 28.4116 29.3063 27.3034 28.3152 26.1635C27.6934 26.6814 27.1314 27.1496 26.5532 27.6313C26.3834 27.4481 26.2596 27.3192 26.1425 27.1835C25.2776 26.1906 24.4104 25.2 23.557 24.1981C23.362 23.9696 23.1578 23.8679 22.8526 23.8995C20.3405 24.1596 17.826 24.4084 15.3139 24.6685C14.8849 24.7137 14.4604 24.7974 13.997 24.8675C13.997 25.0869 13.9901 25.2633 13.997 25.4397C14.1071 28.0181 14.2218 30.5964 14.3274 33.1725C14.3365 33.4236 14.4283 33.6136 14.5912 33.7968C15.1418 34.4187 15.6832 35.0452 16.2247 35.674C16.3279 35.7939 16.4151 35.925 16.5298 36.0743C15.9471 36.5787 15.3919 37.0582 14.8068 37.5648C15.8071 38.716 16.7684 39.822 17.7549 40.9551C18.3743 40.4349 18.9341 39.9645 19.5237 39.4691C20.6525 40.7696 21.7354 42.009 22.8297 43.2801C22.2103 43.8071 21.6528 44.2821 21.1045 44.7525C21.779 45.6911 23.7451 47.8918 24.103 48.1089C24.6467 47.6543 25.1973 47.1974 25.8007 46.6953C26.9088 47.9732 27.9802 49.2058 29.0998 50.4973H29.0906ZM34.6564 32.4895C35.9365 33.9687 37.1571 35.38 38.4189 36.8388C37.827 37.3567 37.2809 37.8362 36.6936 38.3496C37.5218 39.3086 38.3065 40.2155 39.1347 41.1745C39.7403 40.6814 40.307 40.22 40.8989 39.7383C41.0412 39.874 41.1628 39.978 41.2683 40.0956C41.8969 40.8149 42.5232 41.5364 43.1495 42.2578C43.574 42.7486 44.003 43.2349 44.4251 43.728C44.6775 44.0242 44.6729 44.0876 44.3815 44.3431C44.1108 44.5806 43.824 44.8045 43.5556 45.0443C43.3721 45.2071 43.2046 45.3903 43.0027 45.5893C43.7942 46.5574 44.5697 47.4688 45.43 48.3712C46.0265 47.8895 46.5794 47.4417 47.169 46.9667C48.3069 48.1044 49.2108 49.3574 50.3969 50.547C50.452 49.8278 50.5071 49.2465 50.5369 48.6653C50.5621 48.1813 50.5461 47.6973 50.569 47.2132C50.6264 46.0507 50.7044 44.8905 50.7548 43.728C50.8099 42.475 50.8374 41.222 50.8833 39.969C50.9154 39.1095 50.9544 38.2523 50.998 37.3929C51.0967 35.4275 51.2091 33.4598 51.2986 31.4943C51.3582 30.2074 51.3858 28.9183 51.4271 27.6291C51.4293 27.5386 51.4431 27.4504 51.4477 27.3622C51.4752 26.6837 51.5142 26.0029 51.5257 25.3244C51.5326 24.9195 51.4408 24.8223 51.0279 24.7635C50.3442 24.6708 49.6582 24.5939 48.9722 24.5192C47.7265 24.3858 46.4807 24.2478 45.235 24.1302C44.2049 24.033 43.1725 23.9493 42.1401 23.8792C41.2889 23.8204 40.4355 23.791 39.582 23.7502C38.2032 23.6847 36.8244 23.5897 35.4456 23.5648C31.8643 23.4992 28.2853 23.5761 24.7087 23.7751C24.555 23.7842 24.4035 23.8226 24.2361 23.8498C24.4861 24.3903 26.2664 26.4032 26.7023 26.6385C27.23 26.2132 27.7737 25.7745 28.306 25.3447C28.7809 25.6569 31.8322 29.1693 32.0456 29.6352C31.6509 30.2527 30.8893 30.5354 30.4786 31.2071C31.2816 32.1276 32.0685 33.03 32.8761 33.9574C33.4886 33.4553 34.0415 33.0006 34.6587 32.4895H34.6564ZM34.4453 57.6488L31.9928 54.833C31.3756 55.3328 30.8204 55.7829 30.2469 56.2488C30.1024 56.1199 29.9854 56.0362 29.8959 55.9322C29.265 55.2152 28.6409 54.4914 28.0123 53.7722C27.5856 53.2814 27.1589 52.7952 26.739 52.2998C26.4936 52.0126 26.4936 51.9312 26.762 51.6643C26.9409 51.4856 27.1451 51.3341 27.3332 51.1645C27.5971 50.927 27.8586 50.685 28.1087 50.4565C27.6407 49.6876 26.0095 47.8918 25.608 47.6995C25.0803 48.1338 24.5412 48.5748 23.9585 49.0543C22.6508 47.6045 21.4234 46.1819 20.1707 44.705C20.6617 44.2843 21.0999 43.9134 21.5358 43.5402C21.8707 43.253 21.8799 43.1761 21.5931 42.8414C21.0058 42.1583 20.4208 41.473 19.8266 40.7945C19.7142 40.6656 19.5673 40.5661 19.409 40.4304L17.67 41.8394C16.6422 40.6611 15.6557 39.5302 14.6279 38.3496C14.5866 38.4943 14.5614 38.5441 14.5637 38.5916C14.6554 40.4869 14.761 42.3822 14.8436 44.2775C14.9009 45.5667 14.9284 46.8559 14.9697 48.1428C14.972 48.2152 14.9766 48.2853 14.9812 48.3577C15.0454 49.5541 15.1143 50.7528 15.1762 51.9493C15.2496 53.3606 15.2726 54.7787 15.4033 56.1855C15.6006 58.2708 16.4587 60.0847 17.9384 61.5955C19.2943 62.9796 20.9691 63.8595 22.7861 64.5086C25.6608 65.5354 28.6639 65.8068 31.6854 65.9199C33.8144 65.999 35.9365 65.8611 38.0495 65.5942C38.7148 65.5105 39.3778 65.3839 40.0363 65.2572C40.2955 65.2074 40.5777 65.1486 40.6603 64.789C39.8413 63.9024 39.1209 62.9231 38.2216 62.0614C37.7696 62.4436 37.3658 62.7761 36.9735 63.1176C36.5124 63.5179 36.5078 63.5225 36.1224 63.0837C35.1496 61.9709 34.1746 60.8604 33.2064 59.7431C33.0458 59.5577 32.9151 59.3473 32.7522 59.1279C33.3188 58.6349 33.8442 58.1758 34.4453 57.6511V57.6488ZM2.59017 44.6688C2.60164 44.7186 2.60623 44.7729 2.62688 44.8204C3.16143 46.1638 3.29679 47.557 3.20732 48.991C3.0949 50.7935 2.65212 52.526 2.1451 54.2494C1.7459 55.6087 1.32606 56.9612 0.954401 58.3273C0.837396 58.7525 0.796101 59.2116 0.802983 59.6549C0.81216 60.2475 1.14711 60.5619 1.70231 60.6139C2.12904 60.6546 2.46399 60.4986 2.63147 60.0236C2.83107 59.4536 2.98478 58.8565 3.0536 58.2572C3.17061 57.2439 3.19355 56.2216 3.27614 55.2039C3.34497 54.3444 3.48721 53.494 3.88411 52.7115C4.15253 52.18 4.55172 51.8475 5.19869 51.8158C6.03379 51.7751 6.86429 51.6847 7.69709 51.61C8.25229 51.5603 8.80749 51.506 9.36498 51.4517C9.78482 49.9861 10.0991 48.5567 10.2138 47.0843C10.3607 45.1913 10.0418 43.3729 9.32368 41.6178C9.28239 41.516 9.1975 41.4323 9.08509 41.2695C9.06673 41.4911 9.05297 41.6155 9.04608 41.7376C8.97267 42.925 8.7639 44.0898 8.289 45.1868C7.75444 46.4194 7.1786 47.6362 6.59357 48.9186C5.72636 47.0527 4.24659 45.7816 2.59706 44.6643L2.59017 44.6688ZM56.4537 41.2468C56.3298 41.4414 56.2541 41.5318 56.2105 41.6359C55.7172 42.8391 55.4098 44.0853 55.3272 45.3835C55.2056 47.3037 55.552 49.1628 56.0476 51.0061C56.1715 51.4721 56.1784 51.4653 56.6647 51.506C57.8417 51.6032 59.0163 51.7435 60.1932 51.7955C61.0306 51.8317 61.5216 52.2501 61.7671 52.967C61.969 53.5574 62.1364 54.1703 62.2076 54.7855C62.3314 55.8507 62.3613 56.9273 62.4484 57.9971C62.5058 58.6937 62.5861 59.3903 62.8981 60.0326C63.1344 60.5166 63.4648 60.6795 63.9511 60.589C64.4375 60.4986 64.7059 60.2181 64.7289 59.6979C64.7449 59.3609 64.7427 59.0081 64.6601 58.6847C64.3916 57.6262 64.1003 56.5722 63.7837 55.5273C63.1895 53.5709 62.5815 51.6191 62.3773 49.5767C62.219 47.9935 62.281 46.4284 62.8729 44.9199C62.9096 44.8294 62.9279 44.7322 62.9555 44.6372C62.375 44.9922 61.8542 45.379 61.3793 45.8178C60.8907 46.2701 60.4158 46.7451 59.9982 47.2607C59.599 47.7515 59.2847 48.3079 58.9245 48.8485C58.3785 47.6543 57.8256 46.4895 57.3094 45.3089C56.823 44.1984 56.5592 43.0313 56.5202 41.8168C56.5156 41.663 56.4858 41.5115 56.456 41.2446L56.4537 41.2468ZM45.8085 15.9202C44.4045 15.9066 43.0119 16.0265 41.6285 16.2459C40.6305 16.4042 40.1349 17.3903 40.5984 18.2859C40.8553 18.7858 41.2339 18.9826 41.7959 18.9079C44.4779 18.5574 47.1575 18.5506 49.8395 18.9079C50.3763 18.9803 50.7434 18.7926 51.0095 18.3244C51.4408 17.5667 51.1036 16.3816 49.9886 16.2346C48.6006 16.0491 47.2103 15.9044 45.8085 15.9202ZM19.7394 15.9202C18.3353 15.9066 16.9473 16.0514 15.5571 16.2346C14.4604 16.3793 14.0612 17.5554 14.5591 18.3651C14.8137 18.7813 15.1693 18.9871 15.697 18.9147C18.3766 18.5438 21.0586 18.5551 23.7405 18.9057C24.298 18.978 24.6857 18.779 24.945 18.2882C25.3465 17.526 25.0023 16.3838 23.9195 16.2346C22.5315 16.0446 21.1412 15.9021 19.7394 15.9157V15.9202ZM32.7636 18.5777C34.1058 18.6885 35.4433 18.7903 36.7808 18.9124C37.3291 18.9622 37.6939 18.8039 37.96 18.3402C38.4671 17.4604 37.9669 16.4042 36.9575 16.2436C34.1723 15.8048 31.3894 15.8207 28.5974 16.2323C27.4824 16.3974 27.113 17.5871 27.5994 18.3651C27.8586 18.779 28.2096 18.9735 28.7373 18.9192C30.0725 18.7813 31.4123 18.6885 32.7591 18.5754L32.7636 18.5777ZM49.2154 20.1292C46.9006 19.9121 44.6637 19.894 42.3466 20.1406C42.3787 21.1606 42.4108 22.1331 42.4429 23.1486L43.2184 23.1893C43.2184 22.927 43.2184 22.7325 43.2184 22.5402C43.2138 22.1286 43.2069 21.717 43.2046 21.3053C43.2046 21.0407 43.3285 20.853 43.59 20.7851C43.8355 20.7218 44.0466 20.7761 44.1934 21.0475C43.9112 21.1719 43.6061 21.2805 43.6038 21.6242C43.6038 22.1557 43.6359 22.685 43.6566 23.2278C44.2278 23.3024 44.7211 23.4042 45.2877 23.2956C45.2877 23.0876 45.2877 22.8931 45.2877 22.7008C45.2877 22.2349 45.2877 21.769 45.2877 21.3031C45.2877 21.0362 45.4162 20.853 45.6732 20.7851C45.9164 20.7195 46.1274 20.7761 46.2238 20.957C46.0219 21.1922 45.7443 21.3709 45.7122 21.5835C45.625 22.1784 45.6663 22.7868 45.7374 23.4291L47.3066 23.5716C47.3227 23.3002 47.3411 23.1079 47.3434 22.9134C47.3525 22.3774 47.3571 21.8391 47.3663 21.3008C47.3709 21.0362 47.5062 20.853 47.7609 20.7851C48.0018 20.7218 48.2152 20.7716 48.362 21.0746C47.816 21.1674 47.7425 21.5383 47.7563 21.9658C47.7632 22.1625 47.7448 22.3593 47.7448 22.5561C47.7448 22.9066 47.7494 23.2572 47.754 23.6326C48.2358 23.6801 48.6396 23.7186 49.0961 23.7638C49.1374 22.5357 49.1741 21.3777 49.2154 20.127V20.1292ZM21.6941 23.2527C22.1667 23.2097 22.5865 23.169 23.0316 23.1283C23.066 22.0947 23.0958 21.138 23.128 20.136C20.8154 19.9053 18.5808 19.9031 16.3554 20.127C16.227 20.7309 16.321 23.3047 16.4839 23.7661L17.1401 23.6733C17.1401 23.4381 17.1401 23.2459 17.1401 23.0514C17.1332 22.4973 17.124 21.9409 17.1125 21.3868C17.1079 21.1357 17.1699 20.9163 17.4245 20.8145C17.6861 20.7105 17.9201 20.7535 18.0876 21.0045C17.6792 21.2744 17.488 21.6702 17.514 22.1919C17.5301 22.5131 17.537 22.8365 17.5576 23.1577C17.5668 23.3115 17.5943 23.463 17.6173 23.653L19.2003 23.463C19.2003 23.1871 19.2003 22.9745 19.2003 22.7619C19.2003 22.2779 19.2003 21.7961 19.2003 21.3121C19.2003 21.0475 19.3264 20.862 19.5834 20.7897C19.8266 20.7218 20.0399 20.7761 20.1409 20.9616C19.9413 21.19 19.6591 21.3687 19.6293 21.5813C19.5444 22.1738 19.5742 22.7822 19.6637 23.4246C19.9803 23.3974 20.2464 23.3725 20.5148 23.3544C21.3132 23.3047 21.2582 23.3454 21.2696 22.5357C21.2765 22.106 21.2765 21.6763 21.2926 21.2465C21.3018 21.0045 21.4532 20.8439 21.6826 20.7851C21.9235 20.7241 22.1346 20.7716 22.2745 21.0588C21.9923 21.1651 21.7147 21.2759 21.7055 21.5948C21.6895 22.1105 21.701 22.6262 21.701 23.2527H21.6941ZM31.1026 20.9502C30.8962 21.1922 30.6346 21.3664 30.5887 21.5835C30.5107 21.9567 30.5681 22.357 30.5681 22.7709C31.1623 22.8342 31.6739 22.8275 32.2268 22.7709C32.2268 22.2417 32.2222 21.7758 32.2268 21.3121C32.2314 21.0543 32.3622 20.8598 32.6168 20.7874C32.86 20.7195 33.0825 20.7625 33.1927 20.9661C32.9977 21.1764 32.7201 21.3438 32.6742 21.5586C32.5916 21.9454 32.5755 22.3683 32.7178 22.7641H34.2962C34.2962 22.4905 34.2939 22.2598 34.2962 22.0313C34.3008 21.7622 34.2916 21.4931 34.3237 21.2262C34.3512 20.9955 34.4958 20.8281 34.7344 20.7784C34.9798 20.7286 35.1863 20.7829 35.324 21.0543C35.0211 21.1719 34.739 21.2895 34.7275 21.6355C34.716 22.0065 34.7252 22.3774 34.7252 22.7664C35.207 22.8252 35.6291 22.8931 36.0971 22.7483V20.1292C33.8419 19.9031 31.6074 19.9008 29.382 20.1292C29.281 20.7829 29.3499 22.4204 29.4944 22.8162L30.1459 22.7868C30.1459 22.2688 30.1459 21.8074 30.1459 21.3438C30.1459 21.0837 30.2515 20.8847 30.5015 20.7964C30.7447 20.7105 30.9627 20.758 31.1026 20.948V20.9502ZM29.8752 66.6233C28.6042 66.4582 27.3906 66.3473 26.1976 66.1325C25.0069 65.9176 23.8369 65.601 22.614 65.3183V66.7658C24.9702 67.5166 27.3883 67.8808 29.8752 67.9916V66.6233ZM35.6085 68.0006C38.1206 67.8717 40.5433 67.5347 42.8742 66.7771V65.2572C40.4951 66.0646 38.077 66.3948 35.6085 66.5848V68.0006ZM31.2632 82.2947C31.5202 81.6094 32.041 81.2407 32.7889 81.2407C33.5368 81.2407 34.0323 81.6524 34.3168 82.3557C34.443 82.2585 34.5692 82.2087 34.5967 82.1296C34.6564 81.9486 34.7045 81.7473 34.6931 81.5574C34.6587 80.9965 34.9225 80.6414 35.4203 80.4197C35.5695 80.3541 35.7209 80.284 35.8494 80.189C36.0214 80.0601 36.1797 79.9063 36.0719 79.644C35.2804 79.5399 34.583 79.6439 34.1012 80.3586C33.9888 80.526 33.8121 80.6549 33.601 80.8653C33.5506 80.6776 33.4886 80.5803 33.5093 80.5011C33.5551 80.3111 33.6492 80.1325 33.7043 79.9448C33.8832 79.3273 33.468 78.7664 32.8118 78.728C32.158 78.6895 31.6555 79.3047 31.8345 79.9244C31.8735 80.0624 31.9423 80.1913 31.9698 80.3315C31.9951 80.4582 32.041 80.6617 31.9813 80.7092C31.8001 80.8494 31.6991 80.6436 31.5936 80.5373C31.4284 80.3722 31.2885 80.1822 31.1233 80.0171C30.7264 79.6168 29.9899 79.4969 29.4279 79.7299C29.5586 80.1438 29.5494 80.1709 30.0037 80.3609C30.6163 80.6187 30.9191 81.0349 30.8617 81.6976C30.8549 81.7858 30.864 81.8763 30.8801 81.9645C30.9145 82.1567 31.004 82.2992 31.2632 82.2992V82.2947ZM20.5607 79.5377C20.508 79.3544 20.4483 79.2572 20.4667 79.178C20.5057 79.0039 20.5906 78.8433 20.6456 78.6714C20.8406 78.0472 20.6112 77.6288 19.9803 77.4456C19.5857 77.3302 19.276 77.4953 18.9823 77.7328C18.7024 77.959 18.6588 78.2304 18.7781 78.5493C18.8538 78.7506 18.9273 78.9541 18.9938 79.1577C19.0488 79.325 19.003 79.4336 18.7735 79.4426C18.6359 79.2956 18.4707 79.1509 18.3491 78.9767C17.865 78.2756 17.1791 78.2213 16.4082 78.3412C16.36 78.6895 16.5734 78.8682 16.828 78.9654C17.5507 79.2391 17.9063 79.7118 17.8191 80.4943C17.7916 80.7364 17.8972 80.9422 18.1885 80.9784C18.7254 79.6914 20.5148 79.4291 21.2857 80.9716C21.5381 80.9512 21.6482 80.7748 21.6252 80.569C21.5289 79.7208 21.9304 79.2187 22.7058 78.9247C22.9352 78.8365 23.1211 78.6443 23.0477 78.3412C22.2057 78.1942 21.5105 78.3457 21.0242 79.0785C20.9209 79.2323 20.758 79.3477 20.5584 79.5422L20.5607 79.5377ZM42.4337 78.3141C42.4957 78.4973 42.5003 78.6284 42.5668 78.685C42.7435 78.8343 42.9339 78.9745 43.1427 79.074C43.6543 79.316 43.9433 79.6756 43.8929 80.2591C43.8814 80.3835 43.8837 80.5124 43.9112 80.6346C43.9525 80.8132 44.0328 80.9738 44.3012 80.958C44.5765 80.2908 45.0836 79.9176 45.8384 79.9176C46.5977 79.9176 47.0589 80.3586 47.3617 80.9942C47.6324 80.906 47.7357 80.7409 47.7127 80.5283C47.6278 79.7321 47.9743 79.2233 48.7291 78.9586C48.8277 78.9247 48.9287 78.8546 48.9906 78.7709C49.0755 78.6533 49.1237 78.5108 49.2063 78.3412C48.339 78.2168 47.6393 78.296 47.1529 79.0197C47.0382 79.1916 46.8639 79.3228 46.662 79.5263C46.6 79.3612 46.5266 79.2662 46.5427 79.1916C46.5794 79.0175 46.6689 78.8569 46.7216 78.685C46.9189 78.0607 46.7354 77.6876 46.1297 77.4659C45.7191 77.3144 45.3887 77.4727 45.0744 77.7192C44.7715 77.9567 44.7394 78.2485 44.8679 78.5832C44.9459 78.7845 45.0331 78.9835 45.0767 79.1916C45.095 79.273 45.0056 79.3771 44.9367 79.5354C44.6545 79.2233 44.4343 78.9858 44.2232 78.7415C44.0122 78.4973 43.7506 78.3389 43.4294 78.3163C43.1243 78.296 42.8169 78.3118 42.4292 78.3118L42.4337 78.3141ZM2.86548 60.6297C3.4528 60.8084 5.01286 60.9124 5.37076 60.8265C5.14822 59.5034 4.87062 58.1916 4.72379 56.864C4.57467 55.5318 4.55861 54.1861 4.4829 52.8472L4.36131 52.8336C4.2833 53.0078 4.18006 53.1751 4.13188 53.3583C4.01488 53.8061 3.87723 54.2585 3.83134 54.7154C3.7281 55.7467 3.68222 56.7826 3.59733 57.8162C3.51704 58.7796 3.41838 59.7431 2.86548 60.6297ZM62.7123 60.7021C62.1984 59.8472 62.047 59.0239 61.985 58.1803C61.9116 57.1987 61.8864 56.2149 61.7716 55.2378C61.6914 54.5502 61.5055 53.874 61.3495 53.1955C61.3174 53.0598 61.2073 52.9399 61.1339 52.8132C60.9824 54.1838 60.9572 55.525 60.8104 56.8504C60.6613 58.1893 60.3905 59.517 60.1634 60.9102C60.9779 60.8423 61.7969 60.7767 62.7123 60.7021ZM36.3403 19.7696C36.6776 19.7855 36.8519 19.6995 36.8405 19.5027C36.8244 19.2087 36.5651 19.2653 36.3839 19.2427C34.1608 18.9599 31.9331 18.9848 29.7032 19.1658C29.4141 19.1884 29.125 19.2268 28.8428 19.2879C28.7602 19.306 28.6341 19.4349 28.6455 19.4869C28.6685 19.5864 28.7602 19.7244 28.8497 19.747C29.0011 19.7877 29.1709 19.7561 29.3338 19.747C30.0748 19.695 30.8159 19.6204 31.5592 19.5932C33.156 19.5367 34.7504 19.5774 36.3403 19.7719V19.7696ZM45.8521 18.978C44.6431 19.064 43.4294 19.1454 42.2181 19.2449C42.0139 19.2607 41.6606 19.1793 41.7065 19.548C41.7501 19.885 42.0713 19.7787 42.2846 19.7561C43.8401 19.5774 45.4025 19.5367 46.9648 19.5932C47.7448 19.6226 48.5226 19.704 49.3003 19.7628C49.6995 19.7945 49.867 19.7357 49.8716 19.5254C49.8808 19.1793 49.5802 19.2585 49.3921 19.2427C48.2174 19.1454 47.0405 19.064 45.8521 18.978ZM23.339 19.7425C23.5409 19.7764 23.768 19.79 23.7887 19.5141C23.8093 19.2449 23.573 19.2811 23.4033 19.2494C23.3688 19.2427 23.3298 19.2426 23.2954 19.2381C20.9026 18.9577 18.512 18.9599 16.1214 19.2449C15.9172 19.2698 15.5616 19.1838 15.6236 19.5593C15.6786 19.8895 15.9975 19.7787 16.2132 19.7538C17.6976 19.5842 19.1842 19.5389 20.6754 19.5887C21.5633 19.6181 22.4512 19.6905 23.339 19.7425ZM20.8154 81.2045C20.7466 81.0326 20.7167 80.8879 20.6387 80.7748C20.2487 80.1935 19.1888 80.2026 18.8011 80.7861C18.6107 81.0688 18.6428 81.4103 18.8814 81.6772C19.2852 82.1273 20.1386 82.1522 20.5447 81.7044C20.6686 81.5664 20.7282 81.3719 20.8177 81.2068L20.8154 81.2045ZM46.9097 81.1955C46.818 81.001 46.7744 80.8404 46.678 80.7183C46.2651 80.1981 45.2969 80.2229 44.9046 80.7522C44.6889 81.0439 44.7142 81.4058 44.9734 81.684C45.3703 82.1115 46.1917 82.1454 46.5977 81.7247C46.7377 81.58 46.8088 81.3696 46.9097 81.1932V81.1955ZM32.7866 83.3441C33.3533 83.3373 33.8144 82.9709 33.8236 82.5186C33.8327 82.0708 33.3716 81.6772 32.8141 81.6569C32.2337 81.6343 31.7404 82.0142 31.729 82.4914C31.7175 82.9709 32.1901 83.3532 32.7843 83.3464L32.7866 83.3441ZM35.5832 15.6103C35.3584 15.3186 35.0257 15.3141 34.7206 15.2869C33.3601 15.167 31.9997 15.1467 30.6392 15.2779C30.4603 15.296 30.2767 15.3254 30.1069 15.3842C30.0106 15.4181 29.9418 15.5199 29.8592 15.5922C31.7886 15.5018 33.679 15.5176 35.5809 15.6103H35.5832ZM22.6278 15.6669C22.3479 15.3073 22.0336 15.3254 21.7698 15.3005C20.3588 15.1625 18.9433 15.149 17.5301 15.2847C17.3695 15.3005 17.202 15.3276 17.0529 15.3864C16.9588 15.4226 16.8923 15.5289 16.812 15.6013C18.7391 15.4973 20.6273 15.5244 22.6255 15.6669H22.6278ZM48.596 15.6624L48.6235 15.4973C48.4446 15.443 48.2679 15.3616 48.0844 15.3389C46.5473 15.1422 45.0078 15.149 43.4684 15.3027C43.3445 15.3163 43.2138 15.3435 43.1014 15.3977C43.0188 15.4384 42.9637 15.5334 42.8123 15.6918C44.8151 15.504 46.7056 15.5153 48.5937 15.6646L48.596 15.6624ZM17.8949 74.2973C17.7916 75.2947 17.9063 77.5202 18.0669 77.7939C18.4271 77.4229 18.4386 77.4229 18.4317 77.0724C18.4156 76.2876 18.3789 75.5028 18.3629 74.7157C18.3583 74.4171 18.2092 74.304 17.8926 74.2995L17.8949 74.2973ZM47.621 74.3538C47.2286 74.3334 47.1392 74.4872 47.1323 74.7428C47.1139 75.4756 47.0933 76.2084 47.0566 76.9412C47.0405 77.2895 47.1575 77.5519 47.5361 77.8074C47.5659 76.6133 47.5934 75.496 47.621 74.3515V74.3538ZM18.8699 74.6682V76.9955C19.136 76.896 19.3264 76.8236 19.5352 76.7444C19.5352 76.2649 19.5375 75.8216 19.5352 75.3784C19.5306 74.7948 19.5306 74.7948 18.8699 74.6682ZM45.9714 65.4246C46.3706 65.2459 46.7652 65.1803 46.8157 64.8343C46.8868 64.3525 46.834 63.8549 46.834 63.2601C46.5381 63.4546 46.3224 63.5767 46.132 63.7328C46.0471 63.8029 45.9829 63.9409 45.9783 64.0494C45.9599 64.4746 45.9714 64.8998 45.9714 65.4268V65.4246ZM14.6256 36.8003C15.0019 36.599 15.2978 36.3321 15.5823 35.9409L14.5293 34.715C14.3503 35.3053 14.3916 36.1376 14.6256 36.8003ZM46.6987 77.0045V74.6885C46.1435 74.7541 46.0609 74.7926 46.0517 75.1002C46.0334 75.6475 46.0471 76.1971 46.0471 76.7648L46.701 77.0045H46.6987ZM19.8908 64.0313C19.8908 64.5787 19.8794 64.988 19.8977 65.3974C19.9023 65.506 19.9665 65.6553 20.0514 65.7095C20.2418 65.8317 20.4621 65.9063 20.7534 66.0375C20.7534 65.5218 20.7626 65.0943 20.7466 64.6691C20.7443 64.5787 20.6777 64.4565 20.602 64.4068C20.4116 64.2824 20.2005 64.1897 19.8885 64.0268L19.8908 64.0313ZM19.3884 65.2843C19.4044 65.2549 19.4366 65.2255 19.4366 65.1961C19.4435 64.875 19.4503 64.5538 19.448 64.2349C19.4457 63.6808 19.2553 63.4727 18.6451 63.3325C18.6451 63.7057 18.6382 64.0766 18.6451 64.4475C18.6588 65.022 18.7437 65.1124 19.3861 65.2843H19.3884ZM44.9574 75.1884V76.9887L45.586 76.7557V75.0029C45.3405 75.0753 45.1432 75.1318 44.9574 75.1884ZM50.3144 51.999L50.1996 51.9538C49.8899 52.2275 49.5779 52.5011 49.2315 52.8065C49.5825 53.1932 49.8509 53.5709 50.2937 53.9554C50.3304 53.2113 50.3442 52.6052 50.3167 51.999H50.3144ZM45.5355 64.1105C45.2602 64.2439 45.0767 64.3141 44.9161 64.4181C44.8381 64.4679 44.7532 64.5809 44.7509 64.6669C44.7417 65.1034 44.7578 65.5399 44.7647 65.99C45.4231 65.8226 45.5195 65.7638 45.5309 65.4562C45.547 65.0491 45.5355 64.6397 45.5355 64.1128V64.1105ZM44.4618 75.4123C44.0626 75.3376 43.9663 75.4982 43.9732 75.7832C43.9915 76.369 43.9938 76.957 44.0145 77.5428C44.0168 77.6333 44.0741 77.7192 44.1177 77.8436C44.3655 77.6288 44.5307 77.432 44.5192 77.1357C44.4985 76.568 44.4802 76.0026 44.4595 75.4123H44.4618ZM21.4256 77.8097C21.5059 77.0294 21.5174 76.3034 21.4899 75.5819C21.4807 75.3399 21.2696 75.3557 21.0265 75.3851C21.0081 75.9166 21.0035 76.4301 20.9691 76.9412C20.9439 77.2963 21.0861 77.5496 21.4256 77.812V77.8097ZM19.9895 74.9984V76.7784C20.2005 76.8507 20.3795 76.9141 20.6089 76.9932V75.1974C20.4323 75.1409 20.251 75.0821 19.9895 74.9984ZM18.0967 64.4927C18.0967 63.9273 18.1243 63.4162 18.0853 62.9095C18.0623 62.6133 17.8283 62.4368 17.475 62.3351C17.5025 62.9186 17.5186 63.4523 17.553 63.9838C17.5714 64.2824 17.8054 64.3729 18.0945 64.4927H18.0967ZM33.7295 66.7092H33.0091V68.0436H33.7295V66.7092ZM31.7611 66.6866C31.7611 67.0326 31.7565 67.3154 31.7634 67.5981C31.768 67.736 31.7955 67.874 31.8161 68.0436H32.4746V66.6866H31.7611ZM34.4591 76.7309C34.0713 76.7535 34.0599 76.7535 34.0438 77.0158C34.0163 77.4433 34.0117 77.873 33.9865 78.3005C33.9658 78.6352 34.131 78.8478 34.4591 79.0853V76.7309ZM31.4468 76.7761C31.2013 76.6834 30.9994 76.6517 30.9948 76.9141C30.9833 77.6333 31.0086 78.3525 31.02 79.0717L31.16 79.1124C31.2701 78.9292 31.4651 78.7483 31.4743 78.5583C31.5018 77.9612 31.4628 77.3596 31.4491 76.7738L31.4468 76.7761ZM31.9285 78.2847C32.2084 78.201 32.5296 78.2394 32.564 77.9205C32.6076 77.5383 32.564 77.1493 32.5572 76.7128L31.9285 76.7444V78.2847ZM21.3086 64.7868C21.288 64.8297 21.249 64.8772 21.2467 64.9247C21.2329 65.2459 21.2146 65.567 21.2192 65.8882C21.2238 66.2998 21.2444 66.3111 21.7813 66.3677C21.7973 66.0126 21.8225 65.6598 21.8225 65.307C21.8225 64.9044 21.8157 64.9044 21.3086 64.7868ZM33.0389 76.7444C33.0114 76.8553 32.9908 76.905 32.9885 76.957C32.9816 77.1696 32.977 77.3845 32.977 77.5994C32.977 77.9597 33.1911 78.1768 33.6194 78.2507V76.7467H33.0389V76.7444ZM47.9215 62.4187C47.6462 62.5635 47.3961 62.6879 47.3755 62.9502C47.3388 63.4569 47.364 63.9658 47.364 64.5267C47.6668 64.4271 47.9008 64.3344 47.9123 64.0653C47.9353 63.5383 47.9192 63.0068 47.9192 62.4187H47.9215ZM43.6933 66.4152C44.0489 66.422 44.2416 66.3338 44.237 66.0013C44.2301 65.6145 44.237 65.2278 44.237 64.8207C43.9365 64.8433 43.6956 64.8614 43.6818 65.1373C43.6611 65.558 43.6887 65.9787 43.6956 66.4152H43.6933ZM34.2893 68.0301C34.7504 68.0301 34.7711 68.0301 34.7871 67.7473C34.8078 67.3968 34.7917 67.0439 34.7917 66.6391C34.6013 66.6481 34.4522 66.6572 34.2893 66.6662V68.0301ZM30.692 66.6346C30.692 67.0462 30.6782 67.3809 30.6966 67.7134C30.7126 68.064 30.731 68.0662 31.199 67.9893V66.664C31.0246 66.6527 30.8893 66.6459 30.692 66.6346Z" fill="#243278"></path>
    <path d="M191 55.9276C190.929 56.4545 190.876 56.986 190.78 57.5085C190.465 59.2342 190.133 60.9576 189.809 62.6833C189.635 63.6061 189.064 64.1421 188.174 64.4429C186.909 64.8681 185.611 65.1101 184.294 65.2843C181.419 65.662 178.529 65.7321 175.638 65.5896C171.536 65.386 167.555 64.6329 163.837 62.8258C159.163 60.555 155.651 57.167 153.63 52.3767C152.687 50.1398 152.205 47.799 152.005 45.388C151.741 42.1967 152.09 39.0846 153.189 36.0742C155.426 29.9427 159.769 25.8807 165.945 23.6891C168.459 22.7957 171.082 22.4045 173.743 22.2461C175.927 22.1172 178.109 22.1421 180.286 22.2891C182.771 22.4587 185.239 22.7799 187.683 23.282C188.447 23.4381 189.224 23.5353 189.995 23.662C190.137 23.6846 190.284 23.7049 190.42 23.7502C190.771 23.8678 190.897 24.0171 190.885 24.3812C190.874 24.7928 190.805 25.1999 190.787 25.6116C190.704 27.3644 190.626 29.1195 190.553 30.8723C190.516 31.7318 190.5 32.5912 190.454 33.4507C190.438 33.7334 190.381 34.0206 190.3 34.292C190.234 34.5114 190.055 34.6403 189.805 34.6403C189.548 34.6403 189.387 34.4978 189.339 34.2671C189.284 34.007 189.259 33.7379 189.243 33.471C189.119 31.3789 188.334 29.5764 186.804 28.1085C185.969 27.3101 184.952 26.7854 183.888 26.3534C182.16 25.6523 180.355 25.261 178.503 25.0529C176.982 24.881 175.457 24.8471 173.929 24.9421C171.446 25.0959 169.067 25.6229 166.929 26.9324C164.268 28.5608 162.462 30.8836 161.32 33.7356C160.599 35.5337 160.216 37.4087 160.024 39.3221C159.817 41.3599 159.792 43.4022 160.014 45.44C160.905 53.5641 166.117 59.3224 172.559 61.557C174.378 62.188 176.255 62.4843 178.182 62.439C179.91 62.3983 181.637 62.3531 183.33 61.9528C186.847 61.1227 188.942 58.8972 189.828 55.4956C189.86 55.3734 189.89 55.2513 189.924 55.1314C190.002 54.8646 190.103 54.6158 190.433 54.5705C190.743 54.5276 190.867 54.756 191.007 54.9595V55.9276H191Z" fill="#243278"></path>
    <path d="M107.376 39.0281C107.376 36.0698 107.392 33.1114 107.367 30.1554C107.358 28.9567 107.259 27.758 107.193 26.5593C107.181 26.3647 107.128 26.1702 107.082 25.9803C106.89 25.1389 106.374 24.5509 105.541 24.3224C104.882 24.1415 104.189 24.0714 103.508 23.9786C103.132 23.9266 102.744 23.9515 102.368 23.8995C102.008 23.852 101.852 23.6824 101.877 23.4358C101.904 23.1554 102.111 23.0423 102.361 23.0084C102.613 22.9744 102.868 22.9405 103.12 22.9473C104.956 22.988 106.793 23.0446 108.629 23.083C109.374 23.0988 110.12 23.0966 110.866 23.0785C112.501 23.0423 114.137 22.9857 115.775 22.9496C116.083 22.9428 116.392 22.9812 116.697 23.0242C116.931 23.0581 117.106 23.1916 117.106 23.4517C117.106 23.7095 116.948 23.8475 116.704 23.8814C116.436 23.9198 116.163 23.9289 115.892 23.9628C115.316 24.0329 114.734 24.0782 114.169 24.198C113.417 24.3563 112.901 24.829 112.694 25.5596C112.554 26.0549 112.437 26.5751 112.421 27.0862C112.355 29.253 112.309 31.4219 112.295 33.5909C112.277 37.1034 112.311 40.6181 112.281 44.1305C112.263 46.0643 112.203 48.0026 112.072 49.9318C111.942 51.8836 111.552 53.7993 110.921 55.663C109.519 59.8042 106.644 62.5793 102.662 64.3163C100.812 65.1237 98.8531 65.5082 96.8388 65.6055C94.1224 65.7344 91.4176 65.6552 88.77 64.9586C85.2806 64.0404 82.438 62.2151 80.4719 59.1686C79.5152 57.6849 78.9164 56.0565 78.492 54.3602C77.9528 52.2071 77.7487 50.0132 77.7395 47.8058C77.7142 42.2849 77.7303 36.7641 77.712 31.2433C77.7074 29.8998 77.6592 28.5563 77.6018 27.2129C77.5835 26.7696 77.4986 26.324 77.3976 25.8898C77.2233 25.1344 76.7369 24.6029 76.0005 24.3609C75.4544 24.1822 74.874 24.0849 74.3027 24.0013C73.9104 23.9425 73.5044 23.9764 73.1052 23.9583C72.9056 23.9492 72.706 23.9334 72.511 23.895C72.1921 23.8316 72.0498 23.6846 72.059 23.4517C72.0705 23.1622 72.2747 23.0491 72.5247 23.0151C72.8115 22.9767 73.1029 22.9428 73.3919 22.9473C75.4476 22.9857 77.5009 23.074 79.5565 23.074C82.1191 23.074 84.6841 23.0061 87.2467 22.9654C87.6642 22.9586 88.0841 22.9405 88.5016 22.9473C88.754 22.9518 89.0109 22.9835 89.2587 23.031C89.495 23.0762 89.651 23.2164 89.6373 23.4788C89.6258 23.7095 89.4904 23.8452 89.2702 23.8814C89.0385 23.9198 88.8022 23.9334 88.5682 23.9605C88.029 24.0239 87.483 24.0646 86.9484 24.1618C86.0789 24.3202 85.5146 24.8517 85.3012 25.6908C85.1681 26.2087 85.0695 26.747 85.0534 27.2785C84.9915 29.2484 84.9433 31.2206 84.9364 33.1929C84.9204 37.7276 84.9295 42.2623 84.9318 46.7993C84.9318 49.0429 85.0443 51.2775 85.4756 53.4872C85.8633 55.4798 86.508 57.3751 87.8386 58.9696C89.5914 61.0685 91.8259 62.3192 94.5905 62.6223C96.3295 62.8145 98.0455 62.7399 99.7226 62.2423C103.21 61.2064 105.513 58.9967 106.527 55.5205C106.881 54.3105 107.11 53.0733 107.181 51.8226C107.289 49.873 107.358 47.9211 107.388 45.967C107.422 43.6555 107.394 41.3418 107.394 39.0303H107.383L107.376 39.0281Z" fill="#243278"></path>
    <path d="M133.326 23.0807C136.655 23.0807 139.981 23.0898 143.31 23.0739C144.2 23.0694 145.09 23.0174 145.978 22.9405C146.332 22.9111 146.678 22.7663 147.018 22.651C147.256 22.5696 147.49 22.4045 147.729 22.6103C147.951 22.8003 147.912 23.0671 147.864 23.3137C147.775 23.7705 147.632 24.2206 147.577 24.6797C147.479 25.4781 147.424 26.2833 147.362 27.0862C147.288 28.0497 147.231 29.0155 147.16 29.9812C147.151 30.1237 147.121 30.2662 147.075 30.4019C146.999 30.6258 146.846 30.7615 146.589 30.7547C146.357 30.7479 146.208 30.6235 146.155 30.4155C146.098 30.1915 146.068 29.9608 146.045 29.7302C146.004 29.3389 145.994 28.9453 145.944 28.5541C145.834 27.7037 145.345 27.1134 144.595 26.7153C143.842 26.315 143.033 26.1408 142.186 26.1205C140.876 26.0888 139.568 26.0617 138.258 26.0345C136.767 26.0029 135.276 25.9712 133.787 25.9418C132.911 25.9237 132.83 26.0006 132.828 26.8872C132.823 28.2125 132.828 29.5402 132.828 30.8655C132.828 33.9302 132.828 36.9948 132.828 40.0594C132.828 40.22 132.823 40.3828 132.83 40.5434C132.849 41.0003 132.917 41.0772 133.374 41.0794C134.101 41.084 134.828 41.0794 135.556 41.0704C137.848 41.0455 140.137 41.0184 142.429 40.9912C142.647 40.989 142.865 40.9799 143.083 40.9663C144.065 40.9075 144.944 40.6384 145.531 39.7835C145.581 39.7111 145.641 39.6206 145.719 39.5935C145.88 39.5324 146.086 39.4352 146.21 39.4894C146.329 39.5437 146.439 39.7744 146.43 39.9214C146.405 40.367 146.332 40.8103 146.261 41.2536C145.93 43.2936 145.838 45.3518 145.765 47.41C145.758 47.6248 145.742 47.8397 145.708 48.0523C145.669 48.292 145.508 48.4323 145.26 48.4481C144.992 48.4639 144.868 48.2943 144.813 48.0659C144.778 47.9279 144.769 47.7831 144.746 47.6429C144.678 47.22 144.627 46.7925 144.533 46.3741C144.276 45.2342 143.521 44.5218 142.425 44.1848C141.876 44.0174 141.287 43.9224 140.713 43.9088C138.332 43.8478 135.95 43.8274 133.567 43.7935C133.457 43.7935 133.349 43.7935 133.239 43.798C132.972 43.807 132.844 43.9541 132.833 44.2074C132.826 44.3499 132.826 44.4946 132.826 44.6371C132.835 48.3282 132.814 52.0216 132.865 55.7127C132.89 57.4655 133.046 59.2184 133.158 60.9689C133.179 61.2878 133.266 61.6045 133.34 61.9166C133.592 62.966 134.276 63.5518 135.358 63.6604C136.281 63.7531 137.205 63.8074 138.128 63.882C138.343 63.9001 138.57 63.9046 138.765 63.9838C138.887 64.0335 139.029 64.2054 139.034 64.3276C139.038 64.4542 138.917 64.66 138.802 64.7007C138.536 64.7957 138.24 64.8568 137.958 64.8568C136.648 64.8613 135.338 64.8749 134.03 64.8229C130.756 64.694 127.485 64.7121 124.213 64.8387C123.449 64.8681 122.685 64.8636 121.921 64.8591C121.708 64.8591 121.488 64.8138 121.281 64.7595C121.066 64.703 120.919 64.5289 120.974 64.3185C121.013 64.1738 121.162 64.0132 121.304 63.9521C121.478 63.8775 121.694 63.9001 121.891 63.8775C122.504 63.8096 123.119 63.7531 123.729 63.6671C124.275 63.5925 124.695 63.2872 124.883 62.7873C125.101 62.2038 125.296 61.5977 125.388 60.9848C125.519 60.1185 125.597 59.2387 125.613 58.3634C125.672 55.4074 125.72 52.4513 125.727 49.493C125.741 43.0584 125.737 36.6261 125.714 30.1915C125.709 28.9566 125.647 27.7195 125.521 26.4914C125.379 25.114 124.782 24.5237 123.412 24.1618C122.701 23.9741 121.976 23.9696 121.249 23.9492C120.96 23.9402 120.669 23.9062 120.386 23.852C120.201 23.8158 120.024 23.6823 120.074 23.4788C120.111 23.3272 120.24 23.1192 120.368 23.0852C120.714 22.9925 121.082 22.9405 121.439 22.945C123.293 22.9608 125.149 22.9948 127.003 23.0287C128.058 23.0491 129.111 23.0943 130.164 23.1079C131.22 23.1214 132.273 23.1101 133.328 23.1101V23.0739L133.326 23.0807Z" fill="#243278"></path>
    <path d="M46.6045 14.6333C46.9349 14.6627 47.2652 14.6898 47.5933 14.7192C47.2629 14.6898 46.9326 14.6627 46.6045 14.6333Z" fill="#243278"></path>
    <path d="M43.9868 70.2036C43.996 69.1926 44.5076 68.591 45.4115 68.3513C46.1755 68.1477 46.8408 68.4169 47.2675 69.1225C47.552 69.5907 47.7218 70.0973 47.708 70.6537C47.6874 71.4204 47.2125 71.9994 46.3957 72.2459C45.6065 72.4834 44.9458 72.264 44.4938 71.59C44.1749 71.1173 43.9937 70.5971 43.9891 70.2059L43.9868 70.2036ZM46.9418 70.9364C46.8546 70.2262 46.6458 69.5862 46.1526 69.0682C45.93 68.8353 45.6616 68.6996 45.3198 68.8081C44.955 68.9235 44.7875 69.2017 44.7829 69.5409C44.7714 70.3416 45.0284 71.0653 45.6272 71.6217C46.0677 72.0311 46.6619 71.8773 46.8569 71.339C46.9051 71.2055 46.9165 71.0608 46.9418 70.9364Z" fill="#243278"></path>
    <path d="M53.3748 61.3421C53.3977 60.1457 54.4714 59.3789 55.7287 59.7702C56.1852 59.9127 56.6028 60.1253 56.94 60.4691C57.5067 61.0481 57.5686 61.8216 57.119 62.5996C56.7289 63.2736 56.1095 63.5428 55.318 63.3754C54.7743 63.26 54.2833 63.0407 53.8795 62.6539C53.5377 62.326 53.3565 61.9279 53.3748 61.3421ZM55.8434 62.6132C56.4858 62.62 56.7542 62.473 56.8872 62.1337C57.0364 61.7537 56.862 61.462 56.5959 61.2245C56.0682 60.7518 55.4373 60.4917 54.7215 60.46C54.3476 60.4442 54.0447 60.5777 53.8933 60.9463C53.7465 61.3014 53.9002 61.5819 54.1457 61.8171C54.6596 62.3124 55.2996 62.5431 55.8457 62.6132H55.8434Z" fill="#243278"></path>
    <path d="M9.26399 64.0901L8.85791 63.4207C9.95913 62.767 11.0512 62.1179 12.1639 61.4575C12.4048 61.8239 12.6525 62.1722 12.8705 62.5386C13.1641 63.0339 13.1458 63.3438 12.8453 63.6695C12.4759 64.0675 11.9918 64.1784 11.5238 63.9725C11.4595 63.9454 11.3976 63.9137 11.2852 63.8617C10.9319 64.4317 10.5832 64.9903 10.2023 65.601C10.0234 65.325 9.86507 65.0808 9.70447 64.8297L10.6107 63.4388L10.5281 63.346C10.122 63.5835 9.71595 63.8233 9.26399 64.0879V64.0901ZM12.2533 62.3599C11.8519 62.5364 11.4595 62.7263 11.1338 63.0339C11.4871 63.4365 11.7761 63.4727 12.1662 63.1832C12.4919 62.9435 12.5126 62.7851 12.2533 62.3577V62.3599Z" fill="#243278"></path>
    <path d="M56.6465 57.3005C57.3141 57.1082 57.9358 56.9273 58.6287 56.726C58.5782 57.0426 58.5346 57.3163 58.4887 57.6149L56.8346 58.0717L56.8415 58.178C57.3095 58.2708 57.7798 58.3635 58.3098 58.4675L58.1515 59.2252C56.8782 58.9832 55.6531 58.7525 54.3706 58.5082C54.4486 58.0423 54.5083 57.5719 54.6092 57.1082C54.6918 56.7328 54.9143 56.4455 55.3388 56.4184C55.7884 56.3913 56.2129 56.4727 56.479 56.8911C56.5432 56.9929 56.5753 57.1173 56.6465 57.2982V57.3005ZM56.1693 58.0649C56.2404 57.4972 56.0752 57.2846 55.5728 57.2258C55.1392 57.1761 54.9877 57.3073 54.935 57.8161C55.3319 57.8953 55.7334 57.9767 56.1716 58.0649H56.1693Z" fill="#243278"></path>
    <path d="M49.8922 68.2901C50.5116 68.6474 51.0737 68.9709 51.6978 69.3305C51.4133 69.5137 51.1655 69.672 50.9154 69.8326C50.4199 69.5295 49.945 69.2377 49.4701 68.9482L49.3806 69.0184C49.6376 69.4277 49.8945 69.8394 50.1675 70.2736C49.9427 70.4161 49.7339 70.5495 49.5045 70.6943C48.8208 69.6177 48.1486 68.5615 47.4512 67.4646C47.8228 67.2203 48.1853 66.9602 48.5707 66.7318C49.0181 66.4671 49.3737 66.4852 49.6788 66.7499C50.0757 67.0914 50.2157 67.5663 50.0413 68.0051C50.0092 68.0843 49.961 68.1589 49.8922 68.2878V68.2901ZM49.0181 68.4733C49.4953 68.1295 49.5343 67.8649 49.2085 67.4419C48.9562 67.114 48.7382 67.1004 48.3459 67.408C48.5685 67.7608 48.7933 68.1137 49.0204 68.4733H49.0181Z" fill="#243278"></path>
    <path d="M26.3858 71.651C26.3078 72.377 26.2321 73.1008 26.1518 73.8517H25.686C25.8214 72.5874 25.9522 71.366 26.0829 70.147C26.6817 70.0995 26.6771 70.1018 26.9364 70.5744C27.2392 71.124 27.5512 71.6714 27.8655 72.2164C27.9344 72.3363 28.0261 72.4449 28.1913 72.6711C28.2808 71.8274 28.3565 71.106 28.4345 70.3686H28.9048C28.7626 71.6329 28.6226 72.8678 28.4781 74.1389C28.2923 74.1276 28.1202 74.1163 27.9481 74.1072C27.4663 73.2659 26.996 72.4449 26.5257 71.6239L26.3858 71.6533V71.651Z" fill="#243278"></path>
    <path d="M37.031 70.2691C37.5495 71.5221 38.0519 72.7412 38.5887 74.0394C38.263 74.071 37.9899 74.0982 37.6894 74.1276C37.5517 73.7883 37.4279 73.4785 37.2833 73.1234C36.9851 73.137 36.6845 73.1483 36.3519 73.1641C36.2624 73.535 36.1798 73.8765 36.0926 74.2452L35.6613 74.2882C35.6521 74.2067 35.6338 74.1547 35.6453 74.1095C35.9183 72.9447 36.2073 71.7822 36.462 70.6129C36.5331 70.2917 36.7327 70.2849 37.0287 70.2668L37.031 70.2691ZM37.1296 72.5806C36.992 72.2526 36.8773 71.9722 36.7327 71.6261C36.4804 72.1757 36.462 72.2843 36.5331 72.6733C36.618 72.6733 36.7075 72.6824 36.7947 72.671C36.8818 72.6597 36.9644 72.6258 37.1296 72.5806Z" fill="#243278"></path>
    <path d="M16.6743 71.0472C16.8808 70.7441 17.0276 70.5293 17.2272 70.2352C17.2593 70.4976 17.2593 70.6559 17.3029 70.8029C17.4016 71.1264 17.7824 71.3118 18.0853 71.201C18.3927 71.0902 18.5051 70.726 18.3147 70.3958C18.2 70.1945 18.0485 70.0136 17.9247 69.8146C17.5553 69.2288 17.6149 68.6611 18.083 68.2065C18.4959 67.8062 19.1108 67.7994 19.6774 68.1884C19.8243 68.2902 19.9734 68.3897 20.1386 68.5028C19.9137 68.781 19.7738 68.9574 19.5971 69.1768C19.5375 68.9574 19.5168 68.8013 19.4526 68.6634C19.3287 68.3897 19.0236 68.2653 18.7804 68.3671C18.5166 68.4779 18.4271 68.7357 18.5831 69.0411C18.6978 69.2627 18.8607 69.4595 18.9961 69.6698C19.3815 70.2692 19.354 70.7916 18.9135 71.2892C18.528 71.7212 17.9315 71.8117 17.3236 71.4995C17.1056 71.3865 16.9152 71.2191 16.6743 71.0517V71.0472Z" fill="#243278"></path>
    <path d="M23.2015 73.3768L22.7174 73.2954C22.5843 71.9881 22.4536 70.6989 22.3159 69.317C22.6417 69.3803 22.9147 69.4346 23.2038 69.4912L23.4309 71.9157L23.564 71.9361C23.9471 71.2349 24.3302 70.5338 24.7248 69.8123C24.8877 69.853 25.0391 69.8915 25.2204 69.9367C24.5459 71.0857 23.8875 72.2097 23.2061 73.3745L23.2015 73.3768Z" fill="#243278"></path>
    <path d="M17.4544 67.0598C17.6035 67.1615 17.7205 67.243 17.8834 67.3515C16.8097 68.1793 15.7613 68.9867 14.6945 69.81C14.5683 69.7263 14.4375 69.6404 14.2815 69.5363C14.6577 68.2743 15.0294 67.0258 15.4194 65.7118C15.6901 65.8837 15.9219 66.033 16.1765 66.1935C15.931 66.9919 15.6924 67.7722 15.4217 68.6588C15.8714 68.4213 16.149 68.125 16.461 67.8808C16.7868 67.6252 17.1011 67.3538 17.4544 67.0598Z" fill="#243278"></path>
    <path d="M10.7299 56.2917L10.9111 57.1625L8.71788 58.3228L8.73394 58.4426C9.53692 58.5173 10.3376 58.5897 11.1819 58.6665L11.2966 59.1664C9.9407 59.0035 8.63529 58.8475 7.27482 58.6846L7.17847 58.2006C8.36457 57.5628 9.51856 56.9431 10.7276 56.2917H10.7299Z" fill="#243278"></path>
    <path d="M40.9929 69.7535C41.6032 69.6246 42.1676 69.507 42.7801 69.3781C42.826 69.5273 42.8696 69.6676 42.9201 69.8372C42.5782 69.9141 42.2846 69.9797 41.9313 70.0566C41.9955 70.4026 42.0551 70.7238 42.124 71.0902C42.4658 71.0201 42.7572 70.959 43.0829 70.8911L43.2068 71.3751C42.8719 71.4453 42.5759 71.5086 42.2364 71.581C42.3626 72.169 42.4819 72.7231 42.6126 73.3247C42.335 73.3813 42.0781 73.431 41.8005 73.4876C41.5275 72.2278 41.2659 71.0133 40.9929 69.7535Z" fill="#243278"></path>
    <path d="M51.5602 64.1738L51.957 64.5561C51.7483 64.7506 51.5716 64.9157 51.3514 65.1238C52.0695 65.9628 52.8747 66.7002 53.6754 67.4872C53.4712 67.6908 53.2762 67.883 53.0652 68.0934C52.2805 67.2859 51.5189 66.5057 50.709 65.6733L50.179 66.2863L49.8074 65.938L49.9404 65.999C50.4658 65.4087 50.9889 64.8184 51.5624 64.1738H51.5602Z" fill="#243278"></path>
    <path d="M13.7813 64.6442L13.1641 64.0901C13.2857 63.977 13.4073 63.864 13.5404 63.7418C14.1484 64.3638 14.7013 64.927 15.2771 65.515L14.9261 65.8859C14.7357 65.6846 14.5659 65.5082 14.3457 65.2775C13.545 66.0488 12.7604 66.8064 11.9505 67.5867C11.7693 67.3922 11.588 67.2 11.3655 66.9648C11.7578 66.6051 12.1662 66.2388 12.5631 65.8588C12.9531 65.4856 13.327 65.0966 13.779 64.6442H13.7813Z" fill="#243278"></path>
    <path d="M33.2179 71.0019C32.9059 71.0222 32.6925 71.0336 32.4355 71.0494L32.4126 70.5541H34.872L34.8995 71.0268H34.0897V74.2904H33.2179V70.9996V71.0019Z" fill="#243278"></path>
    <path d="M11.4802 59.7408L11.7808 60.5098C10.5901 60.9599 9.41085 61.4055 8.18115 61.8714L7.86914 61.1137C9.0736 60.6568 10.2528 60.2068 11.4779 59.7408H11.4802Z" fill="#243278"></path>
    <path d="M52.0099 63.5948C52.1728 63.3686 52.3196 63.1696 52.4939 62.9276C53.5286 63.6672 54.5564 64.4045 55.6187 65.1644C55.4558 65.3884 55.2998 65.5987 55.1323 65.8294C54.0884 65.083 53.0698 64.3525 52.0076 63.5948H52.0099Z" fill="#243278"></path>
    <path d="M30.2354 70.493C30.5704 70.5089 30.8204 70.5224 31.1187 70.536C31.0728 71.7913 31.0269 73.0329 30.9787 74.2972H30.1414C30.1735 73.6594 30.2148 73.0443 30.2285 72.4268C30.2446 71.8026 30.2308 71.1761 30.2308 70.493H30.2354Z" fill="#243278"></path>
    <path d="M37.928 43.8614C37.9005 43.7958 37.7077 43.7755 37.5907 43.78C37.4531 43.7845 37.3177 43.8365 37.0745 43.8931C37.2351 43.6714 37.343 43.5357 37.4347 43.3887C37.5678 43.1761 37.7009 42.9612 37.811 42.7373C37.8867 42.5835 37.8936 42.3913 37.7146 42.3189C37.6068 42.2759 37.4347 42.3167 37.32 42.3755C37.1273 42.475 36.9575 42.6197 36.7786 42.7464C36.8153 42.4705 36.9254 42.2669 37.008 42.052C37.1089 41.7852 37.2007 41.5115 37.2604 41.2333C37.281 41.1338 37.2168 40.937 37.1502 40.9167C37.0401 40.8827 36.8635 40.9167 36.7717 40.9913C36.5813 41.1474 36.4276 41.3464 36.1683 41.6246C36.2303 41.3328 36.2693 41.1677 36.2991 41.0003C36.3519 40.7018 36.4253 40.401 36.4322 40.1002C36.4367 39.9713 36.3312 39.779 36.2211 39.7202C36.0398 39.623 35.932 39.8039 35.8517 39.9464C35.7232 40.1726 35.6039 40.4032 35.4479 40.6927C35.4479 40.211 35.464 39.8197 35.4411 39.433C35.4296 39.2158 35.4732 38.906 35.152 38.8789C34.8675 38.854 34.8491 39.1389 34.7872 39.338C34.6817 39.6885 34.5853 40.0414 34.4867 40.3942C34.3788 40.1658 34.3513 39.9532 34.3192 39.7428C34.2549 39.3357 34.2022 38.9264 34.1081 38.5283C34.0829 38.4152 33.9429 38.2659 33.8351 38.2478C33.6401 38.2162 33.5598 38.3903 33.5414 38.56C33.5185 38.7726 33.5185 38.9897 33.4979 39.2023C33.4841 39.3538 33.4543 39.5008 33.4313 39.6501C33.2983 39.4669 33.2501 39.2837 33.1973 39.1005C33.1101 38.8087 33.0367 38.5102 32.9197 38.2297C32.8738 38.1212 32.727 37.99 32.6192 37.981C32.4127 37.9674 32.376 38.1596 32.3714 38.327C32.3691 38.4695 32.3852 38.6142 32.392 38.7567C32.4035 38.9987 32.415 39.243 32.4265 39.485C32.3989 39.4918 32.3714 39.4963 32.3462 39.5031C32.2705 39.3267 32.197 39.1503 32.119 38.9761C32.0043 38.7137 31.8919 38.4491 31.7726 38.189C31.6992 38.0307 31.573 37.8882 31.3964 37.9832C31.3023 38.033 31.2472 38.2094 31.2335 38.336C31.2174 38.474 31.261 38.6188 31.2862 38.759C31.3321 39.0191 31.3803 39.2814 31.4285 39.5415C31.1509 39.2407 30.965 38.8992 30.7517 38.5735C30.6324 38.3926 30.5452 38.0759 30.2447 38.1913C29.8982 38.327 30.107 38.6255 30.1552 38.8472C30.2263 39.1593 30.3433 39.4601 30.4397 39.7654C30.286 39.7157 30.2171 39.6343 30.1506 39.5528C29.9349 39.2882 29.7239 39.0191 29.5013 38.759C29.3912 38.6301 29.226 38.5215 29.0815 38.664C29.0058 38.7386 28.9851 38.9286 29.0219 39.0417C29.1044 39.295 29.2352 39.5347 29.3499 39.7768C29.4486 39.9826 29.5518 40.1861 29.6528 40.3919C29.4876 40.3625 29.4096 40.2902 29.3316 40.2178C29.0219 39.9419 28.719 39.6546 28.3955 39.3968C28.3175 39.3335 28.0996 39.3086 28.0629 39.3538C27.9895 39.4443 27.9413 39.623 27.9849 39.7225C28.0812 39.9509 28.2349 40.1567 28.3726 40.3671C28.5125 40.5797 28.664 40.7877 28.8085 40.9958L28.7144 41.0727C28.5401 40.9506 28.3795 40.8013 28.1913 40.7154C27.8426 40.557 27.6178 40.0572 27.1108 40.315C26.9961 40.8081 27.4572 40.9732 27.6797 41.2695C27.8036 41.4323 27.9642 41.568 28.1088 41.715C27.9229 41.7286 27.7967 41.6698 27.6706 41.6133C27.3907 41.4866 27.1154 41.3441 26.824 41.2446C26.7322 41.2129 26.5533 41.2672 26.5028 41.3396C26.4546 41.4097 26.4845 41.5884 26.5487 41.663C26.6863 41.8259 26.863 41.9593 27.0305 42.0973C27.2415 42.2692 27.4572 42.4343 27.6706 42.6016C27.6499 42.6333 27.6293 42.6627 27.6086 42.6944C27.3195 42.5971 27.0351 42.484 26.7414 42.4071C26.5303 42.3528 26.255 42.1561 26.1059 42.441C25.9361 42.7645 26.2849 42.8595 26.4776 42.9906C26.785 43.201 27.1131 43.3819 27.432 43.5742C27.315 43.6375 27.2278 43.6375 27.1452 43.6194C26.9502 43.581 26.7575 43.5221 26.5602 43.4927C26.3376 43.4588 26.0348 43.3209 25.9293 43.6036C25.8054 43.9338 26.1633 43.9948 26.3697 44.1057C26.6083 44.2323 26.8676 44.3251 27.1154 44.4336C27.2691 44.5015 27.4228 44.5761 27.5765 44.6462C27.2599 44.6937 26.9731 44.6485 26.6863 44.6462C26.45 44.6462 26.1541 44.5083 26.005 44.8136C25.9155 44.9945 26.0738 45.1461 26.5464 45.2976C27.0603 45.465 27.5834 45.6029 28.1042 45.7522C28.1042 45.7726 28.1042 45.7929 28.1065 45.8133C27.8587 45.8449 27.6109 45.8766 27.3631 45.9083C27.1475 45.9354 26.9226 45.9377 26.7185 46.001C26.606 46.0349 26.5235 46.1706 26.4294 46.2611C26.5235 46.3561 26.6015 46.5076 26.7139 46.537C27.0098 46.6162 27.3195 46.641 27.6247 46.6863C27.7715 46.7089 27.9183 46.7338 28.0629 46.7564C27.8243 46.9328 27.5765 46.9939 27.3563 47.1047C27.2484 47.159 27.1108 47.3128 27.1222 47.4055C27.1337 47.5005 27.3012 47.6317 27.4159 47.6498C27.7004 47.6905 27.9917 47.6837 28.2808 47.6814C28.4827 47.6814 28.6823 47.6588 28.8842 47.6453C28.6869 47.8737 28.4667 47.9958 28.2762 48.1564C28.1959 48.222 28.1271 48.3848 28.1546 48.4685C28.1845 48.5545 28.3405 48.6608 28.4368 48.6562C28.742 48.6404 29.0471 48.5816 29.3499 48.5273C29.5518 48.4911 29.7514 48.4301 29.951 48.3803C29.8753 48.5997 29.7331 48.7128 29.639 48.8553C29.5587 48.9774 29.4646 49.1606 29.5013 49.2759C29.5679 49.4772 29.7904 49.4705 29.9694 49.4094C30.208 49.328 30.442 49.2239 30.6737 49.1267C30.7999 49.0747 30.9215 49.0113 31.1279 48.9163C31.0752 49.0769 31.0545 49.1583 31.0224 49.233C30.9536 49.3958 30.8297 49.57 31.0018 49.726C31.1945 49.8979 31.3803 49.7577 31.5455 49.6536C31.729 49.5383 31.9057 49.4116 32.0686 49.2692C32.8073 48.6268 33.2157 47.8036 33.4038 46.8627C33.4336 46.7157 33.4749 46.5732 33.53 46.3448C33.7158 46.5528 33.8374 46.6818 33.9498 46.8175C34.5004 47.4847 35.0464 48.1564 35.5948 48.8259C35.6865 48.9367 35.7714 49.0611 35.8838 49.1448C35.9595 49.2013 36.0926 49.2398 36.1752 49.2126C36.6845 49.0475 36.7878 48.6743 36.4367 48.2898C35.815 47.6113 35.1887 46.9373 34.5647 46.2611C34.4477 46.1344 34.3421 45.9987 34.1678 45.7929C34.5876 45.7635 34.9088 45.7499 35.23 45.7183C36.1683 45.6278 36.9828 45.2682 37.632 44.5829C37.7307 44.4789 37.8431 44.3726 37.8982 44.2459C37.9486 44.1283 37.9785 43.9654 37.9326 43.8569L37.928 43.8614ZM32.6352 46.0349C32.5664 45.9942 32.4907 45.9558 32.415 45.9173C32.4907 45.9558 32.5664 45.9919 32.6352 46.0349ZM32.7844 46.1412C32.7844 46.1412 32.7706 46.1299 32.7637 46.1254C32.7706 46.1299 32.7775 46.1367 32.7844 46.1412ZM33.3923 44.8611C33.4749 44.8068 33.5483 44.7435 33.608 44.6711C33.5483 44.7435 33.4749 44.8068 33.3923 44.8611ZM36.1523 48.378C36.3358 48.5771 36.3702 48.7399 36.0307 48.8982C35.1887 47.9619 34.4087 46.9735 33.6194 45.9942C33.6493 45.9603 33.6814 45.9241 33.7112 45.8902C33.8053 45.9422 33.9223 45.9738 33.9911 46.0485C34.7161 46.822 35.4296 47.6045 36.15 48.3803L36.1523 48.378ZM33.647 44.6191C33.663 44.5965 33.6814 44.5761 33.6952 44.5512C33.6814 44.5761 33.663 44.5965 33.647 44.6191ZM33.6975 44.549C33.7365 44.4834 33.764 44.411 33.7869 44.3341C33.764 44.411 33.7342 44.4834 33.6975 44.549ZM34.645 45.4876C34.8583 45.3926 35.0763 45.3044 35.2873 45.2026C35.4502 45.1234 35.6384 45.0601 35.7255 44.7932C35.4043 44.9357 35.152 45.0488 34.7895 45.2116C34.996 44.7231 35.4502 44.558 35.5695 44.1215C35.2277 44.4178 34.9272 44.6801 34.6243 44.9425C34.6977 44.6937 34.8262 44.4879 34.9455 44.2776C35.152 43.9134 35.1566 43.8772 35.1107 43.5674C34.9134 43.9247 34.7184 44.273 34.5257 44.6213C34.4913 44.6078 34.4545 44.5919 34.4201 44.5784C34.5119 44.1079 34.7757 43.6624 34.6702 43.1535C34.5394 43.5493 34.411 43.9451 34.2802 44.3409C34.1471 43.875 34.4064 43.4091 34.1678 42.8889C34.0508 43.5561 33.9475 44.1419 33.8443 44.7299C33.8397 44.5241 33.8351 44.3205 33.8282 44.1147C33.8351 43.4905 33.7663 43.149 33.5323 42.8029C33.5621 43.0472 33.5919 43.2191 33.6034 43.391C33.6126 43.5516 33.6034 43.7144 33.6034 43.8772H33.5369L33.1927 42.8617C33.1537 42.873 33.1147 42.8843 33.0757 42.8957C33.179 43.3344 33.2845 43.7709 33.3877 44.2097C33.0734 43.8071 33.0092 43.296 32.6146 42.9454C32.7614 43.3367 32.906 43.728 33.0528 44.1192C33.023 44.1328 32.9931 44.1486 32.961 44.1622C32.7224 43.78 32.4838 43.4 32.2452 43.0178C32.2062 43.0381 32.1695 43.0608 32.1305 43.0811C32.3576 43.5063 32.5825 43.9293 32.8096 44.3545C32.3691 44.0582 32.1626 43.5719 31.6831 43.3276L32.6719 44.6847C32.3943 44.5512 32.197 44.3477 31.9906 44.1554C31.7956 43.9745 31.6418 43.7347 31.3184 43.7031C31.6487 44.0423 31.9791 44.3793 32.3117 44.7186C31.8093 44.6213 31.5478 44.169 31.1188 43.9926C31.0935 44.0265 31.0683 44.0604 31.0431 44.0944C31.3849 44.3771 31.7267 44.6621 32.0686 44.9448C32.0456 44.9719 32.0227 44.999 32.002 45.0284C31.6166 44.8113 31.2289 44.5942 30.8435 44.3771C30.8205 44.411 30.7999 44.4449 30.7769 44.4789C31.1348 44.7118 31.4904 44.9425 31.8483 45.1755C31.8323 45.2071 31.8162 45.2365 31.7978 45.2682C31.4331 45.1121 31.066 44.9561 30.7012 44.8C30.6806 44.8453 30.6599 44.8882 30.6393 44.9335C31.0568 45.1325 31.4721 45.3338 31.8896 45.5328C31.8781 45.5622 31.8667 45.5894 31.8552 45.6188C31.4514 45.5102 31.0499 45.3994 30.6462 45.2908C30.637 45.3315 30.6255 45.3722 30.6163 45.4129C31.0912 45.6233 31.596 45.7341 32.1099 45.8133C32.2085 45.8472 32.3049 45.8834 32.4035 45.9173C32.2039 45.9218 32.0043 45.9286 31.8047 45.9286C31.5868 45.9286 31.3688 45.9128 31.1509 45.9173C30.9765 45.9173 30.793 45.7929 30.6232 45.9987C31.1073 46.0621 31.5914 46.1254 32.0754 46.1887C32.0754 46.2091 32.0754 46.2272 32.0754 46.2475C31.6579 46.3086 31.2381 46.3719 30.8205 46.433C30.8274 46.4827 30.8366 46.5325 30.8435 46.58C31.3367 46.5234 31.83 46.4669 32.3255 46.4126C32.1397 46.5709 31.9424 46.6569 31.7428 46.7315C31.5615 46.7994 31.3757 46.8582 31.1922 46.9215C31.2082 46.9622 31.222 47.0007 31.2381 47.0414C31.6579 46.9147 32.0777 46.7881 32.4953 46.6637C32.5091 46.6863 32.5228 46.7112 32.5366 46.7338C32.2406 46.9532 31.9447 47.1726 31.6487 47.3942C31.6717 47.4236 31.6969 47.453 31.7198 47.4824C32.064 47.2653 32.4058 47.0482 32.7499 46.831C32.7683 46.8423 32.7889 46.8537 32.8073 46.865C32.649 47.1318 32.4907 47.3987 32.3324 47.6633C32.3622 47.6814 32.392 47.6995 32.4219 47.7176C32.5503 47.5525 32.6742 47.3829 32.8119 47.2268C32.8876 47.1409 32.9908 47.0798 33.0803 47.0097C32.8394 48.0388 32.3301 48.8801 31.4009 49.423C31.3642 49.4026 31.3275 49.38 31.2908 49.3596C31.4996 48.957 31.7107 48.5545 31.9699 48.0569C31.2151 48.3939 30.6943 48.9638 29.8386 49.1629C30.2057 48.5839 30.7677 48.3057 31.1279 47.686C30.2217 47.9144 29.4876 48.3645 28.6548 48.3826C28.6387 48.3419 28.6227 48.3034 28.6066 48.2627C29.187 47.9302 29.7675 47.6 30.3479 47.2675C29.4073 47.254 28.5286 47.5276 27.4939 47.401C28.3175 47.0074 29.1389 46.9351 29.8592 46.5687C28.9278 46.3764 27.9619 46.6094 27.0397 46.2339C27.9321 46.1367 28.8223 46.0417 29.7147 45.9444L29.7262 45.8314L26.7162 45.1167C26.7231 45.0692 26.7299 45.0217 26.7391 44.9742C27.6981 44.9357 28.6456 45.1755 29.6161 45.1167C28.6295 44.6485 27.5375 44.4314 26.5969 43.8501C27.6247 43.9835 28.6112 44.3024 29.6528 44.4223C28.6227 43.875 27.5926 43.3276 26.5625 42.778C26.5808 42.7396 26.5969 42.7011 26.6152 42.6627C27.7233 42.9929 28.7695 43.495 29.8615 43.8976C28.976 43.1286 27.9344 42.5519 27.0924 41.7286C28.1707 42.0927 29.0769 42.7713 30.1116 43.2281C29.2696 42.4275 28.4276 41.6246 27.5857 40.8239C27.6155 40.79 27.6453 40.7561 27.6751 40.7221C28.6777 41.3441 29.5541 42.1357 30.5246 42.8233C30.4443 42.5428 30.2263 42.3483 30.0497 42.1289C29.8569 41.8892 29.6642 41.6517 29.4761 41.412C29.2972 41.1858 29.1182 40.9596 28.9484 40.7267C28.7695 40.4801 28.602 40.2268 28.3978 39.9283C28.6731 39.8966 28.7764 40.0572 28.8888 40.1726C29.4463 40.738 29.9946 41.3125 30.5475 41.8824C30.653 41.991 30.7723 42.086 30.9559 42.1312C30.403 41.1383 29.8501 40.1454 29.2949 39.1525C29.3316 39.1299 29.3683 39.105 29.4073 39.0824C30.2447 40.0278 30.8687 41.1315 31.6854 42.1086C31.4629 41.5726 31.222 41.0433 31.0224 40.5005C30.8274 39.9713 30.5521 39.4646 30.5291 38.8766C31.2036 39.7948 31.5891 40.8737 32.2337 41.8123C32.0387 40.7674 31.7038 39.7564 31.6166 38.6911C32.1626 39.7021 32.4517 40.8058 32.9312 41.8575C32.8325 40.781 32.7339 39.7066 32.6352 38.6301C32.6834 38.6233 32.7316 38.6142 32.7798 38.6074C32.9037 39.1389 33.0367 39.6705 33.1514 40.2042C33.2638 40.7267 33.3556 41.2536 33.4749 41.8824C33.702 41.4934 33.5988 41.1587 33.6378 40.8488C33.6791 40.5299 33.702 40.2065 33.725 39.8853C33.7479 39.5596 33.7066 39.2249 33.8489 38.9083C34.1242 39.9283 34.1104 40.9732 34.2527 42.0136C34.6358 41.1994 34.7505 40.3128 35.0832 39.4873C35.2323 40.444 34.957 41.3713 34.8698 42.389C35.1382 42.181 35.1887 41.9186 35.2988 41.7015C35.4204 41.4617 35.5305 41.2152 35.6475 40.9709C35.7622 40.7357 35.8792 40.5028 36.0651 40.2947C36.0651 41.1632 35.7049 41.9457 35.4686 42.8504C35.8632 42.6378 35.9963 42.3167 36.2073 42.0747C36.4276 41.8213 36.6386 41.559 36.8933 41.326C36.8084 42.1877 36.2257 42.8346 35.8792 43.6669C36.5377 43.4566 36.9048 42.9567 37.4737 42.6333C37.4324 43.0924 37.1434 43.3344 36.9116 43.6036C36.6822 43.8727 36.4344 44.1305 36.1293 44.4675C36.7006 44.5037 37.0608 44.1464 37.5104 44.1509C37.1938 44.947 36.01 45.4966 34.6427 45.4966L34.645 45.4876Z" fill="#243278"></path>
    <path d="M47.5131 54.8805C47.4443 54.8013 47.2998 54.7448 47.1919 54.7515C47.0107 54.7651 46.8317 54.833 46.5633 54.9031C46.7033 54.7244 46.7859 54.6317 46.8547 54.5299C47.0153 54.2924 47.2011 54.064 47.3135 53.8061C47.3732 53.6682 47.364 53.4262 47.2768 53.3176C47.1369 53.1412 46.9465 53.2905 46.7996 53.3923C46.6276 53.5144 46.4601 53.6433 46.2926 53.77C46.327 53.5189 46.4325 53.3176 46.5151 53.1095C46.6253 52.8268 46.7377 52.5419 46.8042 52.2456C46.8294 52.1347 46.7606 51.9335 46.6711 51.886C46.5886 51.8407 46.3958 51.9086 46.2995 51.9855C46.1182 52.128 45.9691 52.3112 45.8085 52.4785C45.7856 52.2388 45.8383 52.0488 45.8682 51.8588C45.9095 51.5942 45.9462 51.3296 45.9668 51.0627C45.9783 50.8976 45.9508 50.7008 45.7466 50.6963C45.6342 50.6963 45.4873 50.8071 45.4139 50.9089C45.274 51.0989 45.1776 51.3183 45.0629 51.5241C44.9849 51.1419 44.9941 50.8026 44.9803 50.4656C44.9711 50.2259 45.0377 49.8911 44.6958 49.8572C44.3907 49.8278 44.3838 50.1557 44.3173 50.3661C44.2118 50.6963 44.1269 51.0333 44.0351 51.3658C44.003 51.3612 43.9686 51.3567 43.9364 51.3522C43.9204 51.2007 43.9066 51.0491 43.886 50.8998C43.8286 50.4927 43.7736 50.0834 43.7047 49.6785C43.6841 49.5587 43.6428 49.4297 43.5763 49.3302C43.4593 49.1538 43.2229 49.1764 43.1449 49.3709C43.0991 49.484 43.0899 49.6152 43.0784 49.7396C43.0417 50.0766 43.0119 50.4136 42.9798 50.7506C42.8329 50.4362 42.7595 50.1241 42.6723 49.8142C42.615 49.6084 42.5622 49.3935 42.4636 49.2058C42.4062 49.0995 42.264 48.9729 42.1561 48.9706C41.952 48.9661 41.9221 49.1538 41.9198 49.3257C41.9198 49.4501 41.9198 49.5767 41.929 49.7011C41.9451 49.9861 41.9634 50.2711 41.9818 50.5561C41.8671 50.4339 41.8097 50.305 41.7524 50.1761C41.6032 49.8301 41.4702 49.4772 41.2935 49.1448C41.243 49.0498 41.071 49.0158 40.9563 48.9525C40.8943 49.0679 40.8048 49.1787 40.775 49.3031C40.7521 49.4003 40.8003 49.5134 40.8163 49.6197C40.8576 49.8889 40.8989 50.1557 40.9379 50.4249C40.7406 50.2892 40.6397 50.1263 40.5387 49.9612C40.4057 49.7464 40.2932 49.5179 40.1326 49.3257C40.0592 49.2375 39.894 49.2217 39.7702 49.1719C39.722 49.2963 39.6256 49.4252 39.6371 49.5428C39.6577 49.7532 39.7426 49.9567 39.8023 50.1648C39.8505 50.3344 39.8986 50.5018 39.9445 50.6714C39.6279 50.4407 39.426 50.1693 39.2012 49.916C39.0567 49.7509 38.9075 49.4637 38.6391 49.6423C38.3822 49.812 38.5703 50.0675 38.6598 50.2711C38.8181 50.6262 38.9947 50.97 39.1645 51.3205C38.9328 51.2414 38.7836 51.0989 38.6276 50.9632C38.3959 50.7619 38.1711 50.5493 37.9233 50.3729C37.843 50.3163 37.6251 50.305 37.5884 50.3548C37.5218 50.4475 37.4897 50.6239 37.5356 50.7257C37.6365 50.9519 37.7903 51.1577 37.9302 51.368C38.0816 51.5942 38.2445 51.8136 38.4005 52.0352C38.3707 52.0578 38.3409 52.0805 38.311 52.1031C38.1069 51.9583 37.905 51.8091 37.6962 51.6711C37.4691 51.5218 37.2465 51.3658 37.001 51.2482C36.9139 51.2074 36.728 51.2391 36.6684 51.3047C36.6133 51.368 36.6225 51.549 36.6753 51.6326C36.79 51.8136 36.946 51.9674 37.0928 52.1257C37.2809 52.3247 37.4759 52.517 37.6687 52.7115C37.5035 52.7386 37.4094 52.6911 37.3131 52.6459C37.001 52.5034 36.6913 52.3451 36.3701 52.2275C36.2807 52.1958 36.0971 52.2456 36.0467 52.3179C35.9985 52.3903 36.0283 52.5645 36.0902 52.6459C36.1958 52.7884 36.3449 52.8992 36.4848 53.0123C36.7556 53.2294 37.0355 53.4398 37.3108 53.6546C37.063 53.6524 36.8611 53.58 36.6569 53.5144C36.4321 53.442 36.2095 53.3493 35.9778 53.3199C35.8654 53.304 35.7048 53.3832 35.6268 53.4692C35.5901 53.5099 35.6658 53.7089 35.7438 53.7767C35.9044 53.9192 36.0994 54.0233 36.283 54.1386C36.5422 54.2992 36.8083 54.453 37.0699 54.6091C36.8565 54.6385 36.6799 54.5977 36.5055 54.5616C36.2921 54.5163 36.0788 54.4688 35.8654 54.4349C35.6979 54.4078 35.5236 54.4032 35.4593 54.6045C35.3951 54.8036 35.5419 54.9031 35.6933 54.9755C36.0535 55.1451 36.4206 55.3034 36.7808 55.4708C36.8817 55.5183 36.9758 55.5816 37.0722 55.6359C36.8863 55.6856 36.7234 55.6721 36.5628 55.6608C36.3633 55.6449 36.1637 55.6268 35.9641 55.6178C35.7782 55.611 35.5695 55.6087 35.5305 55.8372C35.4915 56.0633 35.6933 56.138 35.8631 56.199C36.1361 56.2986 36.4114 56.389 36.689 56.4704C36.9942 56.5609 37.3039 56.6378 37.6136 56.7215C37.6136 56.7509 37.6136 56.7803 37.6136 56.8097C37.4025 56.8368 37.1915 56.8617 36.9804 56.8889C36.7464 56.9183 36.5055 56.9251 36.2807 56.9861C36.1614 57.0178 36.0008 57.1263 35.9755 57.2259C35.9296 57.4136 36.1017 57.5063 36.2715 57.5402C36.5376 57.5923 36.8083 57.6284 37.0768 57.6669C37.2603 57.694 37.4461 57.7189 37.6297 57.7438C37.3911 57.9179 37.1456 57.9813 36.9207 58.0876C36.8083 58.1418 36.673 58.2662 36.6569 58.3771C36.6271 58.5761 36.8152 58.6462 36.9827 58.6575C37.2718 58.6779 37.5608 58.6801 37.8499 58.6756C38.0357 58.6734 38.2216 58.6462 38.4051 58.6326C38.2353 58.8566 38.0289 58.9674 37.8591 59.1167C37.7673 59.1981 37.6687 59.3745 37.7008 59.4604C37.7375 59.5577 37.9141 59.6368 38.0403 59.6549C38.1963 59.6753 38.3661 59.6368 38.5244 59.6029C38.8823 59.5238 39.2379 59.4288 39.5935 59.3428C39.449 59.5826 39.254 59.7454 39.098 59.9354C39.0314 60.0168 38.9924 60.1842 39.036 60.2656C39.0796 60.3515 39.2517 60.4398 39.3434 60.4194C39.605 60.3651 39.8573 60.2566 40.112 60.1661C40.2841 60.105 40.4263 59.949 40.6741 59.958C40.6213 60.0869 40.5915 60.1683 40.5548 60.2475C40.4768 60.4149 40.385 60.6184 40.58 60.7247C40.6878 60.7835 40.8966 60.7338 41.0274 60.6682C41.2339 60.5641 41.4266 60.4194 41.6032 60.2679C42.2984 59.6685 42.7067 58.9018 42.904 58.0197C42.9499 57.8184 42.9912 57.6194 43.0555 57.3231C43.2459 57.5357 43.3675 57.6624 43.4799 57.7981C44.0076 58.4381 44.5306 59.0805 45.056 59.7205C45.1707 59.8585 45.2786 60.0078 45.4116 60.1254C45.4805 60.1864 45.6158 60.2294 45.7007 60.2068C46.1894 60.0779 46.3201 59.6572 45.9898 59.2953C45.3566 58.6032 44.7165 57.9179 44.0833 57.2259C43.98 57.1128 43.8952 56.9839 43.7483 56.7939C44.0076 56.7735 44.1796 56.7554 44.3563 56.7464C45.0537 56.7079 45.7259 56.5745 46.3385 56.2262C46.8019 55.9616 47.1988 55.6246 47.481 55.1722C47.5292 55.0931 47.5567 54.9347 47.5108 54.8827L47.5131 54.8805ZM45.9118 59.5848C45.6066 59.915 45.5814 59.9241 45.3543 59.6549C44.9138 59.1325 44.4848 58.6055 44.0535 58.0763C43.7506 57.7031 43.4547 57.3276 43.2069 56.8753C43.278 56.8911 43.3721 56.8866 43.4134 56.9296C44.2508 57.8139 45.0813 58.7028 45.9095 59.5871L45.9118 59.5848ZM44.2324 56.4637C44.5375 56.233 44.9757 56.2126 45.3084 55.7851C44.9597 55.9322 44.7234 56.0294 44.4871 56.1289C44.4641 56.0995 44.4389 56.0679 44.4159 56.0385C44.6224 55.7105 45.0285 55.5024 45.1248 54.9958C44.7784 55.2401 44.6844 55.6404 44.2232 55.7784C44.3678 55.4979 44.4595 55.326 44.549 55.1519C44.6438 54.9649 44.6782 54.7666 44.6522 54.557C44.471 54.8918 44.3058 55.1948 44.1406 55.4979C44.1062 55.4821 44.0695 55.4685 44.0351 55.4527C44.1337 55.032 44.2324 54.6113 44.331 54.1906C44.292 54.1816 44.2553 54.1703 44.2163 54.1612C44.0787 54.5887 43.941 55.0139 43.8011 55.4414C43.7323 54.9528 43.8607 54.4824 43.7139 53.8944C43.6428 54.4078 43.5877 54.799 43.5327 55.1903C43.2619 54.7742 43.4432 54.2788 43.1105 53.8966C43.1495 54.3535 43.1908 54.8104 43.2298 55.265C42.9729 54.8036 43.0119 54.2449 42.6173 53.8401C42.7389 54.349 42.8605 54.8601 42.9798 55.369C42.6586 54.9121 42.6287 54.3354 42.1676 53.8175C42.2433 54.306 42.5003 54.6226 42.4429 55.0162L41.851 54.0934C41.8166 54.1115 41.7822 54.1296 41.7501 54.1454C41.9382 54.5073 42.1263 54.8669 42.3121 55.2288C42.28 55.2469 42.2456 55.265 42.2135 55.283C42.0804 55.1202 41.9497 54.9528 41.812 54.7923C41.6721 54.6317 41.5918 54.4032 41.3394 54.3603C41.4335 54.5638 41.5573 54.7357 41.6835 54.9076C41.8143 55.0863 41.9474 55.2627 42.0804 55.4414C42.0529 55.464 42.0254 55.4843 41.9978 55.5047C41.6675 55.1971 41.3348 54.8895 41.0044 54.5842C40.9769 54.6091 40.9517 54.6362 40.9241 54.6611C41.1811 54.9732 41.4381 55.2853 41.7547 55.6721C41.2476 55.4979 41.0297 55.0772 40.5617 55.0433C40.9654 55.3713 41.3692 55.6992 41.773 56.0272C41.2545 55.9299 40.8851 55.5409 40.4034 55.4007C40.385 55.4346 40.3667 55.4708 40.346 55.5047C40.775 55.758 41.204 56.0113 41.6331 56.2669C41.6216 56.294 41.6101 56.3189 41.5986 56.3461L40.2841 55.8213C40.5525 56.2307 41.0618 56.2239 41.4977 56.6016C40.993 56.4795 40.6053 56.3868 40.2198 56.294C40.6741 56.6785 41.2522 56.6763 41.8602 56.8753H40.2061C40.6718 57.1196 41.1811 57.1128 41.6812 57.2213C41.2339 57.2824 40.7865 57.3412 40.3368 57.4023L40.3506 57.5176C40.8484 57.6262 41.3394 57.3751 41.851 57.4792L40.7842 57.8931C40.798 57.9338 40.8117 57.9722 40.8255 58.0129C41.2453 57.884 41.6629 57.7551 42.0827 57.6239C42.0942 57.6465 42.1057 57.6692 42.1171 57.6895C41.7914 57.9179 41.4679 58.1441 41.0412 58.4449C41.6147 58.411 41.8602 58.0016 42.3397 57.8524C42.1699 58.1599 42.0414 58.3929 41.8923 58.6666C41.9933 58.6372 42.0414 58.6372 42.0575 58.6146C42.1676 58.4743 42.264 58.3205 42.3833 58.1871C42.4108 58.1554 42.5117 58.1871 42.5783 58.1916C42.3259 59.128 41.8097 59.8698 40.9012 60.4352C40.915 59.8992 41.3371 59.6029 41.4266 59.0872C40.7246 59.4265 40.19 59.958 39.4788 60.1254L39.4054 60.0326C39.8275 59.6187 40.2496 59.2049 40.6741 58.791C40.6488 58.7548 40.6259 58.7186 40.6007 58.6824C39.7908 58.8837 39.0383 59.3021 38.0931 59.3835C38.3707 59.0081 38.7332 58.9312 39.02 58.748C39.3159 58.558 39.6486 58.4246 39.9147 58.1803C38.9993 58.2052 38.1206 58.5082 37.1983 58.3431C37.9141 57.9903 38.7171 57.8772 39.4536 57.5402C38.5015 57.3525 37.5172 57.5719 36.5674 57.2236C37.4576 57.1218 38.3477 57.0178 39.2356 56.916C39.2356 56.8753 39.2356 56.8346 39.2356 56.7939C38.2376 56.5157 37.1892 56.4116 36.2187 56.0385L36.2371 55.9141L39.1805 56.1583C39.192 56.1199 39.2012 56.0837 39.2127 56.0452C38.1642 55.6585 37.0745 55.3713 36.0788 54.8624C36.0902 54.8262 36.1017 54.79 36.1132 54.7515C37.1203 54.9935 38.1275 55.2355 39.1347 55.4776C39.1484 55.4391 39.1622 55.4029 39.1783 55.3645C38.2055 54.8375 37.1823 54.3987 36.2807 53.7406C37.3085 54.0007 38.2652 54.4462 39.2402 54.8352C39.2585 54.8013 39.2769 54.7696 39.2953 54.7357C38.3845 54.0753 37.4737 53.4126 36.5628 52.7522C36.5858 52.716 36.611 52.6798 36.634 52.6414C37.6297 53.0417 38.5175 53.6546 39.4811 54.1364C39.1851 53.6207 38.6758 53.3086 38.2675 52.9037C37.8522 52.4921 37.4347 52.0827 37.0515 51.6349C38.1367 52.2297 39.0337 53.0666 40.0546 53.7587C39.348 52.7545 38.529 51.8317 37.9233 50.7596C38.8479 51.5128 39.6623 52.3654 40.4951 53.2181C40.4401 52.8268 40.1877 52.5351 40.0088 52.2094C39.8275 51.8792 39.6233 51.5603 39.4421 51.2278C39.2563 50.8863 39.0865 50.5357 38.9626 50.158C39.7633 50.9971 40.3506 51.99 41.1146 52.8698C40.7246 51.8452 40.3322 50.8207 39.9422 49.7939C39.9904 49.7735 40.0386 49.7509 40.0845 49.7305C40.7085 50.7393 41.1811 51.8339 41.8418 52.8494C41.7569 52.5057 41.6721 52.1619 41.5849 51.8181C41.4885 51.4359 41.383 51.0559 41.2958 50.6714C41.2132 50.3073 41.149 49.9386 41.1214 49.5587C41.7019 50.5515 41.9244 51.6869 42.459 52.7115C42.3764 51.7412 42.2938 50.7687 42.2089 49.7961C42.2502 49.7893 42.2915 49.7826 42.3328 49.778C42.7228 50.7461 42.7595 51.8023 43.1197 52.8065C43.1954 51.8113 43.2711 50.8162 43.3491 49.8188C43.7529 50.8252 43.5785 51.9063 43.8126 52.9444C44.198 52.128 44.315 51.2323 44.6637 50.4023C44.7486 51.368 44.5192 52.3112 44.4343 53.2611C44.471 53.2701 44.51 53.2814 44.5467 53.2905C44.8931 52.5713 45.2396 51.852 45.602 51.0989C45.7007 51.4517 45.6663 51.7141 45.4185 52.5011C45.2809 52.9399 45.1363 53.3764 44.9941 53.8129C45.0262 53.831 45.0583 53.8469 45.0904 53.865C45.524 53.3335 45.9554 52.8042 46.389 52.2727C46.4257 52.2953 46.4624 52.3157 46.4991 52.3383C46.3155 53.1299 45.8361 53.8039 45.4919 54.548C46.1091 54.41 46.4693 53.9034 46.9877 53.6275C46.974 53.9735 46.9786 53.978 46.444 54.5977C46.2008 54.8805 45.9416 55.1496 45.6892 55.4255C45.7076 55.4595 45.7236 55.4911 45.742 55.5251C46.171 55.3803 46.6 55.2356 47.0726 55.075C46.7813 55.8914 45.5791 56.4501 44.2347 56.4591L44.2324 56.4637Z" fill="#243278"></path>
    <path d="M28.4183 32.9101C28.2829 32.693 28.0696 32.7902 27.8769 32.84C27.7897 32.8626 27.6956 32.8626 27.5327 32.883C27.7209 32.6319 27.8746 32.4555 27.9962 32.2587C28.1086 32.0778 28.2118 31.8833 28.2692 31.682C28.299 31.5825 28.2531 31.4083 28.1774 31.3518C28.104 31.2975 27.925 31.3111 27.831 31.3631C27.6176 31.4807 27.4249 31.639 27.1175 31.8562C27.2024 31.6413 27.2391 31.5486 27.2781 31.4558C27.418 31.1075 27.574 30.7638 27.6956 30.4087C27.753 30.2458 27.792 30.04 27.5924 29.9247C27.3882 29.807 27.2551 29.9631 27.1267 30.092C26.9844 30.2368 26.8491 30.386 26.7091 30.5331C26.6862 30.3001 26.7366 30.1124 26.7665 29.9224C26.8101 29.6397 26.8605 29.357 26.8605 29.072C26.8605 28.9589 26.7527 28.7712 26.6655 28.7508C26.5669 28.7305 26.4017 28.839 26.3283 28.9363C26.1837 29.1285 26.0828 29.3547 25.9658 29.565C25.8855 29.1919 25.8901 28.8436 25.8855 28.4953C25.8786 28.0678 25.7868 27.871 25.5918 27.8914C25.2798 27.9253 25.2867 28.2103 25.2179 28.4184C25.1123 28.7463 25.0275 29.081 24.9334 29.4112C24.7889 28.9408 24.7407 28.4839 24.6719 28.0316C24.6397 27.8213 24.5847 27.6087 24.5021 27.4142C24.47 27.3373 24.3323 27.2558 24.2497 27.2649C24.1694 27.2717 24.0685 27.3757 24.0318 27.4617C23.9836 27.5725 23.9859 27.7059 23.9721 27.8303C23.94 28.1311 23.9102 28.4342 23.8804 28.735C23.7588 28.5608 23.7221 28.389 23.6716 28.2193C23.5752 27.8936 23.4903 27.5612 23.3619 27.2468C23.3183 27.1405 23.1669 27.0138 23.059 27.0093C22.848 26.998 22.825 27.1902 22.8204 27.3599C22.8204 27.4684 22.8204 27.5747 22.825 27.6833C22.8388 27.9683 22.8571 28.2533 22.8732 28.5382C22.6851 28.2894 22.5864 28.0226 22.474 27.7625C22.3822 27.5476 22.2928 27.3282 22.1643 27.136C22.1092 27.0545 21.9394 26.9822 21.8569 27.0071C21.772 27.0342 21.7009 27.1812 21.6756 27.2875C21.6527 27.3848 21.6917 27.5001 21.71 27.6041C21.7697 27.9524 21.8339 28.2985 21.8959 28.6445C21.6228 28.2985 21.4187 27.923 21.1824 27.5657C21.0654 27.3893 20.9828 27.0636 20.6707 27.2151C20.384 27.3531 20.5423 27.6222 20.5973 27.8371C20.673 28.1334 20.7625 28.4251 20.8474 28.7192C20.6226 28.5902 20.4941 28.4206 20.3587 28.2578C20.2211 28.0904 20.0949 27.9095 19.932 27.7715C19.8402 27.6946 19.6797 27.6946 19.5512 27.6584C19.5191 27.7851 19.4319 27.9298 19.4663 28.0384C19.5535 28.3098 19.6911 28.5654 19.8127 28.8255C19.8953 29.0041 19.9848 29.1828 20.072 29.3615C20.0398 29.3796 20.0077 29.3977 19.9756 29.418C19.7806 29.2326 19.5902 29.0449 19.3906 28.8662C19.2162 28.7101 19.0464 28.5405 18.8469 28.4206C18.7482 28.3618 18.5371 28.346 18.4729 28.4071C18.4018 28.4749 18.4064 28.6671 18.4454 28.7825C18.5027 28.9476 18.6174 29.0969 18.7207 29.2439C18.9294 29.5492 19.1451 29.8478 19.3585 30.1508C19.0877 30.0491 18.8721 29.893 18.6541 29.7437C18.4293 29.5922 18.2091 29.4271 17.9659 29.3117C17.8603 29.262 17.702 29.3163 17.569 29.323C17.5782 29.452 17.5414 29.6148 17.608 29.7053C17.7755 29.9382 17.9865 30.1395 18.1815 30.3499C18.31 30.4878 18.4408 30.6235 18.5693 30.7592C18.1953 30.6688 17.8787 30.5059 17.5529 30.3657C17.3648 30.2843 17.1354 30.1011 16.961 30.3363C16.7591 30.61 17.0459 30.7547 17.2111 30.8972C17.5346 31.1754 17.8764 31.431 18.2114 31.6956C18.0783 31.725 17.9796 31.6956 17.881 31.6639C17.5873 31.5689 17.296 31.4717 17.0023 31.3744C16.8211 31.3134 16.6283 31.2749 16.5297 31.4875C16.4288 31.7069 16.6192 31.8132 16.766 31.9104C16.9748 32.0529 17.1973 32.1773 17.413 32.3085C17.5759 32.408 17.741 32.5075 17.9039 32.607C17.7663 32.6659 17.663 32.6545 17.5598 32.6342C17.2914 32.5822 17.0275 32.5188 16.7591 32.4781C16.5939 32.4533 16.392 32.451 16.3714 32.6591C16.3622 32.7654 16.47 32.9214 16.5687 32.9915C16.7614 33.1227 16.984 33.2132 17.1973 33.3082C17.4818 33.4348 17.7709 33.5502 18.0576 33.6723C17.9383 33.7424 17.8512 33.7379 17.7617 33.7311C17.4176 33.7062 17.0734 33.6678 16.7293 33.6701C16.6306 33.6701 16.4746 33.7764 16.454 33.86C16.4333 33.9437 16.5228 34.102 16.61 34.1541C16.7935 34.2626 17.0046 34.3373 17.2111 34.4006C17.6424 34.5318 18.0783 34.6449 18.5119 34.7647C18.5027 34.7964 18.4935 34.8281 18.4867 34.8597C18.1448 34.8959 17.8007 34.9208 17.4611 34.9683C17.2363 34.9999 16.9128 34.9683 16.8807 35.2533C16.844 35.6038 17.195 35.5902 17.4313 35.631C17.8168 35.6965 18.2068 35.7305 18.5945 35.778C18.3926 35.9272 18.1746 35.9883 17.9636 36.0697C17.7846 36.1376 17.5323 36.167 17.5552 36.4271C17.5827 36.7234 17.858 36.6962 18.0622 36.7166C18.2779 36.7369 18.4958 36.7166 18.7138 36.7098C18.9065 36.7053 19.0969 36.694 19.2896 36.6849C19.1313 36.8953 18.9249 37.0038 18.7574 37.1531C18.6656 37.2345 18.5693 37.4132 18.6037 37.5014C18.6381 37.5964 18.8262 37.6891 18.9455 37.6846C19.2139 37.6778 19.4846 37.6213 19.7508 37.567C20.0031 37.515 20.2486 37.4381 20.4964 37.3725C20.3656 37.6326 20.166 37.7886 20.0031 37.9764C19.9366 38.0533 19.8976 38.2251 19.9389 38.3066C19.9848 38.3925 20.1523 38.4762 20.2486 38.4604C20.478 38.4242 20.7029 38.3428 20.9185 38.2545C21.1296 38.1686 21.3246 38.0533 21.6251 37.8995C21.5586 38.0646 21.538 38.1256 21.5104 38.1844C21.4737 38.2659 21.4072 38.345 21.4026 38.4287C21.398 38.544 21.4026 38.7046 21.4737 38.7634C21.5448 38.8222 21.7123 38.8064 21.8201 38.7702C21.9532 38.725 22.0748 38.6345 22.1941 38.5508C23.0636 37.9379 23.5683 37.0898 23.8046 36.0765C23.8528 35.8752 23.8964 35.6717 23.9584 35.4048C24.0983 35.536 24.1947 35.6106 24.2704 35.7011C24.5709 36.0607 24.8669 36.4248 25.1628 36.7867C25.4932 37.1915 25.819 37.5986 26.1562 37.999C26.4522 38.3495 26.5095 38.3495 26.8537 38.0646C26.9087 38.0193 26.9707 37.9786 27.0257 37.9334C27.1588 37.8226 27.1748 37.6891 27.0762 37.5534C26.9913 37.4381 26.8927 37.3318 26.7963 37.2255C26.1723 36.5492 25.5459 35.8752 24.9265 35.1967C24.8393 35.0995 24.7728 34.9841 24.6489 34.8054C24.9517 34.7896 25.1697 34.8032 25.3762 34.7647C25.874 34.6743 26.3787 34.5996 26.8582 34.4458C27.4203 34.2649 27.8723 33.8917 28.2394 33.4326C28.3564 33.2856 28.5514 33.1318 28.416 32.9146L28.4183 32.9101ZM23.1462 35.1311C23.1026 35.1085 23.0521 35.0882 22.9971 35.0678C23.0521 35.0882 23.1026 35.1085 23.1462 35.1311ZM24.7636 35.4161C25.3051 35.9883 25.8442 36.5673 26.3787 37.1463C26.5003 37.2775 26.6265 37.4109 26.7137 37.5647C26.7504 37.6303 26.7229 37.7864 26.6678 37.8316C26.6128 37.8768 26.4728 37.8633 26.3902 37.8271C26.3168 37.7954 26.2686 37.7004 26.2113 37.6303C25.5505 36.8274 24.8921 36.0245 24.2337 35.2193C24.1717 35.1424 24.1304 35.0497 24.0799 34.9638C24.1167 34.9321 24.1557 34.9004 24.1924 34.871C24.3828 35.052 24.5778 35.2261 24.759 35.4161H24.7636ZM25.2638 34.4707C25.3096 34.4051 25.3464 34.3508 25.3968 34.2785C25.2752 34.2513 25.1513 34.2242 25.0298 34.197C25.0389 34.1631 25.0688 34.1111 25.055 34.0975C24.7476 33.7967 24.9036 33.4801 25.0045 33.1544C25.0963 32.8558 25.1582 32.5482 25.2316 32.2429C25.1926 32.2316 25.1536 32.2226 25.1123 32.2113C24.9747 32.6365 24.8347 33.0639 24.6971 33.4891C24.6558 33.4823 24.6145 33.4755 24.5732 33.4688C24.6925 32.9983 24.6994 32.5302 24.5939 32.0665L24.4195 33.3195C24.1511 32.8197 24.3415 32.3221 24.0203 31.9421C24.057 32.399 24.096 32.8558 24.1327 33.3127C23.9079 32.8423 23.8987 32.3085 23.5247 31.8991L23.8001 33.0187C23.7725 33.0277 23.7427 33.0368 23.7152 33.0458C23.5385 32.6794 23.3619 32.3153 23.1852 31.9489C23.1485 31.9647 23.1118 31.9828 23.0751 31.9986C23.2357 32.4125 23.394 32.8287 23.5546 33.2426C23.527 33.2539 23.4995 33.2629 23.472 33.2743C23.2196 32.8739 22.9673 32.4713 22.7172 32.071L22.6071 32.1298C22.809 32.5098 23.0086 32.8898 23.2081 33.2675C22.7906 33.0571 22.6484 32.6003 22.2033 32.4374C22.4602 32.788 22.7195 33.1363 22.9787 33.4869C22.9489 33.5117 22.9191 33.5366 22.887 33.5615C22.7103 33.3896 22.5336 33.2222 22.3593 33.0481C22.1559 32.8475 21.9379 32.7036 21.7054 32.6161C22.1505 33.0684 22.5291 33.4575 22.9099 33.8442C22.8847 33.8713 22.8571 33.8985 22.8319 33.9256C22.4098 33.609 21.9853 33.2901 21.5632 32.9734C21.538 33.0006 21.5127 33.0277 21.4898 33.0549C21.7789 33.3263 22.0679 33.5999 22.3593 33.8713C22.1207 33.8465 21.9509 33.7492 21.7766 33.6565C21.6228 33.5751 21.4921 33.4303 21.3131 33.4145C21.2948 33.4507 21.2787 33.4846 21.2627 33.5208C21.6183 33.7492 21.9716 33.9754 22.3272 34.2038C22.3157 34.2287 22.3042 34.2536 22.2905 34.2785C21.9257 34.1428 21.5632 34.007 21.1984 33.8713C21.2879 34.0274 21.4072 34.102 21.5334 34.1654C21.6779 34.2377 21.8293 34.3011 21.9785 34.3712C22.0863 34.4232 22.1895 34.4775 22.2973 34.5318C22.0702 34.5634 21.8798 34.5114 21.6894 34.4639C21.5058 34.4187 21.3223 34.378 21.1388 34.335C21.1915 34.4571 21.265 34.5069 21.3452 34.5272C21.7674 34.6335 22.1918 34.7331 22.6139 34.8326C22.6484 34.8733 22.848 34.7828 22.7172 34.957C22.7332 34.9638 22.7516 34.9728 22.77 34.9796C22.7516 34.9728 22.7332 34.9638 22.7172 34.957C22.1803 34.9389 21.6458 34.9185 21.1089 34.9004L21.0952 35.0067C21.5563 35.0701 22.0197 35.1334 22.4809 35.199C22.4809 35.2193 22.4809 35.2397 22.4809 35.26C22.0909 35.3234 21.7009 35.3867 21.3108 35.4478C21.3177 35.4907 21.3246 35.5337 21.3315 35.5767C21.7995 35.5247 22.2675 35.4749 22.7355 35.4229C22.7447 35.4523 22.7516 35.4839 22.7608 35.5134C22.4006 35.6536 22.0404 35.7961 21.6802 35.9363C21.6894 35.968 21.6986 35.9996 21.7077 36.0335C22.0656 35.9431 22.4235 35.8503 22.7814 35.7599C22.7952 35.7915 22.809 35.8255 22.825 35.8571C22.5864 36.0335 22.3478 36.21 22.1092 36.3864C22.1322 36.4158 22.1551 36.4474 22.1758 36.4768C22.4992 36.2914 22.8204 36.1037 23.1439 35.9182C23.1623 35.9453 23.1829 35.9725 23.2013 35.9996C23.059 36.2145 22.9168 36.4316 22.7355 36.7075C23.0705 36.6555 23.1301 36.4316 23.2471 36.2688C23.3137 36.176 23.3756 36.072 23.4789 36.2371C23.2242 37.1734 22.6874 37.8972 21.8752 38.4174C21.8362 38.3948 21.7972 38.3722 21.7559 38.3518C21.9463 37.9831 22.1368 37.6145 22.3593 37.1825C21.9004 37.2277 21.6641 37.5512 21.343 37.7072C21.0241 37.861 20.7098 38.0239 20.3931 38.1844C20.3633 38.146 20.3335 38.1053 20.3037 38.0668C20.7212 37.6575 21.1388 37.2458 21.5563 36.8365C21.5311 36.7957 21.5058 36.755 21.4806 36.7143C20.6799 36.9428 19.9205 37.3363 18.9776 37.429C19.2529 37.0536 19.6131 36.9744 19.8999 36.7957C20.2004 36.608 20.517 36.4452 20.8107 36.2258C19.8953 36.2258 19.012 36.556 18.0737 36.3163L20.3496 35.631C19.3745 35.4138 18.3949 35.6061 17.4497 35.2442L20.1247 34.9547C20.1293 34.914 20.1339 34.8755 20.1385 34.8348C19.1772 34.5431 18.1494 34.4684 17.218 34.0432C18.1838 33.946 19.1313 34.1902 20.0972 34.136C19.1038 33.6791 18.0324 33.4167 17.0734 32.8739C18.1104 32.9961 19.0992 33.315 20.1431 33.4461C19.1107 32.9011 18.0806 32.3537 17.0482 31.8087C17.0665 31.7725 17.0826 31.734 17.101 31.6978C18.1471 31.9851 19.1199 32.4736 20.1316 32.8581C20.1523 32.8287 20.1706 32.7993 20.1913 32.7676L17.3625 30.7027C17.3831 30.671 17.4061 30.6371 17.4267 30.6054C18.4568 31.0374 19.3814 31.6617 20.384 32.166C19.6842 31.2704 18.7092 30.6371 17.9819 29.746C18.1838 29.7792 18.4545 29.9216 18.7941 30.1734C19.0556 30.368 19.3172 30.5625 19.5741 30.7615C19.8173 30.9515 20.0513 31.1482 20.2922 31.3405C20.54 31.5395 20.7923 31.7363 21.0883 31.8833C20.3243 30.8972 19.5581 29.9111 18.7941 28.925C18.8285 28.8911 18.8629 28.8571 18.8973 28.8209C19.1451 28.9657 19.3286 29.1964 19.5374 29.3909C19.7737 29.6125 20.0008 29.8455 20.2303 30.0762C20.4459 30.2933 20.6593 30.515 20.8703 30.7366C21.0745 30.9515 21.2741 31.1709 21.538 31.3405C20.9782 30.3499 20.4184 29.3592 19.8586 28.3686C19.893 28.346 19.9274 28.3234 19.9618 28.3007C20.2899 28.5043 20.4551 28.8571 20.6776 29.1534C20.9048 29.4565 21.1181 29.7686 21.3338 30.0785C21.5586 30.4019 21.7789 30.7276 22.0381 31.0329C21.6917 29.9405 21.1548 28.9159 20.9323 27.7806C21.5632 28.7101 22.0358 29.7234 22.6208 30.6914C22.6805 30.4335 22.5612 30.2029 22.5061 29.9654C22.4442 29.703 22.3708 29.4452 22.3088 29.1828C22.2469 28.9205 22.1872 28.6581 22.1322 28.3957C22.0771 28.1356 22.0289 27.8733 22.0243 27.5906C22.217 27.7873 22.2951 28.0452 22.3891 28.2894C22.4992 28.5744 22.5933 28.8639 22.6942 29.1534C22.7883 29.4248 22.8778 29.6985 22.9718 29.9699C23.0636 30.2368 23.1577 30.5037 23.2976 30.7615C23.3642 29.7754 23.0774 28.8051 23.2059 27.8167C23.5867 28.7712 23.6647 29.8003 23.9194 30.7818C23.9561 30.7796 23.9951 30.7773 24.0318 30.7751C24.1029 29.8003 24.1763 28.8255 24.2474 27.8507C24.665 28.8684 24.4608 29.9631 24.782 31.0148C25.0183 30.1599 25.2546 29.3072 25.4909 28.4523C25.6882 28.7463 25.601 29.0471 25.5666 29.3434C25.5253 29.6804 25.4886 30.0197 25.4473 30.3566C25.4083 30.6733 25.3693 30.9877 25.328 31.3043L25.4358 31.345L26.4889 29.1692C26.5646 30.1124 26.1356 30.9311 25.9337 31.7974C25.9681 31.8177 26.0002 31.8358 26.0346 31.8562C26.4453 31.3495 26.8559 30.8407 27.2643 30.334C27.2987 30.3521 27.3354 30.368 27.3698 30.3861C27.3607 30.8045 27.1175 31.155 26.9362 31.5169C26.7573 31.8765 26.5485 32.2226 26.3925 32.6025C27.0188 32.4284 27.4043 31.9218 27.9663 31.6571C27.691 32.3741 27.0877 32.8671 26.6173 33.4484C26.6403 33.4801 26.6632 33.5095 26.6839 33.5411C27.0991 33.4054 27.5144 33.2697 27.9801 33.1159C27.6658 33.9121 26.3535 34.5386 25.2592 34.4662L25.2638 34.4707Z" fill="#243278"></path>
    <path d="M25.0572 33.6181L25.1329 33.6588C25.1811 33.5683 25.2293 33.4801 25.2775 33.3896L25.2018 33.3512C25.1536 33.4417 25.1054 33.5299 25.0549 33.6203L25.0572 33.6181Z" fill="#243278"></path>
    <path d="M25.4612 32.8468C25.4841 32.8581 25.5094 32.8671 25.5323 32.8784C25.5644 32.8061 25.5965 32.7314 25.6287 32.659C25.6057 32.65 25.5805 32.6387 25.5575 32.6296C25.5254 32.702 25.4933 32.7744 25.4612 32.849V32.8468Z" fill="#243278"></path>
  </g>
  <defs>
    <clipPath id="clip0_138_1455">
      <rect width="191" height="84" fill="white"></rect>
    </clipPath>
  </defs>
</svg>
