<svg width="16" height="16" viewBox="0 0 16 16" fill="none" xmlns="http://www.w3.org/2000/svg">
<path d="M3.63014 7.93001C3.51014 8.18001 3.16014 8.18001 3.03014 7.93001L2.74014 7.34001C2.69014 7.25001 2.69014 7.14001 2.74014 7.04001L3.03014 6.45001C3.15014 6.20001 3.50014 6.20001 3.63014 6.45001L3.92014 7.04001C3.97014 7.13001 3.97014 7.24001 3.92014 7.34001L3.63014 7.93001ZM3.63014 11.27C3.51014 11.52 3.16014 11.52 3.03014 11.27L2.74014 10.68C2.69014 10.59 2.69014 10.48 2.74014 10.38L3.03014 9.79001C3.15014 9.54001 3.50014 9.54001 3.63014 9.79001L3.92014 10.38C3.97014 10.47 3.97014 10.58 3.92014 10.68L3.63014 11.27Z" fill="#1D4AFF"/>
<path d="M0 10C0 9.70003 0.36 9.55003 0.57 9.76003L2.1 11.29C2.31 11.5 2.16 11.86 1.86 11.86H0.33C0.15 11.86 0 11.71 0 11.53V10ZM0 8.39003C0 8.48003 0.04 8.56003 0.1 8.63003L3.24 11.77C3.3 11.83 3.39 11.87 3.48 11.87H5.2C5.5 11.87 5.65 11.51 5.44 11.3L0.57 6.43003C0.36 6.22003 0 6.37003 0 6.67003V8.39003ZM0 5.06003C0 5.15003 0.04 5.23003 0.1 5.30003L6.57 11.77C6.63 11.83 6.72 11.87 6.81 11.87H8.53C8.83 11.87 8.98 11.51 8.77 11.3L0.57 3.10003C0.36 2.89003 0 3.04003 0 3.34003V5.06003ZM3.33 5.06003C3.33 5.15003 3.37 5.23003 3.43 5.30003L9.43 11.3C9.64 11.51 10 11.36 10 11.06V9.34003C10 9.25003 9.96 9.17003 9.9 9.10003L3.9 3.10003C3.69 2.89003 3.33 3.04003 3.33 3.34003V5.06003ZM7.24 3.10003C7.03 2.89003 6.67 3.04003 6.67 3.34003V5.06003C6.67 5.15003 6.71 5.23003 6.77 5.30003L9.44 7.97003C9.65 8.18003 10.01 8.03003 10.01 7.73003V6.01003C10.01 5.92003 9.97 5.84003 9.91 5.77003L7.24 3.10003Z" fill="#F9BD2B"/>
<path d="M14.1802 10.04L11.0402 6.90002C10.8302 6.69002 10.4702 6.84002 10.4702 7.14002V11.53C10.4702 11.71 10.6202 11.86 10.8002 11.86H15.6602C15.8402 11.86 15.9902 11.71 15.9902 11.53V11.13C15.9902 10.95 15.8402 10.8 15.6602 10.77C15.1002 10.7 14.5802 10.44 14.1702 10.04H14.1802ZM12.0702 10.8C11.7802 10.8 11.5402 10.56 11.5402 10.27C11.5402 9.98002 11.7802 9.74002 12.0702 9.74002C12.3602 9.74002 12.6002 9.98002 12.6002 10.27C12.6002 10.56 12.3602 10.8 12.0702 10.8Z" fill="black"/>
<path d="M0 11.53C0 11.71 0.15 11.86 0.33 11.86H1.86C2.16 11.86 2.31 11.5 2.1 11.29L0.57 9.76003C0.36 9.55003 0 9.70003 0 10L0 11.53ZM3.33 5.86003L0.57 3.10003C0.36 2.89003 0 3.04003 0 3.34003V5.06003C0 5.15003 0.04 5.23003 0.1 5.30003L3.34 8.54003V5.87003L3.33 5.86003ZM0.57 6.43003C0.36 6.22003 0 6.37003 0 6.67003V8.39003C0 8.48003 0.04 8.56003 0.1 8.63003L3.34 11.87V9.20003L0.57 6.43003Z" fill="#1D4AFF"/>
<path d="M6.67008 6.00003C6.67008 5.91003 6.63008 5.83003 6.57008 5.76003L3.90008 3.10003C3.69008 2.89003 3.33008 3.04003 3.33008 3.34003V5.06003C3.33008 5.15003 3.37008 5.23003 3.43008 5.30003L6.67008 8.54003V6.01003V6.00003ZM3.33008 11.86H5.19008C5.49008 11.86 5.64008 11.5 5.43008 11.29L3.33008 9.19003V11.86ZM3.33008 5.86003V8.39003C3.33008 8.48003 3.37008 8.56003 3.43008 8.63003L6.67008 11.87V9.34003C6.67008 9.25003 6.63008 9.17003 6.57008 9.10003L3.33008 5.86003Z" fill="#F54E00"/>
</svg>
