<svg width="16" height="16" viewBox="0 0 16 16" fill="none" xmlns="http://www.w3.org/2000/svg">
<g clip-path="url(#clip0_85_1070)">
<path d="M5.33321 16C6.80522 16 7.99992 14.8053 7.99992 13.3333V10.6666H5.33321C3.8612 10.6666 2.6665 11.8613 2.6665 13.3333C2.6665 14.8053 3.8612 16 5.33321 16Z" fill="#0ACF83"/>
<path d="M2.6665 8C2.6665 6.528 3.8612 5.33331 5.33321 5.33331H7.99992V10.6666H5.33321C3.8612 10.6667 2.6665 9.472 2.6665 8Z" fill="#A259FF"/>
<path d="M2.6665 2.66669C2.6665 1.19469 3.8612 0 5.33321 0H7.99992V5.33331H5.33321C3.8612 5.33331 2.6665 4.13869 2.6665 2.66669Z" fill="#F24E1E"/>
<path d="M8 0H10.6667C12.1387 0 13.3334 1.19469 13.3334 2.66669C13.3334 4.13869 12.1387 5.33331 10.6667 5.33331H8V0Z" fill="#FF7262"/>
<path d="M13.3334 8C13.3334 9.472 12.1387 10.6667 10.6667 10.6667C9.1947 10.6667 8 9.472 8 8C8 6.528 9.1947 5.33331 10.6667 5.33331C12.1387 5.33331 13.3334 6.528 13.3334 8Z" fill="#1ABCFE"/>
</g>
<defs>
<clipPath id="clip0_85_1070">
<rect width="16" height="16" fill="white"/>
</clipPath>
</defs>
</svg>
