<svg width="16" height="16" viewBox="0 0 16 16" fill="none" xmlns="http://www.w3.org/2000/svg">
<g clip-path="url(#clip0_85_1097)">
<path fill-rule="evenodd" clip-rule="evenodd" d="M8 3.40002C5.86667 3.40002 4.53333 4.46669 4 6.60002C4.8 5.53336 5.73333 5.13336 6.8 5.40002C7.40741 5.55114 7.84296 5.99262 8.32593 6.48151C9.11111 7.27854 10.0178 8.20002 12 8.20002C14.1333 8.20002 15.4667 7.13336 16 5.00002C15.2 6.06669 14.2667 6.46669 13.2 6.20002C12.5926 6.04891 12.157 5.60743 11.6741 5.11854C10.8889 4.32151 9.98222 3.40002 8 3.40002ZM4 8.20002C1.86667 8.20002 0.533333 9.26669 0 11.4C0.8 10.3334 1.73333 9.93336 2.8 10.2C3.40741 10.3511 3.84296 10.7926 4.32593 11.2815C5.11111 12.0785 6.01778 13 8 13C10.1333 13 11.4667 11.9334 12 9.80002C11.2 10.8667 10.2667 11.2667 9.2 11C8.59259 10.8489 8.15704 10.4074 7.67407 9.91854C6.88889 9.12151 5.98222 8.20002 4 8.20002Z" fill="#38BDF8"/>
</g>
<defs>
<clipPath id="clip0_85_1097">
<rect width="16" height="9.6" fill="white" transform="translate(0 3.40002)"/>
</clipPath>
</defs>
</svg>
