<?xml version="1.0" encoding="UTF-8"?>
<svg xmlns="http://www.w3.org/2000/svg" width="83" height="52" viewBox="0 0 83 52" fill="none">
  <path d="M54.3752 2.92878C54.37 2.76041 54.3544 2.58945 54.3596 2.42108C54.4038 1.31761 55.1621 0.540513 56.2658 0.467984C56.3748 0.460213 56.4813 0.462804 56.5904 0.462804C59.8729 0.462804 63.158 0.442081 66.4405 0.467984C69.5231 0.491297 72.4732 1.11038 75.1792 2.63608C79.1603 4.88188 81.5443 8.27778 82.352 12.7616C82.8869 15.7379 82.7077 18.6805 81.6482 21.5272C80.103 25.6769 77.1425 28.4356 73.042 30.0157C71.2059 30.7228 69.2972 31.0777 67.3313 31.1606C66.6197 31.1891 65.9082 31.1969 65.194 31.1969C62.3452 31.1969 59.4938 31.1632 56.6449 31.2098C55.0894 31.2357 54.1752 30.1633 54.3752 28.7412C54.6375 28.0989 55.1049 27.6637 55.7022 27.3192C56.6527 26.7726 57.572 26.1742 58.5069 25.6044C58.6627 25.5085 58.803 25.3764 59.0003 25.3635C61.3869 25.3635 63.7709 25.3713 66.1575 25.3635C67.417 25.3583 68.6609 25.2184 69.8659 24.8299C72.6109 23.944 74.6365 22.2525 75.7324 19.5508C76.4154 17.8645 76.5608 16.1031 76.3063 14.3132C75.9116 11.5364 74.543 9.36571 72.1512 7.8711C70.4658 6.81943 68.5986 6.34799 66.6301 6.3195C64.0903 6.28324 61.5505 6.30914 59.0081 6.30655C58.8263 6.2936 58.6965 6.17703 58.5537 6.08896C57.6188 5.5165 56.6969 4.92073 55.7464 4.37418C55.1361 4.02189 54.6427 3.5919 54.3726 2.93137L54.3752 2.92878Z" fill="#E8E8E8"></path>
  <path d="M0.0992947 17.823C0.0992947 13.8961 0.0992947 9.96922 0.0992947 6.0423C0.0992947 5.36105 0.122667 4.68239 0.278483 4.01409C0.743334 2.04804 2.21579 0.763245 4.26218 0.537888C4.69327 0.488672 5.12696 0.462769 5.56064 0.462769C10.9077 0.465359 16.2522 0.462769 21.5993 0.462769C21.7084 0.462769 21.8174 0.462769 21.9239 0.462769C22.3161 0.47313 22.3316 0.47313 22.3316 0.843545C22.3368 2.54279 22.3368 4.24463 22.3316 5.94387C22.3316 6.27802 22.3187 6.28061 21.9914 6.29097C21.8668 6.29615 21.7447 6.29097 21.6201 6.29097C17.0027 6.29097 12.3854 6.29097 7.76804 6.29097C7.55249 6.29097 7.33435 6.28579 7.1188 6.32983C6.64097 6.42826 6.34492 6.70283 6.26701 7.18722C6.24364 7.34005 6.22546 7.49288 6.22546 7.6483C6.22286 9.14809 6.22286 10.6479 6.22546 12.1477C6.22546 12.6191 6.23065 12.6243 6.72926 12.6243C10.4792 12.6243 14.2292 12.6243 17.9792 12.6243C18.7868 12.6243 18.6596 12.5673 18.6648 13.3263C18.6726 14.7794 18.6648 16.2326 18.6648 17.6858C18.6648 17.7946 18.657 17.9033 18.6648 18.0095C18.6855 18.2582 18.5583 18.3359 18.3298 18.3204C18.2051 18.3126 18.0831 18.3204 17.9584 18.3204C14.2396 18.3204 10.5208 18.3204 6.80198 18.3204C6.1917 18.3204 6.22286 18.266 6.22286 18.898C6.22286 22.7317 6.22286 26.5653 6.22286 30.399C6.22286 30.5078 6.22286 30.6166 6.22286 30.7228C6.21767 31.1787 6.21767 31.1839 5.75801 31.1839C4.03884 31.1839 2.31708 31.1839 0.597906 31.1839C0.104489 31.1839 0.101892 31.1813 0.101892 30.658C0.0992947 26.3866 0.0992947 22.1048 0.0992947 17.823Z" fill="#E8E8E8"></path>
  <path d="M50.7369 0.465471C51.3576 0.465471 51.3057 0.434387 51.3082 1.05088C51.3082 2.5973 51.3082 4.14112 51.3082 5.68754C51.3082 5.74971 51.3082 5.81188 51.3082 5.87404C51.3031 6.1538 51.1533 6.2954 50.859 6.29886C50.7499 6.29886 50.6408 6.29886 50.5344 6.29886C47.6829 6.29886 44.8341 6.29886 41.9827 6.29886C41.4035 6.29886 41.4243 6.24705 41.4243 6.848C41.4243 14.7459 41.4243 22.6437 41.4243 30.5416C41.4243 31.2125 41.5334 31.1969 40.7803 31.1969C39.1546 31.1969 35.6825 31.1918 35.576 31.1969C35.3865 31.2021 35.2852 31.127 35.2956 30.925C35.3034 30.7851 35.2956 30.6478 35.2956 30.5079C35.2956 22.6567 35.2956 14.8054 35.2956 6.9542C35.2956 6.22892 35.3631 6.30145 34.6541 6.30145C31.8027 6.30145 28.9538 6.30145 26.1024 6.30145C25.9933 6.30145 25.8843 6.30145 25.7778 6.30145C25.3935 6.29108 25.3857 6.29108 25.3831 5.9129C25.3779 5.12544 25.3779 1.78653 25.3831 0.905824C25.3831 0.478422 25.3909 0.470651 25.8323 0.470651C27.9229 0.470651 46.6234 0.470651 50.7447 0.470651L50.7369 0.465471Z" fill="#E8E8E8"></path>
  <path d="M55.7022 27.3192C55.1023 27.6637 54.6349 28.0989 54.3752 28.7413C54.37 28.2465 54.3622 27.7518 54.3596 27.2596C54.3596 25.7443 54.383 24.2289 54.3492 22.7162C54.3285 21.75 54.705 21.0765 55.5334 20.5792C57.8265 19.196 60.0988 17.7817 62.3789 16.3803C62.4984 16.3078 62.6231 16.2404 62.7269 16.1524C62.9581 15.9581 62.9633 15.7146 62.7321 15.5229C62.6153 15.4245 62.475 15.3519 62.3426 15.2716C60.0625 13.8677 57.7902 12.456 55.4997 11.0676C54.705 10.5858 54.3362 9.9356 54.3492 9.00568C54.3752 7.15102 54.357 5.29635 54.357 3.44169C54.357 3.27073 54.3674 3.10236 54.3726 2.9314C54.6401 3.59193 55.1361 4.02192 55.7464 4.3742C56.6969 4.92076 64.4253 9.67398 65.9341 10.6143C68.2117 12.0363 69.2842 14.6059 68.6895 17.2118C68.3025 18.9136 67.3313 20.1958 65.851 21.1076C63.7164 22.4183 56.6527 26.7726 55.7022 27.3192Z" fill="#C6C6C6"></path>
  <path d="M17.2287 45.7882C17.1274 45.8012 17.1118 45.8867 17.0755 45.9463C16.3431 47.1404 15.2316 47.6066 13.8812 47.5108C12.0868 47.3813 10.8636 46.3814 10.3468 44.6537C9.97545 43.4077 9.98324 42.1514 10.3884 40.9133C11.061 38.8592 13.0242 37.779 15.1278 38.2945C15.8939 38.481 16.5041 38.9084 16.956 39.5585C17.0339 39.6699 17.104 39.7891 17.1845 39.9134C17.3196 39.815 17.2624 39.6829 17.2624 39.5741C17.2676 38.2608 17.2624 36.9475 17.2676 35.6342C17.2676 35.2353 17.2728 35.2327 17.678 35.2327C18.2207 35.2327 18.7609 35.2405 19.3036 35.2275C19.527 35.2224 19.6179 35.3001 19.5945 35.5202C19.5841 35.6109 19.5945 35.7042 19.5945 35.7974C19.5945 39.4886 19.5945 43.1798 19.5945 46.8736C19.5945 46.9668 19.5893 47.0601 19.5945 47.1507C19.6075 47.3217 19.5477 47.4046 19.3634 47.4046C18.7453 47.3994 18.1246 47.3994 17.5066 47.4046C17.3274 47.4046 17.2624 47.3347 17.2676 47.1585C17.2754 46.8192 17.2754 46.4799 17.2676 46.1379C17.2676 46.024 17.3066 45.897 17.2313 45.7882H17.2287ZM17.2702 42.7757C17.2858 42.5581 17.2443 42.2525 17.1638 41.952C16.8807 40.8951 15.9873 40.2217 14.8733 40.2165C13.715 40.2139 12.884 40.8304 12.5828 41.9287C12.3984 42.5996 12.414 43.273 12.6295 43.9336C12.8191 44.5164 13.1827 44.9697 13.7462 45.2287C15.0421 45.8245 16.7976 45.3505 17.1949 43.5994C17.2495 43.3559 17.2676 43.1125 17.2702 42.7731V42.7757Z" fill="#C6C6C6"></path>
  <path d="M48.6386 45.8091C48.6074 45.8583 48.5736 45.9049 48.5451 45.9541C47.8127 47.1535 46.6961 47.5912 45.3483 47.5161C43.3071 47.4021 41.9619 45.98 41.6372 43.8871C41.4892 42.9287 41.5334 41.9754 41.8138 41.0429C42.4475 38.9396 44.3718 37.8102 46.5117 38.279C47.3531 38.463 48.0153 38.9085 48.4853 39.6312C48.5399 39.7141 48.5581 39.8332 48.7165 39.8669C48.8178 39.3488 48.6905 38.8256 48.7996 38.292C49.4878 38.292 50.1682 38.292 50.8486 38.292C51.0122 38.292 51.0667 38.3749 51.0641 38.5199C51.0641 38.6132 51.0641 38.7064 51.0641 38.7971C51.0641 41.5014 51.0641 44.2031 51.0641 46.9074C51.0641 46.9385 51.0641 46.9695 51.0641 47.0006C51.0589 47.3995 51.0589 47.4021 50.6564 47.4021C50.1604 47.4021 49.6644 47.4021 49.1709 47.4021C48.7191 47.4021 48.758 47.4358 48.758 46.967C48.758 46.5862 48.758 46.2028 48.758 45.822L48.6438 45.8065L48.6386 45.8091ZM46.3065 40.2192C45.1249 40.2244 44.2939 40.8927 44.016 42.0505C43.9096 42.4935 43.9096 42.9416 43.9641 43.3846C44.1173 44.6331 44.9821 45.4205 46.226 45.4723C47.418 45.5241 48.3971 44.7859 48.6593 43.6203C48.7554 43.198 48.758 42.7681 48.7035 42.3329C48.5373 41.061 47.5868 40.2166 46.3091 40.2192H46.3065Z" fill="#C6C6C6"></path>
  <path d="M69.5309 39.8874C69.5309 39.46 69.5413 39.0326 69.5257 38.6052C69.5179 38.3617 69.6062 38.2814 69.8452 38.2892C70.4035 38.3021 70.9592 38.2892 71.5176 38.2944C71.837 38.2969 71.8448 38.3021 71.8448 38.6363C71.8474 39.8408 71.8448 41.0479 71.8448 42.2523C71.8448 43.8454 71.8448 45.4358 71.8448 47.0289C71.8448 47.3993 71.8396 47.4019 71.4604 47.4045C70.9021 47.4071 70.3438 47.3993 69.788 47.4071C69.5855 47.4097 69.5205 47.332 69.5257 47.1351C69.5361 46.6896 69.5283 46.2466 69.5283 45.8114C69.4089 45.7752 69.3959 45.8555 69.3699 45.8995C68.6376 47.1506 67.4975 47.5988 66.1108 47.5133C64.1916 47.3941 63.049 46.1404 62.6127 44.6665C62.2439 43.418 62.2465 42.1617 62.6465 40.9235C63.3061 38.8927 65.1966 37.8281 67.2924 38.2762C68.2584 38.4834 68.97 39.0326 69.5283 39.8874H69.5309ZM69.5309 42.8041C69.5413 42.5217 69.5024 42.2161 69.4167 41.9182C69.118 40.8691 68.2195 40.2112 67.0976 40.2215C65.9653 40.2293 65.1447 40.8458 64.8487 41.926C64.6876 42.5166 64.685 43.1175 64.8279 43.7107C65.0356 44.5759 65.5602 45.1768 66.4354 45.3892C67.3625 45.612 68.2221 45.4566 68.8973 44.7157C69.3803 44.1847 69.5465 43.5371 69.5309 42.8093V42.8041Z" fill="#C6C6C6"></path>
  <path d="M61.4285 41.6852C61.3168 41.7655 61.1896 41.7318 61.0701 41.7318C60.6209 41.737 60.169 41.7059 59.7223 41.7422C59.2627 41.7784 59.0134 41.6722 58.7952 41.193C58.2265 39.9548 56.3723 39.8202 55.453 40.8925C55.2582 41.1179 55.1154 41.3743 55.0297 41.6593C54.796 42.4493 54.783 43.2497 55.0297 44.0346C55.414 45.2728 56.7021 45.8556 57.9019 45.3582C58.4187 45.1432 58.7693 44.7676 58.9329 44.2366C58.9978 44.0242 59.1043 43.9491 59.3276 43.9543C59.9327 43.9698 60.5352 43.9543 61.1403 43.9595C61.4675 43.9595 61.496 43.988 61.4129 44.304C60.9922 45.9048 59.9872 46.9383 58.3771 47.3735C58.1226 47.4434 57.8629 47.4849 57.598 47.4952C57.3098 47.5056 57.3539 47.7128 57.3539 47.8942C57.3539 48.0599 57.3176 48.2387 57.5851 48.2516C57.9253 48.2672 58.2577 48.3319 58.5719 48.4847C59.1614 48.7723 59.4445 49.2437 59.4678 49.8887C59.4938 50.5622 59.2627 51.101 58.6498 51.4325C58.3044 51.619 57.933 51.7304 57.5409 51.7382C56.8449 51.7485 56.1464 51.7382 55.4504 51.7511C55.2167 51.7563 55.1517 51.6657 55.1647 51.4532C55.1777 51.2382 55.1777 51.0207 55.1647 50.8057C55.1491 50.5725 55.2218 50.4741 55.4737 50.4819C55.9542 50.4974 56.4346 50.4896 56.915 50.4819C57.0838 50.4819 57.2578 50.4715 57.4214 50.4378C57.7071 50.3757 57.8707 50.1762 57.8759 49.9276C57.8811 49.6815 57.7123 49.482 57.424 49.4199C57.2734 49.3888 57.1176 49.3836 56.9618 49.3784C56.7307 49.3706 56.4969 49.368 56.2658 49.3784C56.0347 49.3914 55.9308 49.3162 55.9412 49.065C55.9594 48.6169 55.936 48.1687 55.949 47.7206C55.9568 47.4953 55.8737 47.4149 55.6529 47.3502C53.7909 46.7907 52.6769 45.41 52.5107 43.4751C52.4561 42.8249 52.4743 42.1773 52.6223 41.5375C53.0638 39.6181 54.5492 38.3514 56.5333 38.2064C57.3929 38.1442 58.2369 38.2116 59.0367 38.5639C60.3196 39.1285 61.0909 40.1129 61.4155 41.4624C61.4259 41.5064 61.4311 41.5531 61.4337 41.5997C61.4337 41.6308 61.4259 41.6619 61.4207 41.6929L61.4285 41.6852Z" fill="#C6C6C6"></path>
  <path d="M77.945 38.1959C78.4929 38.17 79.0279 38.2503 79.5473 38.4109C81.3366 38.9653 82.4948 40.478 82.6143 42.4156C82.6662 43.2756 82.5857 44.12 82.2273 44.91C81.5547 46.3995 80.3627 47.2154 78.7682 47.4667C77.9294 47.5988 77.0958 47.5496 76.2907 47.275C74.6521 46.7207 73.6756 45.5706 73.3432 43.8817C73.177 43.0347 73.2186 42.1876 73.4497 41.3561C73.9509 39.5429 75.5298 38.3099 77.4827 38.1985C77.636 38.1908 77.7918 38.1985 77.9476 38.1985L77.945 38.1959ZM75.6389 42.843C75.6233 43.1771 75.6571 43.5294 75.7558 43.8739C76.0414 44.8556 76.9062 45.5058 77.9294 45.511C78.9578 45.5136 79.8304 44.8738 80.1134 43.892C80.303 43.2263 80.3108 42.5477 80.129 41.8794C79.8434 40.8277 78.9942 40.1931 77.9034 40.2086C76.8439 40.2216 76.0129 40.8743 75.7376 41.9053C75.6571 42.2083 75.6311 42.514 75.6389 42.8456V42.843Z" fill="#C6C6C6"></path>
  <path d="M2.42879 43.3455C2.35348 45.1095 4.03369 46.2104 5.61003 45.4333C6.01515 45.2338 6.32159 44.9334 6.47481 44.5085C6.55272 44.2884 6.65919 44.1977 6.9033 44.2029C7.59669 44.2184 8.29266 44.2081 8.99384 44.2081C9.01201 44.5707 8.88217 44.8531 8.74972 45.1302C8.0927 46.4953 6.96563 47.2258 5.49836 47.4667C4.74006 47.591 3.98175 47.547 3.24163 47.3424C1.52765 46.8683 0.346048 45.454 0.156472 43.6693C0.0759674 42.9103 0.0863551 42.1565 0.275931 41.4131C0.740782 39.5714 2.21324 38.3488 4.14276 38.2063C4.8751 38.1519 5.59964 38.1908 6.30082 38.4239C8.4329 39.1337 9.28989 41.0272 9.14705 42.8585C9.11329 43.3066 9.09771 43.3066 8.64844 43.3066C6.74229 43.3066 4.83615 43.3066 2.93 43.3066C2.7612 43.3066 2.5898 43.2704 2.42879 43.3481V43.3455ZM2.40282 42.2161C2.56643 42.3068 2.72484 42.2731 2.87546 42.2731C3.75842 42.2757 4.63878 42.2731 5.52174 42.2731C5.86193 42.2731 6.20213 42.2653 6.54233 42.2731C6.7345 42.2783 6.83059 42.2187 6.81761 42.0115C6.77346 41.4209 6.61764 40.8821 6.12163 40.5065C5.36073 39.9289 4.52192 39.8693 3.66753 40.2319C2.80534 40.5972 2.46255 41.3251 2.40282 42.2135V42.2161Z" fill="#C6C6C6"></path>
  <path d="M27.9358 45.8347C27.8008 45.858 27.78 45.9176 27.7489 45.9694C27.0503 47.1221 25.9674 47.5676 24.6819 47.521C22.877 47.4562 21.7032 46.3527 21.4305 44.5602C21.3708 44.1769 21.3526 43.7935 21.3526 43.4076C21.3526 41.8637 21.3526 40.3173 21.3526 38.7735C21.3526 38.6802 21.3552 38.587 21.3526 38.4963C21.3526 38.3642 21.4071 38.2969 21.5448 38.2969C22.194 38.2969 22.8458 38.2969 23.4951 38.2969C23.6379 38.2969 23.6769 38.3823 23.6769 38.5093C23.6769 38.6181 23.6769 38.7243 23.6769 38.8331C23.6769 40.3018 23.6769 41.7679 23.6769 43.2366C23.6769 43.4671 23.6769 43.6977 23.7236 43.9282C23.9418 45.0058 24.6533 45.6041 25.7336 45.6093C26.8425 45.6145 27.645 44.9747 27.8501 43.9127C27.9125 43.5941 27.941 43.2729 27.9384 42.9465C27.9332 41.5244 27.9358 40.1049 27.9384 38.6828C27.9384 38.3046 27.9436 38.2995 28.315 38.2969C28.8422 38.2943 29.3667 38.2943 29.8939 38.2969C30.2627 38.2995 30.2679 38.3046 30.2679 38.688C30.2705 39.6775 30.2679 40.6644 30.2679 41.6539C30.2679 43.4464 30.2679 45.2389 30.2679 47.0288C30.2679 47.4018 30.2627 47.4044 29.8861 47.407C29.359 47.4096 28.8344 47.4096 28.3072 47.407C27.941 47.407 27.9384 47.4018 27.9358 47.0184C27.9332 46.6351 27.9358 46.2517 27.9358 45.8373V45.8347Z" fill="#C6C6C6"></path>
  <path d="M40.6816 41.7343C39.8921 41.7343 39.165 41.7317 38.4404 41.7343C38.2742 41.7343 38.2015 41.6747 38.1522 41.5115C37.8717 40.5842 37.0017 40.0661 35.9162 40.206C35.1787 40.3019 34.6411 40.7034 34.3529 41.3717C33.9321 42.3534 33.9192 43.3688 34.3606 44.3427C34.9657 45.6793 36.4694 45.7363 37.3211 45.2468C37.7133 45.0214 37.9886 44.6898 38.121 44.2624C38.1911 44.0371 38.2924 43.9438 38.5391 43.9516C39.2351 43.9672 39.9311 43.9568 40.6504 43.9568C40.6218 44.4464 40.4634 44.8608 40.2609 45.2545C39.6116 46.516 38.5521 47.2206 37.1705 47.4537C36.3992 47.5832 35.6228 47.5625 34.867 47.3475C33.1115 46.845 32.1065 45.6586 31.7767 43.8869C31.6313 43.1046 31.6546 42.3171 31.8364 41.54C32.2857 39.5999 33.7426 38.3462 35.7318 38.1985C36.4304 38.1467 37.129 38.1726 37.8016 38.3902C39.4065 38.9134 40.3388 40.0273 40.6842 41.7291L40.6816 41.7343Z" fill="#C6C6C6"></path>
  <path d="M64.1501 37.3775C64.1111 36.1315 65.0226 35.1731 66.1809 35.2249C66.4847 35.2379 66.7522 35.3518 67.0119 35.4917C67.243 35.6186 67.4664 35.7585 67.7001 35.8725C68.2662 36.1496 68.6324 36.015 68.8791 35.4399C68.931 35.3156 68.9752 35.2223 69.1336 35.2275C69.3647 35.2353 69.5984 35.2275 69.8296 35.2275C69.9205 35.2275 70.0165 35.2171 70.1178 35.2793C70.0789 35.774 69.9256 36.2377 69.6374 36.647C69.1596 37.3282 68.2662 37.5899 67.4923 37.2738C67.2352 37.1702 66.9963 37.0226 66.747 36.8982C66.5964 36.8231 66.4458 36.7376 66.2873 36.6833C65.8666 36.5382 65.5161 36.6625 65.3862 37.0744C65.2953 37.3697 65.1421 37.4241 64.8824 37.4034C64.6383 37.3852 64.389 37.4267 64.1475 37.3749L64.1501 37.3775Z" fill="#C6C6C6"></path>
</svg>
