<?xml version="1.0" encoding="UTF-8"?>
<svg xmlns="http://www.w3.org/2000/svg" width="126" height="49" viewBox="0 0 126 49" fill="none">
  <path d="M50.3308 39.4727C49.973 39.986 49.3688 40.3185 48.6557 40.3185C47.4836 40.3185 46.5786 39.3575 46.5786 38.187C46.5786 37.0165 47.481 36.0476 48.6557 36.0476C49.3558 36.0476 49.9548 36.3671 50.3127 36.8698L49.7033 37.3098C49.4647 36.9955 49.0939 36.7782 48.6557 36.7782C47.9088 36.7782 47.3461 37.4067 47.3461 38.187C47.3461 38.9673 47.9088 39.5879 48.6557 39.5879C49.0991 39.5879 49.488 39.3654 49.7266 39.0249L50.3308 39.4727Z" fill="#C6C6C6"></path>
  <path d="M51.5755 36.0947H54.1245V36.7834H52.3353V37.8649H53.9041V38.5483H52.3353V39.5696H54.1842V40.2583H51.5755V36.0947Z" fill="#C6C6C6"></path>
  <path d="M58.6469 40.2583H57.9468L56.3546 37.5219V40.2583H55.5948V36.0947H56.3079L57.8819 38.8023V36.0947H58.6469V40.2583Z" fill="#C6C6C6"></path>
  <path d="M59.9279 36.0947H63.0215V36.8017H61.8598V40.2583H61.087V36.8017H59.9253V36.0947H59.9279Z" fill="#C6C6C6"></path>
  <path d="M67.2742 40.2583H66.3536L65.3838 38.7788H65.0674V40.2583H64.3025V36.0947H65.9543C66.8645 36.0947 67.2716 36.7651 67.2716 37.4407C67.2716 38.0377 66.9552 38.6243 66.224 38.7447L67.2768 40.2557L67.2742 40.2583ZM65.0674 36.7834V38.0875H65.892C66.294 38.0875 66.4729 37.7497 66.4729 37.4407C66.4729 37.1317 66.2992 36.7834 65.9154 36.7834H65.0648H65.0674Z" fill="#C6C6C6"></path>
  <path d="M70.5104 36.0476C71.6825 36.0476 72.6056 37.0034 72.6056 38.187C72.6056 39.3706 71.685 40.3185 70.5104 40.3185C69.3357 40.3185 68.4229 39.3575 68.4229 38.187C68.4229 37.0165 69.3383 36.0476 70.5104 36.0476ZM70.5104 39.5591C71.252 39.5591 71.838 38.949 71.838 38.187C71.838 37.425 71.252 36.8096 70.5104 36.8096C69.7687 36.8096 69.1827 37.425 69.1827 38.187C69.1827 38.949 69.7636 39.5591 70.5104 39.5591Z" fill="#C6C6C6"></path>
  <path d="M78.383 38.7893V36.0947H79.148V38.7893C79.148 39.7189 78.4245 40.3185 77.587 40.3185C76.7494 40.3185 76.0181 39.7215 76.0181 38.7893V36.0947H76.7961V38.7893C76.7961 39.2737 77.1669 39.5879 77.587 39.5879C78.007 39.5879 78.383 39.2737 78.383 38.7893Z" fill="#C6C6C6"></path>
  <path d="M83.7871 40.2583H83.0869L81.4948 37.5219V40.2583H80.735V36.0947H81.4481L83.0221 38.8023V36.0947H83.7871V40.2583Z" fill="#C6C6C6"></path>
  <path d="M85.4129 36.0947H86.1727V40.2583H85.4129V36.0947Z" fill="#C6C6C6"></path>
  <path d="M88.2031 36.0947L89.0044 38.9961L89.8057 36.0947H90.6018L89.3519 40.2583H88.6647L87.4097 36.0947H88.2057H88.2031Z" fill="#C6C6C6"></path>
  <path d="M91.8387 36.0947H94.3877V36.7834H92.5985V37.8649H94.1673V38.5483H92.5985V39.5696H94.4473V40.2583H91.8387V36.0947Z" fill="#C6C6C6"></path>
  <path d="M98.8323 40.2583H97.9117L96.9419 38.7788H96.6255V40.2583H95.8606V36.0947H97.5124C98.4226 36.0947 98.8297 36.7651 98.8297 37.4407C98.8297 38.0377 98.5133 38.6243 97.7821 38.7447L98.8349 40.2557L98.8323 40.2583ZM96.6255 36.7834V38.0875H97.4501C97.8521 38.0875 98.031 37.7497 98.031 37.4407C98.031 37.1317 97.8573 36.7834 97.4735 36.7834H96.6229H96.6255Z" fill="#C6C6C6"></path>
  <path d="M100.759 39.0433C100.772 39.3444 101.029 39.6298 101.472 39.6298C101.884 39.6298 102.136 39.4125 102.154 39.1297C102.172 38.8521 101.985 38.6714 101.586 38.5614L101.078 38.4279C100.181 38.1608 100.035 37.6371 100.035 37.2679C100.035 36.5373 100.663 36.0476 101.423 36.0476C102.183 36.0476 102.792 36.5242 102.792 37.3045H102.027C102.027 36.9772 101.794 36.7599 101.41 36.7599C101.068 36.7599 100.793 36.9536 100.793 37.2495C100.793 37.3831 100.839 37.6057 101.283 37.7261L101.791 37.878C102.712 38.132 102.953 38.6583 102.916 39.1454C102.88 39.8943 102.221 40.3238 101.469 40.3238C100.59 40.3238 99.9914 39.7555 99.9914 39.0433H100.756H100.759Z" fill="#C6C6C6"></path>
  <path d="M104.283 36.0947H105.043V40.2583H104.283V36.0947Z" fill="#C6C6C6"></path>
  <path d="M106.324 36.0947H109.417V36.8017H108.256V40.2583H107.483V36.8017H106.321V36.0947H106.324Z" fill="#C6C6C6"></path>
  <path d="M112.599 39.2502H111.061L110.685 40.2584H109.871L111.414 36.0948H112.239L113.782 40.2584H112.975L112.599 39.2502ZM111.318 38.5746H112.348L111.826 36.9851L111.318 38.5746ZM112.096 34.6467L111.468 35.6313H112.036L112.861 34.6467H112.096Z" fill="#C6C6C6"></path>
  <path d="M117.871 40.2583H116.95L115.98 38.7788H115.664V40.2583H114.899V36.0947H116.551C117.461 36.0947 117.868 36.7651 117.868 37.4407C117.868 38.0377 117.552 38.6243 116.821 38.7447L117.873 40.2557L117.871 40.2583ZM115.664 36.7834V38.0875H116.489C116.891 38.0875 117.07 37.7497 117.07 37.4407C117.07 37.1317 116.896 36.7834 116.512 36.7834H115.662H115.664Z" fill="#C6C6C6"></path>
  <path d="M119.271 36.0947H120.031V40.2583H119.271V36.0947Z" fill="#C6C6C6"></path>
  <path d="M123.495 36.0476C124.667 36.0476 125.591 37.0034 125.591 38.187C125.591 39.3706 124.67 40.3185 123.495 40.3185C122.321 40.3185 121.408 39.3575 121.408 38.187C121.408 37.0165 122.323 36.0476 123.495 36.0476ZM123.495 39.5591C124.237 39.5591 124.823 38.949 124.823 38.187C124.823 37.425 124.237 36.8096 123.495 36.8096C122.754 36.8096 122.168 37.425 122.168 38.187C122.168 38.949 122.749 39.5591 123.495 39.5591Z" fill="#C6C6C6"></path>
  <path d="M55.9293 15.6647V23.311C55.9293 24.8743 55.7037 25.9898 55.2525 26.6602C54.8428 27.2677 54.1556 27.595 53.1962 27.6526C52.2367 27.595 51.5496 27.2651 51.1399 26.6602C50.6887 25.9898 50.4631 24.8743 50.4631 23.311V15.6647H47.118V23.8426C47.118 24.8298 47.2191 25.7358 47.4213 26.5633C47.6236 27.3908 47.9607 28.103 48.4301 28.6974C48.8994 29.2919 49.5269 29.758 50.3101 30.0931C51.0802 30.4231 52.0319 30.5881 53.1651 30.5933C53.1651 30.5933 53.1858 30.5933 53.1962 30.5933C53.2066 30.5933 53.2169 30.5933 53.2273 30.5933C54.3605 30.5854 55.3122 30.4205 56.0823 30.0905C56.8654 29.7553 57.493 29.2919 57.9623 28.6948C58.4317 28.1004 58.7688 27.3881 58.971 26.5607C59.1733 25.7332 59.2744 24.8272 59.2744 23.84V15.6621H55.9293V15.6647Z" fill="#E8E8E8"></path>
  <path d="M64.5047 16.1387C65.1504 15.9528 65.988 15.7748 67.02 15.6098C68.0521 15.4422 69.1931 15.3584 70.4481 15.3584C71.628 15.3584 72.6134 15.5208 73.4043 15.8481C74.1952 16.1728 74.8279 16.6284 75.2972 17.215C75.7666 17.8015 76.0985 18.5086 76.293 19.336C76.4875 20.1635 76.5834 21.0722 76.5834 22.0567V30.2634H73.2383V22.5883C73.2383 21.808 73.1865 21.1429 73.0853 20.593C72.9842 20.0431 72.8182 19.5979 72.5874 19.2522C72.3567 18.9092 72.0429 18.6578 71.6487 18.4981C71.252 18.341 70.7697 18.2598 70.1966 18.2598C69.7713 18.2598 69.3305 18.2886 68.8689 18.3436C68.4074 18.3986 68.0677 18.4457 67.8472 18.4824V30.2608H64.5021V16.1387H64.5047Z" fill="#E8E8E8"></path>
  <path d="M85.151 30.2607H81.8059V15.6647H85.151V30.2633V30.2607Z" fill="#E8E8E8"></path>
  <path d="M126 30.2607H122.655V10.0007H126V30.2607Z" fill="#E8E8E8"></path>
  <path d="M94.2373 30.2607C93.3115 28.3439 92.3651 26.1443 91.3926 23.6593C90.4202 21.1742 89.5386 18.5085 88.7425 15.6621H92.308C92.5103 16.4817 92.7462 17.3616 93.0159 18.299C93.283 19.2391 93.5709 20.1792 93.8768 21.1192C94.1828 22.0593 94.4966 22.9706 94.8207 23.8557C95.1449 24.7407 95.4457 25.5342 95.7231 26.2412C96.0006 25.5342 96.2962 24.7381 96.61 23.8557C96.9237 22.9732 97.2349 22.0593 97.5383 21.1192C97.8443 20.1792 98.1347 19.2391 98.4122 18.299C98.6896 17.359 98.9308 16.4817 99.1331 15.6621H102.59C101.794 18.5085 100.909 21.1742 99.9395 23.6593C98.9671 26.1443 98.0206 28.3439 97.0949 30.2607H94.2347H94.2373Z" fill="#E8E8E8"></path>
  <path d="M105.022 23.0333C105.022 21.7502 105.211 20.6242 105.59 19.6554C105.968 18.6891 106.469 17.8826 107.096 17.241C107.724 16.5995 108.442 16.115 109.251 15.7903C110.063 15.4656 110.89 15.3007 111.738 15.3007C113.727 15.3007 115.28 15.9239 116.395 17.1703C117.51 18.4168 118.068 20.2786 118.068 22.7532C118.068 22.9391 118.063 23.1486 118.055 23.3816C118.045 23.6147 118.032 23.8242 118.013 24.0101H108.479C108.569 25.1832 108.979 26.0892 109.708 26.7308C110.436 27.3723 111.489 27.6944 112.871 27.6944C113.683 27.6944 114.425 27.6211 115.096 27.4718C115.768 27.3226 116.299 27.1655 116.686 26.9979L117.129 29.7605C116.945 29.8548 116.691 29.9517 116.369 30.0538C116.048 30.1559 115.68 30.2502 115.265 30.334C114.85 30.4178 114.404 30.4885 113.924 30.5435C113.444 30.5984 112.957 30.6272 112.459 30.6272C111.188 30.6272 110.081 30.4361 109.142 30.0564C108.204 29.6741 107.428 29.1451 106.822 28.4643C106.215 27.7861 105.761 26.9848 105.468 26.0631C105.172 25.1413 105.025 24.1332 105.025 23.036L105.022 23.0333ZM114.723 21.525C114.723 21.0589 114.658 20.619 114.528 20.2C114.399 19.7811 114.209 19.4197 113.963 19.1107C113.714 18.8043 113.411 18.5608 113.05 18.3854C112.692 18.2099 112.262 18.1209 111.764 18.1209C111.266 18.1209 110.797 18.2178 110.41 18.4142C110.024 18.6106 109.695 18.8646 109.43 19.1814C109.163 19.4983 108.956 19.8596 108.808 20.2707C108.66 20.6792 108.559 21.0982 108.505 21.5277H114.723V21.525Z" fill="#E8E8E8"></path>
  <path d="M33.9009 16.9399C34.002 17.1704 34.0305 17.2044 34.0305 17.2358C34.0176 23.7247 34.1861 30.224 33.9294 36.705C33.696 42.5811 30.0735 46.6138 24.2312 48.0671C19.5558 49.2297 14.8416 49.2323 10.1636 48.0828C3.95051 46.5562 0.501682 42.191 0.26571 35.6419C0.203475 33.9346 0.193103 32.222 0.270896 30.5199C0.296827 29.9596 0.56651 29.3416 0.898428 28.8755C2.46985 26.668 4.80624 25.6651 7.4175 24.78C7.4175 25.2723 7.4175 25.6363 7.4175 26.0003C7.4175 28.81 7.41231 31.6197 7.4175 34.4269C7.43306 39.6797 10.0495 42.6099 15.2668 43.118C17.3284 43.317 19.4002 43.2698 21.4177 42.6649C24.5865 41.7144 26.6376 39.3184 26.7958 35.9744C26.9617 32.4132 26.8865 28.8414 26.9125 25.2723C26.9228 23.908 26.9125 22.5411 26.9125 21.0721C29.4537 20.1294 31.9716 19.1422 33.8983 16.9399H33.9009Z" fill="#E8E8E8"></path>
  <path d="M0.28904 27.2674C-0.678188 19.341 4.73881 11.6423 12.5492 9.90884C20.6916 8.10201 28.8651 6.44445 37.0256 4.72403C37.1682 4.69523 37.316 4.69261 37.6531 4.65857C37.5157 5.53841 37.4431 6.35279 37.2564 7.14099C35.5812 14.1667 30.2783 18.6156 22.9606 19.5295C18.42 20.0951 13.921 21.0012 9.42196 21.8548C8.10725 22.1036 6.83404 22.6378 5.57898 23.1353C3.14924 24.1016 1.93048 25.0809 0.28904 27.2701V27.2674Z" fill="#C6C6C6"></path>
  <path d="M8.38472 9.56593C10.6174 7.06256 13.4491 5.85016 16.5634 5.19813C23.3288 3.78409 30.0994 2.38315 36.87 0.982204C37.1215 0.929833 37.3782 0.911503 37.7594 0.859131C37.7102 1.55306 37.6661 2.17628 37.6116 2.93829C36.118 3.26561 34.627 3.60603 33.1281 3.91764C26.5805 5.27931 20.0226 6.59907 13.4854 8.01049C11.7765 8.37971 10.1299 9.0265 8.38472 9.56593Z" fill="#E8E8E8"></path>
</svg>
