<?xml version="1.0" encoding="UTF-8"?>
<svg xmlns="http://www.w3.org/2000/svg" width="97" height="65" viewBox="0 0 97 65" fill="none">
  <path d="M95.8981 57.6597H0.76712V59.0731H95.8981V57.6597Z" fill="#E8E8E8"></path>
  <path d="M95.8981 36.4104H0.76712V37.8239H95.8981V36.4104Z" fill="#E8E8E8"></path>
  <path d="M0.76712 26.135H36.0237L36.0029 26.7524H0.76712V26.135ZM37.7756 26.135H41.8289L41.8082 26.7524H37.7937L37.7756 26.135ZM43.5809 26.135H47.5927L47.572 26.7524H43.599L43.5809 26.135ZM49.342 26.135H53.3539L53.3332 26.7524H49.3602L49.342 26.135ZM55.1032 26.135H59.027L59.0062 26.7524H55.1214L55.1032 26.135ZM60.7789 26.135H95.8955V26.7524H60.8022L60.7841 26.135H60.7789Z" fill="#E8E8E8"></path>
  <path d="M95.8981 28.9594H69.1421V29.5768H95.8981V28.9594Z" fill="#E8E8E8"></path>
  <path d="M95.8981 32.0938H69.1421V32.7112H95.8981V32.0938Z" fill="#E8E8E8"></path>
  <path d="M27.8756 28.9594H0.76712V29.5768H27.8756V28.9594Z" fill="#E8E8E8"></path>
  <path d="M27.9559 26.1665H27.3469V37.6109H27.9559V26.1665Z" fill="#E8E8E8"></path>
  <path d="M69.606 26.2401H68.997V37.632H69.606V26.2401Z" fill="#E8E8E8"></path>
  <path d="M27.8756 32.0938H0.76712V32.7112H27.8756V32.0938Z" fill="#E8E8E8"></path>
  <path d="M95.8981 34.8286H0.76712V35.446H95.8981V34.8286Z" fill="#E8E8E8"></path>
  <path d="M29.3424 33.4912H28.9304V35.0439H29.3424V33.4912Z" fill="#E8E8E8"></path>
  <path d="M68.0067 33.486H28.9353V33.9037H68.0067V33.486Z" fill="#E8E8E8"></path>
  <path d="M67.9992 33.5806H67.5871V35.1333H67.9992V33.5806Z" fill="#E8E8E8"></path>
  <path d="M30.7912 32.3275H30.4102V33.8802H30.7912V32.3275Z" fill="#E8E8E8"></path>
  <path d="M66.4622 32.3224H30.4152V32.7401H66.4622V32.3224Z" fill="#E8E8E8"></path>
  <path d="M66.452 32.417H66.071V33.9697H66.452V32.417Z" fill="#E8E8E8"></path>
  <path d="M34.6734 30.801H34.6786V30.7958H39.1207V32.4904H38.7267V31.2266H35.0648V32.401H34.6734V30.801Z" fill="#E8E8E8"></path>
  <path d="M40.489 30.801H40.4942V30.7958H44.9363V32.4904H44.5449V31.2266H40.883V32.401H40.489V30.801Z" fill="#E8E8E8"></path>
  <path d="M46.214 30.801H46.2192V30.7958H50.6612V32.4904H50.2673V31.2266H46.6079V32.401H46.214V30.801Z" fill="#E8E8E8"></path>
  <path d="M51.9337 30.801H51.9388V30.7958H56.3809V32.4904H55.9896V31.2266H52.3276V32.401H51.9337V30.801Z" fill="#E8E8E8"></path>
  <path d="M57.6508 30.801H57.656V30.7958H62.0955L62.0981 32.4904H61.7041V31.2266H58.0422V32.401H57.6508V30.801Z" fill="#E8E8E8"></path>
  <path d="M38.5713 29.9473H35.3032V30.6461H38.5713V29.9473Z" fill="#E8E8E8"></path>
  <path d="M44.3221 29.9656H41.054V30.6644H44.3221V29.9656Z" fill="#E8E8E8"></path>
  <path d="M50.0729 29.9656H46.8049V30.6644H50.0729V29.9656Z" fill="#E8E8E8"></path>
  <path d="M55.8056 29.9656H52.5375V30.6644H55.8056V29.9656Z" fill="#E8E8E8"></path>
  <path d="M61.5668 29.9656H58.2987V30.6644H61.5668V29.9656Z" fill="#E8E8E8"></path>
  <path d="M35.6142 29.5952H38.1384L37.6149 13.5137H36.2206L35.6116 29.5952H35.6142ZM35.8941 29.2931L36.415 13.7817H37.405L37.8456 29.2931H35.8941Z" fill="#E8E8E8"></path>
  <path d="M41.4454 29.5952H43.9696L43.4461 13.5137H42.0518L41.4428 29.5952H41.4454ZM41.7253 29.2931L42.2462 13.7817H43.2362L43.6768 29.2931H41.7253Z" fill="#E8E8E8"></path>
  <path d="M47.2065 29.5952H49.7308L49.2073 13.5137H47.813L47.2039 29.5952H47.2065ZM47.4864 29.2931L48.0074 13.7817H48.9974L49.4379 29.2931H47.4864Z" fill="#E8E8E8"></path>
  <path d="M52.9703 29.5952H55.4946L54.971 13.5137H53.5767L52.9677 29.5952H52.9703ZM53.2502 29.2931L53.7711 13.7817H54.7611L55.2017 29.2931H53.2502Z" fill="#E8E8E8"></path>
  <path d="M58.646 29.5952H61.1702L60.6467 13.5137H59.2524L58.6434 29.5952H58.646ZM58.9259 29.2931L59.4468 13.7817H60.4368L60.8774 29.2931H58.9259Z" fill="#E8E8E8"></path>
  <path d="M37.7264 12.7911H36.0263V13.2614H37.7264V12.7911Z" fill="#E8E8E8"></path>
  <path d="M38.198 12.0529H35.5546V12.6466H38.198V12.0529Z" fill="#E8E8E8"></path>
  <path d="M43.5575 12.8016H41.8574V13.2719H43.5575V12.8016Z" fill="#E8E8E8"></path>
  <path d="M44.0292 12.0659H41.3857V12.6597H44.0292V12.0659Z" fill="#E8E8E8"></path>
  <path d="M49.3213 12.8123H47.6212V13.2825H49.3213V12.8123Z" fill="#E8E8E8"></path>
  <path d="M49.793 12.0765H47.1495V12.6703H49.793V12.0765Z" fill="#E8E8E8"></path>
  <path d="M55.0825 12.8253H53.3824V13.2956H55.0825V12.8253Z" fill="#E8E8E8"></path>
  <path d="M55.5542 12.0872H52.9107V12.6809H55.5542V12.0872Z" fill="#E8E8E8"></path>
  <path d="M60.7582 12.8359H59.0581V13.3062H60.7582V12.8359Z" fill="#E8E8E8"></path>
  <path d="M61.2299 12.1002H58.5864V12.694H61.2299V12.1002Z" fill="#E8E8E8"></path>
  <path d="M0.76712 18.8024H4.11292V19.4645H0.76712V18.8024ZM5.24287 18.8024H8.42021V19.4645H5.24287V18.8024ZM9.55016 18.8024H12.5772V19.4645H9.55016V18.8024ZM13.7071 18.8024H16.8197V19.4645H13.7071V18.8024ZM17.9496 18.8024H20.8885V19.4645H17.9496V18.8024ZM22.0185 18.8024H25.131V19.4645H22.0185V18.8024ZM26.261 18.8024H36.2362L36.2103 19.4645H26.2636V18.8024H26.261ZM37.5398 18.8024H42.0699L42.0648 18.9548L42.0466 19.4645H37.5631L37.5398 18.8024ZM43.3735 18.8024H47.8337V18.8786L47.8104 19.4619H43.3943L43.3761 18.7998L43.3735 18.8024ZM49.1399 18.8024H53.5975L53.5871 19.1046L53.5742 19.4645H49.158L49.1399 18.8024ZM54.8985 18.8024H59.2706L59.2576 19.1308L59.2447 19.4645H54.9141L54.8959 18.8024H54.8985ZM60.5716 18.8024H70.5675V19.4645H60.5923L60.5742 18.8024H60.5716ZM71.6975 18.8024H74.8748V19.4645H71.6975V18.8024ZM76.0047 18.8024H79.0318V19.4645H76.0047V18.8024ZM80.1617 18.8024H83.2743V19.4645H80.1617V18.8024ZM84.4042 18.8024H87.3431V19.4645H84.4042V18.8024ZM88.4731 18.8024H91.5856V19.4645H88.4731V18.8024ZM92.7156 18.8024H95.8929V19.4645H92.7156V18.8024Z" fill="#E8E8E8"></path>
  <path d="M3.82007 12.807H5.53832V25.192H3.82007V12.807ZM4.11292 13.2247V24.7296H5.24287V13.2274H4.11292V13.2247Z" fill="#E8E8E8"></path>
  <path d="M8.18179 12.807H9.90004V25.192H8.18179V12.807ZM8.47465 13.2247V24.7296H9.6046V13.2274H8.47465V13.2247Z" fill="#E8E8E8"></path>
  <path d="M12.4295 12.807H14.1477V25.192H12.4295V12.807ZM12.7223 13.2247V24.7296H13.8523V13.2274H12.7223V13.2247Z" fill="#E8E8E8"></path>
  <path d="M16.6564 12.807H18.3747V25.192H16.6564V12.807ZM16.9493 13.2247V24.7296H18.0792V13.2274H16.9493V13.2247Z" fill="#E8E8E8"></path>
  <path d="M20.5853 12.807H22.3036V25.192H20.5853V12.807ZM20.8782 13.2247V24.7296H22.0081V13.2274H20.8782V13.2247Z" fill="#E8E8E8"></path>
  <path d="M24.9237 12.807H26.642V25.192H24.9237V12.807ZM25.2166 13.2247V24.7296H26.3465V13.2274H25.2166V13.2247Z" fill="#E8E8E8"></path>
  <path d="M5.88562 12.1476H3.47281V12.7098H5.88562V12.1476Z" fill="#E8E8E8"></path>
  <path d="M5.88562 25.4205H3.47281V25.9828H5.88562V25.4205Z" fill="#E8E8E8"></path>
  <path d="M10.2473 12.1477H7.83453V12.7099H10.2473V12.1477Z" fill="#E8E8E8"></path>
  <path d="M14.495 12.1477H12.0822V12.7099H14.495V12.1477Z" fill="#E8E8E8"></path>
  <path d="M18.722 12.1477H16.3091V12.7099H18.722V12.1477Z" fill="#E8E8E8"></path>
  <path d="M22.6508 12.1477H20.238V12.7099H22.6508V12.1477Z" fill="#E8E8E8"></path>
  <path d="M26.9893 12.1477H24.5764V12.7099H26.9893V12.1477Z" fill="#E8E8E8"></path>
  <path d="M10.2473 25.3445H7.83453V25.9067H10.2473V25.3445Z" fill="#E8E8E8"></path>
  <path d="M14.495 25.3445H12.0822V25.9067H14.495V25.3445Z" fill="#E8E8E8"></path>
  <path d="M18.722 25.3445H16.3091V25.9067H18.722V25.3445Z" fill="#E8E8E8"></path>
  <path d="M22.6508 25.3445H20.238V25.9067H22.6508V25.3445Z" fill="#E8E8E8"></path>
  <path d="M26.9893 25.3445H24.5764V25.9067H26.9893V25.3445Z" fill="#E8E8E8"></path>
  <path d="M70.2461 12.807H71.9644V25.192H70.2461V12.807ZM70.539 13.2247V24.7296H71.6689V13.2274H70.539V13.2247Z" fill="#E8E8E8"></path>
  <path d="M74.6078 12.807H76.3261V25.192H74.6078V12.807ZM74.9007 13.2247V24.7296H76.0307V13.2274H74.9007V13.2247Z" fill="#E8E8E8"></path>
  <path d="M78.8555 12.807H80.5738V25.192H78.8555V12.807ZM79.1484 13.2247V24.7296H80.2783V13.2274H79.1484V13.2247Z" fill="#E8E8E8"></path>
  <path d="M83.0825 12.807H84.8008V25.192H83.0825V12.807ZM83.3754 13.2247V24.7296H84.5053V13.2274H83.3754V13.2247Z" fill="#E8E8E8"></path>
  <path d="M87.0114 12.807H88.7297V25.192H87.0114V12.807ZM87.3043 13.2247V24.7296H88.4342V13.2274H87.3043V13.2247Z" fill="#E8E8E8"></path>
  <path d="M91.3524 12.807H93.0706V25.192H91.3524V12.807ZM91.6452 13.2247V24.7296H92.7752V13.2274H91.6452V13.2247Z" fill="#E8E8E8"></path>
  <path d="M72.3117 12.1476H69.8989V12.7098H72.3117V12.1476Z" fill="#E8E8E8"></path>
  <path d="M72.3117 25.4205H69.8989V25.9828H72.3117V25.4205Z" fill="#E8E8E8"></path>
  <path d="M76.6734 12.1477H74.2606V12.7099H76.6734V12.1477Z" fill="#E8E8E8"></path>
  <path d="M80.9211 12.1477H78.5083V12.7099H80.9211V12.1477Z" fill="#E8E8E8"></path>
  <path d="M85.148 12.1477H82.7352V12.7099H85.148V12.1477Z" fill="#E8E8E8"></path>
  <path d="M89.0769 12.1477H86.6641V12.7099H89.0769V12.1477Z" fill="#E8E8E8"></path>
  <path d="M93.4153 12.1477H91.0025V12.7099H93.4153V12.1477Z" fill="#E8E8E8"></path>
  <path d="M76.6734 25.3445H74.2606V25.9067H76.6734V25.3445Z" fill="#E8E8E8"></path>
  <path d="M80.9211 25.3445H78.5083V25.9067H80.9211V25.3445Z" fill="#E8E8E8"></path>
  <path d="M85.148 25.3445H82.7352V25.9067H85.148V25.3445Z" fill="#E8E8E8"></path>
  <path d="M89.0769 25.3445H86.6641V25.9067H89.0769V25.3445Z" fill="#E8E8E8"></path>
  <path d="M93.4153 25.3445H91.0025V25.9067H93.4153V25.3445Z" fill="#E8E8E8"></path>
  <path d="M95.9421 11.53H0.844849V11.9556H95.9421V11.53Z" fill="#E8E8E8"></path>
  <path d="M2.86114 9.58325H2.35059V11.7008H2.86114V9.58325Z" fill="#E8E8E8"></path>
  <path d="M28.1243 9.46765H27.5671V11.7245H28.1243V9.46765Z" fill="#E8E8E8"></path>
  <path d="M29.5446 9.57803L14.9926 3.86633L0 9.64634L29.5446 9.57803ZM27.8652 9.31793L2.50092 9.08673L15.0755 4.39179L27.8652 9.32055V9.31793Z" fill="#E8E8E8"></path>
  <path d="M69.4687 9.58325H68.9581V11.7008H69.4687V9.58325Z" fill="#E8E8E8"></path>
  <path d="M94.7319 9.46765H94.1747V11.7245H94.7319V9.46765Z" fill="#E8E8E8"></path>
  <path d="M96.1702 9.48082L81.6027 3.86633L66.6256 9.54913L96.1702 9.48082ZM94.4753 9.32055L69.111 9.08935L81.6856 4.39179L94.4753 9.32055Z" fill="#E8E8E8"></path>
  <path d="M70.1787 9.20483H28.355V9.63571H70.1787V9.20483Z" fill="#E8E8E8"></path>
  <path d="M33.5953 9.50439H32.9707V11.622H33.5953V9.50439Z" fill="#E8E8E8"></path>
  <path d="M63.7878 9.50439H63.1632V11.622H63.7878V9.50439Z" fill="#E8E8E8"></path>
  <path d="M67.1051 7.35798L48.7123 0.844971L29.7597 7.4368L67.1051 7.35798ZM64.9826 7.06373L32.9215 6.801L48.816 1.44136L64.9826 7.0611V7.06373Z" fill="#E8E8E8"></path>
  <path d="M64.2206 8.12244H32.4395V8.6295H64.2206V8.12244Z" fill="#E8E8E8"></path>
  <path d="M33.7793 6.30443H20.2381L18.4654 5.56616H35.3395L33.7767 6.30443H33.7793ZM86.8948 6.30443L86.037 5.666L95.8437 5.56616L95.8904 6.30443H86.8948ZM76.1499 6.30443H62.7797L61.6834 5.56616H77.4509L76.2173 6.29129L76.1499 6.3018V6.30443ZM11.1207 5.56879L9.50871 6.30705H0.79306V5.56879H11.1181H11.1207Z" fill="#E8E8E8"></path>
  <path d="M1.07034 60.8728H1.54461V62.838C1.54461 63.1585 1.63013 63.3924 1.79859 63.5421C1.96704 63.6919 2.23398 63.7681 2.59681 63.7681C2.95964 63.7681 3.22657 63.6919 3.39503 63.5421C3.56608 63.3924 3.64901 63.1585 3.64901 62.838V60.8728H4.12587V62.838C4.12587 63.2663 3.99888 63.5868 3.7449 63.7996C3.49092 64.0124 3.10736 64.1175 2.59422 64.1175C2.08367 64.1175 1.7001 64.0124 1.44612 63.7996C1.19214 63.5868 1.06516 63.2663 1.06516 62.838V60.8728H1.07034ZM5.06404 64.0334V60.7467L7.95371 63.2741V60.8728H8.40206V64.1569L5.51239 61.6584V64.0334H5.06404ZM9.34801 64.0334V60.8728H9.81709V64.0334H9.34801ZM11.9008 64.1569L10.2318 60.8728H10.7397L11.9008 63.2899L13.054 60.8728H13.562L11.9008 64.1569ZM13.9767 64.0334V60.8728H16.0603V61.217H14.4483V62.1234H16.0603V62.4728H14.4483V63.684H16.0603V64.0334H13.9767ZM16.8534 64.0334V60.8728H17.7812C18.0455 60.8728 18.2399 60.8833 18.3643 60.907C18.4887 60.9306 18.5975 60.9726 18.6882 61.0304C18.8049 61.104 18.8956 61.2012 18.9604 61.3247C19.0252 61.4482 19.0588 61.5848 19.0588 61.7346C19.0588 61.992 18.9681 62.1891 18.7867 62.3257C18.6053 62.4597 18.341 62.528 17.9911 62.528H17.9082L19.4165 64.0361H18.8204L17.3795 62.528H17.3121V64.0361H16.8534V64.0334ZM17.3121 61.1907V62.2495H17.6697C18.0377 62.2495 18.2839 62.2127 18.4083 62.1365C18.5327 62.0603 18.5949 61.929 18.5949 61.7398C18.5949 61.5375 18.5327 61.3956 18.4032 61.3142C18.2762 61.2328 18.03 61.1933 17.6723 61.1933H17.3147L17.3121 61.1907ZM21.2462 62.2784C21.5028 62.3651 21.6971 62.4833 21.8293 62.6278C21.9589 62.775 22.0237 62.9457 22.0237 63.1428C22.0237 63.4344 21.9096 63.6682 21.6764 63.8469C21.4457 64.0255 21.1399 64.1149 20.7564 64.1149C20.4454 64.1149 20.1836 64.0518 19.9737 63.9231C19.7638 63.7943 19.6212 63.6131 19.5487 63.3792L19.9737 63.2111C20.0307 63.4029 20.1266 63.5474 20.2588 63.6446C20.3909 63.7444 20.5568 63.7917 20.7564 63.7917C20.9922 63.7917 21.1814 63.7365 21.3291 63.6288C21.4742 63.5185 21.5468 63.3792 21.5468 63.2032C21.5468 63.0613 21.495 62.9405 21.3939 62.8354C21.2928 62.7303 21.1399 62.6436 20.9326 62.57L20.4531 62.4045C20.1914 62.3178 19.9944 62.2048 19.8674 62.0656C19.7379 61.929 19.6731 61.7608 19.6731 61.569C19.6731 61.3431 19.7767 61.1592 19.9867 61.0121C20.194 60.8649 20.4609 60.7914 20.7849 60.7914C21.0233 60.7914 21.228 60.8308 21.4017 60.9122C21.5753 60.9937 21.7101 61.1119 21.8086 61.2695L21.4198 61.4666C21.3317 61.3431 21.2332 61.2538 21.1244 61.1933C21.0155 61.1329 20.8911 61.104 20.7538 61.104C20.5775 61.104 20.4324 61.1487 20.321 61.2328C20.2095 61.3195 20.1525 61.4298 20.1525 61.5638C20.1525 61.6768 20.1966 61.774 20.2821 61.8554C20.3676 61.9369 20.5024 62.0104 20.6838 62.0735L21.2462 62.2731V62.2784ZM22.6534 64.0334V60.8728H23.1225V64.0334H22.6534ZM24.5531 63.6787H24.8511C25.3384 63.6787 25.6727 63.663 25.8593 63.6288C26.0459 63.5947 26.2014 63.5369 26.3258 63.4554C26.489 63.3477 26.6109 63.2085 26.6938 63.0377C26.7793 62.8669 26.8208 62.6725 26.8208 62.4518C26.8208 62.2311 26.7793 62.0367 26.6964 61.8686C26.6134 61.7004 26.489 61.5638 26.3258 61.4534C26.2014 61.3694 26.0433 61.3116 25.8515 61.2748C25.6597 61.2406 25.3254 61.2222 24.8485 61.2222H24.5505V63.6814L24.5531 63.6787ZM24.0788 64.0334V60.8728H24.8382C25.398 60.8728 25.7945 60.8965 26.0226 60.9411C26.2506 60.9858 26.4528 61.062 26.6264 61.1697C26.8519 61.3089 27.0255 61.4876 27.1421 61.7057C27.2588 61.9237 27.3184 62.1733 27.3184 62.4571C27.3184 62.7382 27.2614 62.9904 27.1447 63.2058C27.0281 63.4213 26.8571 63.5999 26.629 63.7392C26.458 63.8443 26.261 63.9204 26.0407 63.9677C25.8204 64.0124 25.4783 64.0361 25.0118 64.0361H24.084L24.0788 64.0334ZM29.2362 61.5795L28.609 62.7434H29.8659L29.2362 61.5795ZM29.2362 60.7493L31.0322 64.0361H30.5216L30.0085 63.0666H28.4665L27.9533 64.0361H27.4428L29.2336 60.7493H29.2362ZM31.9159 63.6814H32.214C32.7012 63.6814 33.0355 63.6656 33.2221 63.6314C33.4087 63.5973 33.5642 63.5395 33.6886 63.4581C33.8519 63.3503 33.9737 63.2111 34.0566 63.0403C34.1421 62.8695 34.1836 62.6751 34.1836 62.4544C34.1836 62.2337 34.1421 62.0393 34.0592 61.8712C33.9763 61.703 33.8519 61.5664 33.6886 61.4561C33.5642 61.372 33.4061 61.3142 33.2143 61.2774C33.0226 61.2433 32.6882 61.2249 32.2114 61.2249H31.9133V63.684L31.9159 63.6814ZM31.4417 64.0361V60.8754H32.201C32.7608 60.8754 33.1573 60.8991 33.3854 60.9437C33.6134 60.9884 33.8156 61.0646 33.9892 61.1723C34.2147 61.3116 34.3883 61.4902 34.505 61.7083C34.6216 61.9264 34.6786 62.1759 34.6786 62.4597C34.6786 62.7408 34.6216 62.993 34.505 63.2085C34.3883 63.4239 34.2173 63.6025 33.9892 63.7418C33.8182 63.8469 33.6212 63.9231 33.4009 63.9704C33.1806 64.015 32.8385 64.0387 32.3721 64.0387H31.4442L31.4417 64.0361ZM35.4483 64.0361V60.8754H37.532V61.2196H35.92V62.126H37.532V62.4755H35.92V63.6866H37.532V64.0361H35.4483ZM39.9552 64.0361V60.8754H42.0388V61.2196H40.4268V62.126H42.0388V62.4755H40.4268V64.0361H39.9578H39.9552ZM42.7541 64.0361V60.8754H44.8378V61.2196H43.2258V62.126H44.8378V62.4755H43.2258V63.6866H44.8378V64.0361H42.7541ZM46.1077 63.6814H46.4057C46.893 63.6814 47.2273 63.6656 47.4139 63.6314C47.6005 63.5973 47.756 63.5395 47.8804 63.4581C48.0436 63.3503 48.1654 63.2111 48.2484 63.0403C48.3339 62.8695 48.3754 62.6751 48.3754 62.4544C48.3754 62.2337 48.3339 62.0393 48.251 61.8712C48.168 61.703 48.0436 61.5664 47.8804 61.4561C47.756 61.372 47.5979 61.3142 47.4061 61.2774C47.2143 61.2433 46.88 61.2249 46.4031 61.2249H46.1051V63.684L46.1077 63.6814ZM45.6334 64.0361V60.8754H46.3928C46.9526 60.8754 47.3491 60.8991 47.5771 60.9437C47.8052 60.9884 48.0074 61.0646 48.181 61.1723C48.4065 61.3116 48.5801 61.4902 48.6967 61.7083C48.8134 61.9264 48.8704 62.1759 48.8704 62.4597C48.8704 62.7434 48.8134 62.993 48.6967 63.2085C48.5801 63.4239 48.4091 63.6025 48.181 63.7418C48.01 63.8469 47.813 63.9231 47.5927 63.9704C47.3724 64.015 47.0303 64.0387 46.5638 64.0387H45.636L45.6334 64.0361ZM49.6401 64.0361V60.8754H51.7238V61.2196H50.1118V62.126H51.7238V62.4755H50.1118V63.6866H51.7238V64.0361H49.6401ZM52.5194 64.0361V60.8754H53.4472C53.7115 60.8754 53.9059 60.8859 54.0303 60.9096C54.1547 60.9332 54.2636 60.9753 54.3543 61.0331C54.4709 61.1066 54.5616 61.2039 54.6264 61.3273C54.6912 61.4508 54.7249 61.5874 54.7249 61.7372C54.7249 61.9947 54.6342 62.1917 54.4527 62.3283C54.2713 62.4623 54.007 62.5306 53.6571 62.5306H53.5742L55.0825 64.0387H54.4864L53.0455 62.5306H52.9781V64.0387H52.5194V64.0361ZM52.9781 61.1933V62.2521H53.3358C53.7038 62.2521 53.95 62.2154 54.0744 62.1392C54.1988 62.063 54.261 61.9316 54.261 61.7424C54.261 61.5401 54.1988 61.3983 54.0692 61.3168C53.9422 61.2354 53.696 61.196 53.3383 61.196H52.9807L52.9781 61.1933ZM56.723 61.5822L56.0958 62.7461H57.3528L56.723 61.5822ZM56.723 60.752L54.9322 64.0387H55.4427L55.9559 63.0692H57.4979L58.0111 64.0387H58.5216L56.7256 60.752H56.723ZM58.9259 64.0387V60.8781H59.395V63.6814H60.8852V64.0387H58.9233H58.9259ZM63.5494 63.684H63.8474C64.3346 63.684 64.669 63.6682 64.8555 63.6341C65.0421 63.5999 65.1976 63.5421 65.322 63.4607C65.4853 63.353 65.6071 63.2137 65.6901 63.0429C65.7756 62.8722 65.817 62.6777 65.817 62.4571C65.817 62.2364 65.7756 62.0419 65.6926 61.8738C65.6097 61.7057 65.4853 61.569 65.322 61.4587C65.1976 61.3746 65.0396 61.3168 64.8478 61.28C64.656 61.2459 64.3217 61.2275 63.8448 61.2275H63.5468V63.6866L63.5494 63.684ZM63.0751 64.0387V60.8781H63.8344C64.3942 60.8781 64.7908 60.9017 65.0188 60.9464C65.2469 60.991 65.449 61.0672 65.6227 61.175C65.8481 61.3142 66.0218 61.4928 66.1384 61.7109C66.255 61.929 66.312 62.1786 66.312 62.4623C66.312 62.7461 66.255 62.9957 66.1384 63.2111C66.0218 63.4265 65.8507 63.6052 65.6227 63.7444C65.4516 63.8495 65.2547 63.9257 65.0344 63.973C64.8141 64.0177 64.472 64.0413 64.0055 64.0413H63.0777L63.0751 64.0387ZM69.0099 63.7681C69.225 63.7681 69.4298 63.7365 69.6267 63.6709C69.8211 63.6052 69.9974 63.5106 70.1554 63.3845C70.3109 63.261 70.4276 63.1218 70.5079 62.9641C70.5882 62.8065 70.6297 62.641 70.6297 62.4649C70.6297 62.2889 70.5882 62.1208 70.5079 61.9605C70.425 61.8002 70.3083 61.661 70.1554 61.5375C69.9999 61.414 69.8263 61.3194 69.6319 61.2538C69.435 61.1881 69.2302 61.1566 69.0125 61.1566C68.7948 61.1566 68.5849 61.1881 68.3879 61.2538C68.191 61.3194 68.0173 61.414 67.867 61.5375C67.7115 61.6636 67.5949 61.8055 67.5146 61.9631C67.4342 62.1208 67.3928 62.2889 67.3928 62.4649C67.3928 62.641 67.4342 62.8065 67.5146 62.9615C67.5949 63.1165 67.7115 63.2584 67.8696 63.3845C68.0277 63.5106 68.2039 63.6078 68.3983 63.6709C68.5927 63.7365 68.7974 63.7681 69.0151 63.7681H69.0099ZM71.1195 62.4649C71.1195 62.6909 71.0677 62.9037 70.964 63.1034C70.8604 63.303 70.7075 63.4817 70.5079 63.6367C70.3083 63.7917 70.0777 63.9126 69.8185 63.9966C69.5568 64.0807 69.2872 64.1228 69.0099 64.1228C68.7326 64.1228 68.4631 64.0807 68.2039 63.9966C67.9474 63.9126 67.7167 63.7917 67.5172 63.6367C67.315 63.4791 67.1621 63.3004 67.0584 63.1007C66.9522 62.9011 66.9004 62.6883 66.9004 62.4649C66.9004 62.2416 66.9522 62.0262 67.0584 61.8239C67.1621 61.6242 67.315 61.4456 67.5172 61.2879C67.7141 61.1329 67.9448 61.0147 68.2039 60.9332C68.4631 60.8492 68.7326 60.8071 69.0125 60.8071C69.2924 60.8071 69.562 60.8492 69.8237 60.9332C70.0855 61.0173 70.3135 61.1355 70.5105 61.2879C70.71 61.4429 70.8629 61.6216 70.9666 61.8213C71.0703 62.0236 71.1221 62.2364 71.1221 62.4649H71.1195ZM73.9755 62.62V64.0387H73.5168V60.8781H74.3435C74.6338 60.8781 74.8463 60.8912 74.9836 60.9148C75.121 60.9385 75.2376 60.9805 75.3387 61.0357C75.4657 61.1066 75.5642 61.2065 75.6341 61.33C75.7041 61.4561 75.7404 61.5953 75.7404 61.7477C75.7404 61.9001 75.7041 62.0393 75.6341 62.1628C75.5642 62.2889 75.4657 62.3861 75.3387 62.4571C75.2376 62.5149 75.121 62.5569 74.9836 62.5805C74.8489 62.6042 74.6338 62.6173 74.3435 62.6173H73.9755V62.62ZM73.9755 62.2784H74.2139C74.6156 62.2784 74.8878 62.2416 75.0277 62.1654C75.1676 62.0892 75.2376 61.9579 75.2376 61.7687C75.2376 61.5664 75.1651 61.4245 75.0225 61.3431C74.88 61.2617 74.6104 61.2196 74.2139 61.2196H73.9755V62.2784ZM77.2695 61.5822L76.6423 62.7461H77.8992L77.2695 61.5822ZM77.2695 60.752L75.4786 64.0387H75.9892L76.5023 63.0692H78.0444L78.5575 64.0387H79.0681L77.2721 60.752H77.2695ZM79.4723 64.0387V60.8781H80.4002C80.6645 60.8781 80.8589 60.8886 80.9833 60.9122C81.1077 60.9359 81.2165 60.9779 81.3072 61.0357C81.4239 61.1093 81.5145 61.2065 81.5793 61.33C81.6441 61.4534 81.6778 61.5901 81.6778 61.7398C81.6778 61.9973 81.5871 62.1943 81.4057 62.3309C81.2243 62.4649 80.9599 62.5333 80.6101 62.5333H80.5271L82.0355 64.0413H81.4394L79.9985 62.5333H79.9311V64.0413H79.4723V64.0387ZM79.9311 61.196V62.2548H80.2887C80.6567 62.2548 80.9029 62.218 81.0273 62.1418C81.1517 62.0656 81.2139 61.9342 81.2139 61.7451C81.2139 61.5428 81.1517 61.4009 81.0221 61.3194C80.8952 61.238 80.6489 61.1986 80.2913 61.1986H79.9337L79.9311 61.196ZM83.676 61.5848L83.0488 62.7487H84.3057L83.676 61.5848ZM83.676 60.7546L81.8852 64.0413H82.3957L82.9089 63.0718H84.4509L84.964 64.0413H85.4746L83.6786 60.7546H83.676ZM85.8789 64.0413V60.7546L88.7685 63.282V60.8807H89.2169V64.1648L86.3272 61.6662V64.0413H85.8789ZM91.4068 61.5874L90.7796 62.7513H92.0366L91.4068 61.5874ZM91.4068 60.7572L93.2028 64.0439H92.6923L92.1791 63.0745H90.6371L90.1239 64.0439H89.6134L91.4042 60.7572H91.4068ZM91.0258 60.5681L91.5753 59.8167H92.1169L91.3472 60.5681H91.0232H91.0258Z" fill="#E8E8E8"></path>
  <path d="M1.04962 40.2146H5.331L5.35432 48.9635C5.35691 50.4452 5.72492 51.5303 6.92485 52.2265C8.11959 52.9175 9.72899 53.2696 12.2843 53.2696C14.8397 53.2696 15.9282 52.9885 17.1229 52.2975C18.3228 51.6013 19.1703 50.6554 19.1703 49.1736V40.1726L23.4024 40.2646V49.3812C23.4024 51.3674 22.371 53.0095 20.5724 53.9947C18.7816 54.9773 15.8763 55.2637 12.2636 55.2637C8.66124 55.2637 5.78712 54.8853 3.99631 53.9027C2.20031 52.9175 1.05221 51.3201 1.05221 49.3365V40.2199L1.04962 40.2146Z" fill="#E8E8E8"></path>
  <path d="M27.4194 40.1411C33.5979 40.1411 39.7711 40.1516 45.9574 40.1516V42.0747H31.7578V45.8974H46.0014V47.9703H31.7578V54.9011H27.4194V40.1384V40.1411Z" fill="#E8E8E8"></path>
  <path d="M56.5598 47.1034C56.6479 47.1034 57.6327 47.106 57.8115 47.1139C57.9981 47.1218 58.1303 47.1244 58.2184 47.1244C59.8252 47.1244 61.0485 46.9431 61.8908 46.5779C62.733 46.2154 63.1503 45.6952 63.1503 45.0147C63.1503 44.3106 62.7512 43.9507 61.953 43.6144C61.1625 43.2807 59.9133 43.1099 58.2184 43.1099C58.1303 43.1099 57.9955 43.1126 57.8115 43.1204C57.6353 43.1283 56.6479 43.1309 56.5598 43.1309V47.1008V47.1034ZM49.4924 54.9379V40.0859H57.3606C61.5383 40.0859 64.6301 40.4879 66.6671 41.1474C71.1273 42.5924 71.358 47.5343 66.8408 49.1816C64.8608 49.9041 62.0488 49.9934 58.5087 49.9934C58.0655 49.9934 57.7182 49.9934 57.4876 49.9908C57.2491 49.9881 56.7982 49.9803 56.5961 49.9724V54.9379H49.4898H49.4924Z" fill="#E8E8E8"></path>
  <path d="M80.9185 47.1611C81.0066 47.1611 81.696 47.1637 81.8903 47.1716C82.0951 47.1795 82.2376 47.1821 82.3257 47.1821C83.974 47.1821 85.2206 47.0009 86.0473 46.6435C86.8844 46.2836 87.3043 45.7555 87.3043 45.054C87.3043 44.3421 86.9207 43.8271 86.1562 43.5013C85.3916 43.1755 84.171 43.0127 82.4786 43.0127C82.2195 43.0127 82.0147 43.0153 81.8826 43.0205C81.74 43.0232 81.0714 43.0284 80.9444 43.0337L80.9185 47.1611ZM74.2217 54.9379V40.1069H82.1314C85.6586 40.1069 94.382 39.6445 94.382 45.0199C94.382 46.0787 93.8844 46.9273 92.8866 47.5657C91.8811 48.2068 90.3753 48.6534 88.3539 48.9109L95.8022 54.9405L87.452 55.0324L80.9781 49.1079L80.9444 54.9431H74.2243L74.2217 54.9379Z" fill="#E8E8E8"></path>
</svg>
