<?xml version="1.0" encoding="UTF-8"?>
<svg xmlns="http://www.w3.org/2000/svg" width="151" height="38" viewBox="0 0 151 38" fill="none">
  <path d="M20.1779 0.838834C18.827 3.18518 18.0368 5.8827 17.5439 8.5282V8.5386C17.2023 8.09899 16.7511 7.56833 16.3625 7.08709C14.8865 5.2558 13.2565 3.54156 11.6083 1.85853C14.318 0.773802 17.291 0.420029 20.1779 0.838834ZM0.702133 15.1953C3.22658 14.8883 5.76145 14.6074 8.27285 14.5215C8.92222 14.4981 9.65764 14.4669 10.2392 14.4643C10.2392 14.4617 10.234 14.4565 10.2314 14.4539C8.19201 12.0321 6.34562 9.30338 5.15903 6.35874C2.90841 8.84035 1.37236 11.9203 0.702133 15.1953ZM5.67539 32.4079C6.86198 30.2488 8.11377 28.1132 9.48291 26.0972C9.84541 25.5613 10.2549 24.9474 10.5991 24.474C10.5939 24.474 10.5913 24.474 10.5861 24.474C7.37052 24.7107 4.02198 24.5781 0.882078 23.7977C1.68531 27.0259 3.33089 30.0329 5.67539 32.4079ZM20.8246 37.2775C20.0605 35.3577 19.3277 33.4224 18.7435 31.474C18.5819 30.933 18.3915 30.3035 18.2585 29.7936C18.2585 29.7962 18.2533 29.7988 18.2507 29.804C16.5008 32.2804 14.6231 34.6658 12.2681 36.6089C15.1134 37.4388 17.8751 37.8289 20.8246 37.2801M32.6332 28.8884C30.9928 28.4748 29.3577 28.0039 27.7877 27.3848C27.3418 27.2079 26.8202 27.0233 26.4081 26.8464V26.8568C27.0184 29.3904 27.3731 32.0489 27.2166 34.6554C29.4281 33.1649 31.2797 31.1775 32.6358 28.8858M34.8369 14.9273C33.5199 16.0069 32.1638 17.0552 30.7346 17.9708C30.3356 18.2257 29.8793 18.5353 29.5011 18.7642L29.5089 18.7694C31.5014 19.7839 33.4182 21.0715 34.9568 22.7025C35.3219 20.0076 35.2932 17.6092 34.8369 14.9273ZM26.6846 3.2242C26.5646 5.24279 26.4186 7.26658 26.1448 9.24355C26.0717 9.77941 25.9857 10.4037 25.9022 10.8954C25.9022 10.8954 25.9074 10.8954 25.91 10.8928C27.9651 9.93289 30.0253 9.05366 32.3072 8.81694C30.8755 6.56684 28.9535 4.63669 26.6846 3.2268" fill="#C6C6C6"></path>
  <path d="M141.643 6.48343L138.143 31.1279H133.692V28.3731C131.485 30.475 129.196 31.5415 126.872 31.5415C125.242 31.5415 124.037 31.0707 123.187 30.1056C121.878 28.6151 121.492 25.9826 122.011 22.0547C123.036 14.6957 125.79 13.2181 129.9 13.2181C131.525 13.2181 133.387 13.3638 135.04 13.6083L136.052 6.48083H141.638L141.643 6.48343ZM132.041 17.2787C128.94 17.2787 128.278 17.6715 127.665 22.1899C127.352 24.5051 127.258 25.9488 127.72 26.4742C127.91 26.6927 128.233 26.7812 128.724 26.7604C130.419 26.7265 131.764 25.8343 133.501 24.3022L134.485 17.2787H132.041ZM81.7451 13.2181C78.5843 13.2181 76.4224 13.8736 74.9411 15.2783C73.4754 16.6674 72.6096 18.7875 72.1324 22.1561C71.6551 25.5039 72.0619 27.8659 73.3789 29.3746C74.6464 30.8314 76.7979 31.5389 79.9534 31.5389C81.5051 31.5389 83.7844 31.3984 85.8369 30.7247L85.9803 30.6779L86.5592 26.5601L86.1889 26.6225C84.7624 26.8254 82.9656 26.9294 80.8479 26.9294C79.3849 26.9294 78.6547 26.75 78.2479 26.2895C77.7446 25.7198 77.6481 24.6091 77.9193 22.4579C78.407 18.4701 79.6483 17.825 82.4335 17.825C83.5628 17.825 87.7745 17.8978 87.7745 17.8978L88.3222 13.9933C88.3222 13.9933 85.962 13.2181 81.7451 13.2181ZM119.63 15.1535C120.478 16.129 120.762 17.4972 120.501 19.3363C119.959 23.0457 117.351 23.9666 113.316 24.2527L108.523 24.6117C108.653 26.6225 109.702 26.9971 111.681 26.9971C113.387 26.9971 117.497 26.7968 118.167 26.6251L118.438 26.5575L118.469 26.8332C118.636 28.2873 119.121 29.8975 119.127 29.9131L119.189 30.1212L118.986 30.207C116.806 31.1201 113.366 31.5363 111.094 31.5363C107.874 31.5363 105.659 30.8079 104.324 29.3096C102.963 27.7827 102.496 25.3973 102.895 22.0208C103.696 15.437 106.244 13.2155 112.993 13.2155C116.328 13.2155 118.501 13.8476 119.633 15.1509M112.521 20.7774C114.148 20.6474 114.904 20.33 115.092 18.7901C115.139 18.2542 115.084 17.9264 114.912 17.7391C114.659 17.4634 114.059 17.4088 113.173 17.4088C113.008 17.4088 112.834 17.4088 112.651 17.414C110.035 17.414 109.389 18.3036 108.878 21.126L112.521 20.78V20.7774ZM103.513 13.6968H102.436C100.392 13.6968 98.3886 14.7087 95.8068 17.0602V13.6968H91.3891L88.9428 31.1253H94.5342L95.8903 21.1026C96.5944 20.2077 98.5529 19.1516 100.011 19.1516H101.205L101.247 18.9617C101.252 18.9383 101.755 16.6986 103.299 14.0635L103.513 13.6994V13.6968ZM44.8121 12.906C44.3453 16.5035 45.6049 18.6288 49.0264 20.0179L53.5459 21.8127C54.9802 22.3356 55.2984 22.6035 55.1132 24.0212C54.8342 25.8473 54.1222 26.3364 50.9615 26.3364H43.2838L42.6006 31.1227H51.1858C57.875 31.1227 60.1204 29.5489 60.7985 24.3906C61.2183 21.1338 60.6524 18.7979 56.545 17.2085L52.2732 15.5853C50.6172 14.9688 50.3121 14.7217 50.5312 13.2754C50.7841 11.6652 51.3787 11.3166 52.6201 11.2282H61.7842L62.4675 6.44181H54.2892C48.7213 6.44181 45.5631 7.47191 44.8147 12.9034M62.5092 31.1201H68.0667L70.5129 13.6916H64.9554L62.5092 31.1201ZM70.8571 11.2256L71.5273 6.43921H65.9725L65.2997 11.2256H70.8545H70.8571ZM141.555 31.1201H147.109L149.556 13.6916H143.998L141.552 31.1201H141.555ZM149.902 11.2256L150.573 6.43921H145.018L144.345 11.2256H149.902Z" fill="#E8E8E8"></path>
  <path d="M23.0153 12.1592C23.0075 13.6706 22.6137 14.4328 22.126 14.49C21.8052 14.5264 21.4401 14.2637 21.1037 13.7174C20.011 11.9251 18.8113 10.2161 17.5413 8.54087C17.5413 8.53827 17.5413 8.53307 17.5439 8.53047C18.0368 5.88497 18.827 3.18485 20.1779 0.838501C21.8678 4.23576 23.0335 8.38219 23.0127 12.1618M16.6703 12.0734C17.8647 13.1399 18.1907 13.9931 17.9247 14.4588C17.7499 14.7631 17.3144 14.9062 16.6755 14.8334C14.5344 14.581 12.3985 14.4848 10.2366 14.4692C10.2366 14.4692 10.2314 14.4614 10.2288 14.4588C8.1894 12.037 6.34301 9.30825 5.15642 6.36361C9.20126 7.31827 13.5747 9.31345 16.6677 12.076M12.5889 17.5985C14.1849 17.2629 15.0586 17.5387 15.2542 18.0641C15.382 18.4101 15.2229 18.8705 14.7717 19.3622C13.2774 20.988 11.9083 22.697 10.5939 24.4763H10.5808C7.3627 24.713 4.01677 24.5803 0.876862 23.7999C4.07675 20.9724 8.41368 18.4751 12.5915 17.5959M14.4144 24.4086C15.1134 22.9259 15.8566 22.3692 16.3704 22.5253C16.7068 22.6268 16.9545 23.0326 17.0458 23.6855C17.3327 25.7457 17.7499 27.7695 18.2559 29.7933C18.2559 29.7933 18.2507 29.7985 18.248 29.8037C16.4981 32.2827 14.6205 34.6681 12.2629 36.6086C11.9839 32.6053 12.7141 28.0218 14.4144 24.4086ZM20.4595 26.8408C19.8389 25.4856 19.8858 24.5673 20.3057 24.2474C20.5821 24.0393 21.0228 24.0783 21.534 24.38C23.0987 25.3009 24.7104 26.1619 26.4029 26.846V26.8564C27.0132 29.3901 27.3679 32.0486 27.2114 34.6577C24.3975 32.8186 21.8443 29.8583 20.4621 26.8408M25.7849 23.5008C24.4992 23.2173 23.8811 22.6424 23.9228 22.1169C23.9489 21.7736 24.2488 21.4432 24.7756 21.2091C26.3951 20.4937 27.9911 19.7055 29.4959 18.7613L29.5037 18.7665C31.4961 19.781 33.413 21.0686 34.9516 22.6996C32.1507 23.7895 28.6848 24.1381 25.7849 23.4982M26.8384 17.1979C25.8188 18.0875 25.0338 18.2384 24.6895 17.8768C24.4653 17.6401 24.4183 17.1823 24.5904 16.5918C25.1303 14.7163 25.5501 12.82 25.8996 10.895C25.8996 10.895 25.9048 10.895 25.9074 10.8924C27.9625 9.93255 30.0253 9.05332 32.3046 8.81661C31.2275 11.8861 29.2742 15.0727 26.8358 17.2005" fill="#E8E8E8"></path>
</svg>
