<svg width="1150" height="520" viewBox="0 0 1150 520" fill="none" xmlns="http://www.w3.org/2000/svg">
<rect width="1150" height="520" fill="#F5F5F5"/>
<g clip-path="url(#clip0_60_2161)">
<path d="M189 256.668V238.87H226.572V256.668H219.129V281.137H196.321V256.668H189Z" fill="#021B3F"/>
<path d="M252.309 268.776V281.137H231.324V238.864H253.468C260.745 238.864 266.096 240.052 269.508 242.441C272.927 244.824 274.634 248.957 274.634 254.827C274.634 259.277 273.191 262.551 270.307 264.676C272.747 269.041 274.595 274.524 275.857 281.13H255.786C255.458 277.01 254.891 273.381 254.08 270.242L253.655 268.776H252.309ZM252.309 263.823H254.074C254.563 263.823 254.969 263.662 255.297 263.332C255.619 263.003 255.786 262.577 255.786 262.047V258.379C255.786 257.85 255.625 257.43 255.297 257.12C254.969 256.816 254.563 256.661 254.074 256.661H252.309V263.817V263.823Z" fill="#021B3F"/>
<path d="M299.888 238.256H304.95C312.271 238.256 317.596 239.987 320.931 243.455C324.267 246.923 325.935 252.367 325.935 259.787C325.935 267.207 324.254 272.728 320.899 276.332C317.544 279.935 312.232 281.75 304.95 281.75H299.888C292.606 281.75 287.281 279.942 283.906 276.332C280.532 272.722 278.839 267.207 278.839 259.787C278.839 252.367 280.519 246.923 283.874 243.455C287.229 239.987 292.567 238.256 299.888 238.256ZM300.68 258.379V265.476C300.68 266.006 300.835 266.438 301.138 266.761C301.44 267.091 301.846 267.252 302.355 267.252C302.863 267.252 303.288 267.091 303.636 266.761C303.984 266.438 304.151 266.006 304.151 265.476V258.379C304.151 257.888 303.977 257.481 303.636 257.152C303.288 256.829 302.863 256.661 302.355 256.661C301.846 256.661 301.44 256.823 301.138 257.152C300.835 257.481 300.68 257.888 300.68 258.379Z" fill="#021B3F"/>
<path d="M353.075 258.379V261.744C353.887 261.828 355.31 261.866 357.344 261.866C361.169 261.866 364.582 261.744 367.595 261.498L369.057 261.376V279.664C365.11 281.053 359.514 281.744 352.251 281.744C344.988 281.744 339.444 279.89 335.599 276.177C331.755 272.47 329.836 266.949 329.836 259.632C329.836 252.315 331.73 246.916 335.509 243.455C339.296 239.987 344.923 238.256 352.406 238.256C355.541 238.256 358.497 238.437 361.279 238.805C364.06 239.173 366.05 239.542 367.228 239.903L369.057 240.452V259.296C365.516 258.683 360.19 258.379 353.075 258.379Z" fill="#021B3F"/>
<path d="M396.559 281.137L396.192 274.595H392.476L392.109 281.137H372.895C373.301 274.446 374.138 267.588 375.4 260.555C376.655 253.523 377.815 248.15 378.877 244.437L380.397 238.87H409.308C409.759 240.336 410.326 242.377 411.015 244.986C411.704 247.595 412.721 252.606 414.06 260.007C415.406 267.407 416.321 274.453 416.803 281.143H396.552L396.559 281.137ZM393.391 259.419L392.901 268.964H395.773L395.342 259.419H393.391Z" fill="#021B3F"/>
<path d="M441.639 268.776V281.137H420.654V238.864H442.798C450.075 238.864 455.426 240.052 458.838 242.441C462.257 244.824 463.964 248.957 463.964 254.827C463.964 259.277 462.521 262.551 459.637 264.676C460.358 265.967 461.034 267.362 461.652 268.854C463.12 272.393 455.535 272.141 456.424 276.79L455.973 281.137H445.123C444.795 277.016 444.228 273.387 443.417 270.249L442.992 268.783H441.646L441.639 268.776ZM441.639 263.823H443.404C443.893 263.823 444.299 263.662 444.627 263.332C444.949 263.003 445.117 262.577 445.117 262.047V258.379C445.117 257.85 444.956 257.43 444.627 257.12C444.299 256.816 443.893 256.661 443.404 256.661H441.639V263.817V263.823Z" fill="#021B3F"/>
<path d="M557.575 246.555L558.329 238.87H583.454V256.668H570.28V259.115H583.454V267.678H570.28V281.137H549.237V256.668L557.575 246.555Z" fill="#021B3F"/>
<path d="M587.299 281.137V238.864H608.284V281.13H587.299V281.137Z" fill="#021B3F"/>
<path d="M636.275 257.953V265.412H638.709V261.188L653.107 260.639V281.13C648.754 281.498 642.914 281.679 635.573 281.679C628.232 281.679 622.643 279.826 618.799 276.112C614.955 272.406 613.036 266.897 613.036 259.6C613.036 252.302 614.929 246.936 618.709 243.507C622.495 240.084 628.123 238.366 635.605 238.366C638.574 238.366 641.484 238.508 644.33 238.799C647.176 239.09 649.288 239.367 650.673 239.651L652.688 240.084V257.946H636.281L636.275 257.953Z" fill="#021B3F"/>
<path d="M681.413 238.864H701.484V262.351C701.484 268.957 699.803 273.839 696.448 276.997C693.094 280.161 687.756 281.744 680.434 281.744H678.85C671.568 281.744 666.255 280.148 662.901 276.971C659.546 273.788 657.865 268.918 657.865 262.351V238.864H677.872V264.617C677.872 265.147 678.033 265.567 678.361 265.87C678.683 266.174 679.101 266.329 679.61 266.329C680.119 266.329 680.544 266.167 680.892 265.838C681.233 265.515 681.407 265.102 681.407 264.617V238.864H681.413Z" fill="#021B3F"/>
<path d="M727.15 268.776V281.137H706.165V238.864H728.309C735.585 238.864 740.936 240.052 744.349 242.441C747.768 244.824 749.475 248.957 749.475 254.827C749.475 259.277 748.032 262.551 745.148 264.676C747.588 269.041 749.436 274.524 750.698 281.13H730.627C730.299 277.01 729.732 273.381 728.921 270.242L728.496 268.776H727.15ZM727.15 263.823H728.914C729.404 263.823 729.81 263.662 730.138 263.332C730.46 263.003 730.627 262.577 730.627 262.047V258.379C730.627 257.85 730.466 257.43 730.138 257.12C729.81 256.816 729.404 256.661 728.914 256.661H727.15V263.817V263.823Z" fill="#021B3F"/>
<path d="M754.6 281.137V238.864H775.585V281.13H754.6V281.137Z" fill="#021B3F"/>
<path d="M780.337 238.864H799.004L802.849 251.463V238.864H821.632V281.13H802.849L799.616 268.77V281.13H780.344V238.864H780.337Z" fill="#021B3F"/>
<path d="M849.932 257.953V238.87H870.002V281.137H849.932V266.884H846.39V281.137H826.384V238.864H846.39V257.946H849.932V257.953Z" fill="#021B3F"/>
<path d="M897.446 281.137L897.079 274.595H893.364L892.997 281.137H873.782C874.188 274.446 875.025 267.588 876.287 260.555C877.543 253.523 878.702 248.15 879.764 244.437L881.284 238.87H910.196C910.646 240.336 911.213 242.377 911.902 244.986C912.591 247.595 913.608 252.606 914.948 260.007C916.287 267.407 917.208 274.453 917.691 281.143H897.44L897.446 281.137ZM894.278 259.419L893.789 268.964H896.66L896.229 259.419H894.278Z" fill="#021B3F"/>
<path d="M942.217 238.256C945.553 238.256 948.669 238.47 951.58 238.902C954.484 239.328 956.57 239.768 957.832 240.213L959.661 240.891V258.386C956.37 256.874 951.85 256.119 946.119 256.119V257.707C951.406 258.114 955.211 259.173 957.523 260.891C959.841 262.603 961 265.192 961 268.66C961 272.819 959.313 276.041 955.939 278.321C952.565 280.607 947.356 281.75 940.324 281.75C936.3 281.75 932.739 281.511 929.648 281.046C926.557 280.581 924.484 280.123 923.428 279.671L921.779 278.934V263.707C922.146 263.868 922.694 264.094 923.428 264.378C924.162 264.663 925.797 265.031 928.334 265.476C930.878 265.928 933.615 266.148 936.538 266.148V264.682C931.573 264.314 927.832 263.255 925.315 261.505C922.79 259.755 921.528 256.694 921.528 252.328C921.528 247.963 923.254 244.527 926.712 242.021C930.17 239.509 935.334 238.256 942.204 238.256H942.217Z" fill="#021B3F"/>
<path d="M507.35 242.215L501.607 236.455C498.561 233.4 493.629 233.4 490.583 236.455L454.891 272.251C451.845 275.305 451.845 280.252 454.891 283.306L463.815 292.257L472.74 301.207C475.786 304.262 480.718 304.262 483.764 301.207L507.125 277.778L507.357 242.209L507.35 242.215ZM497.466 277.785C497.466 279.638 495.972 281.137 494.124 281.137H470.441L480.609 291.34C481.916 292.651 481.916 294.769 480.609 296.08C479.958 296.732 479.102 297.062 478.245 297.062C477.389 297.062 476.533 296.732 475.882 296.08L460.01 280.161C459.385 279.535 459.031 278.683 459.031 277.791C459.031 276.9 459.385 276.048 460.01 275.421L475.882 259.503C477.183 258.192 479.301 258.192 480.609 259.503C481.916 260.814 481.916 262.932 480.609 264.243L470.441 274.44H494.124C495.972 274.44 497.466 275.938 497.466 277.791V277.785Z" fill="#1461C9"/>
<path d="M559.585 236.687L550.66 227.737L541.735 218.786C538.69 215.732 533.757 215.732 530.712 218.786L507.35 242.215L507.119 277.785L512.862 283.545C515.908 286.6 520.84 286.6 523.886 283.545L559.578 247.75C562.624 244.695 562.624 239.748 559.578 236.694L559.585 236.687ZM554.459 244.585L538.587 260.504C537.936 261.156 537.08 261.485 536.223 261.485C535.367 261.485 534.511 261.156 533.86 260.504C532.553 259.193 532.553 257.075 533.86 255.764L544.028 245.56H520.345C518.497 245.56 517.003 244.062 517.003 242.209C517.003 240.355 518.497 238.857 520.345 238.857H544.028L533.86 228.66C532.553 227.349 532.553 225.231 533.86 223.92C535.161 222.609 537.28 222.609 538.587 223.92L554.459 239.839C555.084 240.465 555.438 241.317 555.438 242.209C555.438 243.1 555.084 243.952 554.459 244.579V244.585Z" fill="#EB462D"/>
<path d="M519.456 254.356L507.35 242.215L495.013 254.588C491.967 257.643 491.967 262.59 495.013 265.644L507.118 277.785L519.456 265.412C522.501 262.357 522.501 257.41 519.456 254.356Z" fill="#021B3F"/>
</g>
<defs>
<clipPath id="clip0_60_2161">
<rect width="772" height="87" fill="white" transform="translate(189 216.5)"/>
</clipPath>
</defs>
</svg>
