<svg width="1150" height="810" viewBox="0 0 1150 810" fill="none" xmlns="http://www.w3.org/2000/svg">
<g clip-path="url(#clip0_101_2477)">
<path d="M837.57 113.43V113.5C837.57 121.08 831.43 127.22 823.85 127.22H760.02C752.44 127.22 746.3 121.08 746.3 113.5V113.43C746.3 105.85 752.44 99.71 760.02 99.71H823.85C831.43 99.71 837.57 105.85 837.57 113.43ZM1150 0V810H0V0H1150ZM503.56 134.66C503.56 110 483.57 90 458.92 90H257.2C232.55 90 212.56 109.99 212.56 134.66V675.35C212.56 700.01 232.55 720.01 257.2 720.01H458.92C483.58 720.01 503.56 700.02 503.56 675.35V134.66ZM937.44 134.66C937.44 110 917.45 90 892.8 90H691.08C666.43 90 646.44 109.99 646.44 134.66V675.35C646.44 700.01 666.43 720.01 691.08 720.01H892.8C917.46 720.01 937.44 700.02 937.44 675.35V134.66ZM389.98 99.7H326.15C318.57 99.7 312.43 105.84 312.43 113.42V113.49C312.43 121.07 318.57 127.21 326.15 127.21H389.98C397.56 127.21 403.7 121.07 403.7 113.49V113.42C403.7 105.84 397.56 99.7 389.98 99.7Z" fill="#DDDDDD"/>
<path opacity="0.5" d="M347.39 761.992H347.138C347.063 762.151 346.97 762.305 346.858 762.454C346.755 762.594 346.615 762.72 346.438 762.832C346.27 762.944 346.065 763.033 345.822 763.098C345.589 763.163 345.304 763.196 344.968 763.196C344.539 763.196 344.137 763.121 343.764 762.972C343.4 762.813 343.078 762.585 342.798 762.286C342.527 761.978 342.313 761.605 342.154 761.166C342.005 760.727 341.93 760.223 341.93 759.654V759.402C341.93 758.842 342.009 758.343 342.168 757.904C342.336 757.465 342.56 757.097 342.84 756.798C343.129 756.49 343.461 756.257 343.834 756.098C344.217 755.939 344.618 755.86 345.038 755.86C345.598 755.86 346.041 755.967 346.368 756.182C346.695 756.387 346.951 756.681 347.138 757.064H347.39V756.056H349.154V764.708C349.154 765.025 349.051 765.287 348.846 765.492C348.65 765.697 348.393 765.8 348.076 765.8H343.4V764.12H347.012C347.264 764.12 347.39 763.98 347.39 763.7V761.992ZM345.542 761.516C346.093 761.516 346.536 761.343 346.872 760.998C347.217 760.643 347.39 760.181 347.39 759.612V759.444C347.39 758.875 347.217 758.417 346.872 758.072C346.536 757.717 346.093 757.54 345.542 757.54C344.991 757.54 344.543 757.713 344.198 758.058C343.862 758.394 343.694 758.856 343.694 759.444V759.612C343.694 760.2 343.862 760.667 344.198 761.012C344.543 761.348 344.991 761.516 345.542 761.516ZM350.346 756.056H353.286V757.064H353.538C353.669 756.681 353.888 756.387 354.196 756.182C354.513 755.967 354.891 755.86 355.33 755.86C356.021 755.86 356.576 756.079 356.996 756.518C357.416 756.947 357.626 757.605 357.626 758.492V758.8L355.806 758.968V758.772C355.806 758.389 355.708 758.086 355.512 757.862C355.316 757.629 355.022 757.512 354.63 757.512C354.238 757.512 353.93 757.647 353.706 757.918C353.482 758.189 353.37 758.576 353.37 759.08V761.32H354.966V763H350.178V761.32H351.606V757.736H350.346V756.056ZM359.056 761.32H361.408V757.736H359.224V756.056H363.172V761.32H365.188V763H359.056V761.32ZM363.606 753.998C363.606 754.185 363.569 754.362 363.494 754.53C363.429 754.689 363.335 754.829 363.214 754.95C363.093 755.062 362.948 755.155 362.78 755.23C362.621 755.295 362.453 755.328 362.276 755.328C362.089 755.328 361.917 755.295 361.758 755.23C361.599 755.155 361.459 755.062 361.338 754.95C361.217 754.829 361.119 754.689 361.044 754.53C360.979 754.362 360.946 754.185 360.946 753.998C360.946 753.811 360.979 753.639 361.044 753.48C361.119 753.312 361.217 753.172 361.338 753.06C361.459 752.939 361.599 752.845 361.758 752.78C361.917 752.705 362.089 752.668 362.276 752.668C362.453 752.668 362.621 752.705 362.78 752.78C362.948 752.845 363.093 752.939 363.214 753.06C363.335 753.172 363.429 753.312 363.494 753.48C363.569 753.639 363.606 753.811 363.606 753.998ZM372.162 761.992H371.91C371.835 762.151 371.742 762.305 371.63 762.454C371.527 762.594 371.387 762.72 371.21 762.832C371.042 762.944 370.837 763.033 370.594 763.098C370.361 763.163 370.076 763.196 369.74 763.196C369.311 763.196 368.909 763.121 368.536 762.972C368.172 762.813 367.85 762.585 367.57 762.286C367.299 761.978 367.085 761.605 366.926 761.166C366.777 760.727 366.702 760.223 366.702 759.654V759.402C366.702 758.842 366.781 758.343 366.94 757.904C367.108 757.465 367.332 757.097 367.612 756.798C367.901 756.49 368.233 756.257 368.606 756.098C368.989 755.939 369.39 755.86 369.81 755.86C370.37 755.86 370.813 755.967 371.14 756.182C371.467 756.387 371.723 756.681 371.91 757.064H372.162V753.2H373.926V763H372.162V761.992ZM370.314 761.516C370.865 761.516 371.308 761.343 371.644 760.998C371.989 760.643 372.162 760.181 372.162 759.612V759.444C372.162 758.875 371.989 758.417 371.644 758.072C371.308 757.717 370.865 757.54 370.314 757.54C369.763 757.54 369.315 757.713 368.97 758.058C368.634 758.394 368.466 758.856 368.466 759.444V759.612C368.466 760.2 368.634 760.667 368.97 761.012C369.315 761.348 369.763 761.516 370.314 761.516Z" fill="#1E1E1E"/>
<path opacity="0.5" d="M772.614 756.056H774.672V753.2H776.436V756.056H778.942V757.736H776.436V760.9C776.436 761.18 776.562 761.32 776.814 761.32H778.69V763H775.75C775.433 763 775.171 762.897 774.966 762.692C774.77 762.487 774.672 762.225 774.672 761.908V757.736H772.614V756.056ZM782.612 760.102C782.621 760.307 782.668 760.499 782.752 760.676C782.845 760.844 782.967 760.993 783.116 761.124C783.275 761.245 783.452 761.343 783.648 761.418C783.853 761.483 784.068 761.516 784.292 761.516C784.731 761.516 785.067 761.441 785.3 761.292C785.533 761.133 785.701 760.947 785.804 760.732L787.316 761.572C787.232 761.749 787.115 761.936 786.966 762.132C786.817 762.319 786.621 762.491 786.378 762.65C786.145 762.809 785.855 762.939 785.51 763.042C785.174 763.145 784.777 763.196 784.32 763.196C783.797 763.196 783.321 763.112 782.892 762.944C782.463 762.776 782.089 762.533 781.772 762.216C781.464 761.899 781.221 761.511 781.044 761.054C780.876 760.597 780.792 760.079 780.792 759.5V759.416C780.792 758.884 780.881 758.399 781.058 757.96C781.245 757.521 781.497 757.148 781.814 756.84C782.131 756.532 782.5 756.294 782.92 756.126C783.349 755.949 783.807 755.86 784.292 755.86C784.889 755.86 785.403 755.967 785.832 756.182C786.261 756.387 786.616 756.653 786.896 756.98C787.176 757.297 787.381 757.652 787.512 758.044C787.643 758.427 787.708 758.8 787.708 759.164V760.102H782.612ZM784.278 757.456C783.83 757.456 783.466 757.573 783.186 757.806C782.906 758.03 782.724 758.291 782.64 758.59H785.916C785.86 758.263 785.683 757.993 785.384 757.778C785.095 757.563 784.726 757.456 784.278 757.456ZM793.912 756.056H795.858L794.178 759.318V759.57L795.956 763H793.926L792.624 760.284H792.372L791.07 763H789.04L790.818 759.57V759.318L789.124 756.056H791.084L792.372 758.604H792.624L793.912 756.056ZM797.358 756.056H799.416V753.2H801.18V756.056H803.686V757.736H801.18V760.9C801.18 761.18 801.306 761.32 801.558 761.32H803.434V763H800.494C800.177 763 799.915 762.897 799.71 762.692C799.514 762.487 799.416 762.225 799.416 761.908V757.736H797.358V756.056ZM812.606 759.612C812.606 760.191 812.508 760.704 812.312 761.152C812.116 761.591 811.85 761.964 811.514 762.272C811.178 762.571 810.791 762.799 810.352 762.958C809.923 763.117 809.47 763.196 808.994 763.196C808.518 763.196 808.061 763.117 807.622 762.958C807.193 762.799 806.81 762.571 806.474 762.272C806.138 761.964 805.872 761.591 805.676 761.152C805.48 760.704 805.382 760.191 805.382 759.612V759.444C805.382 758.875 805.48 758.371 805.676 757.932C805.872 757.484 806.138 757.106 806.474 756.798C806.81 756.49 807.193 756.257 807.622 756.098C808.061 755.939 808.518 755.86 808.994 755.86C809.47 755.86 809.923 755.939 810.352 756.098C810.791 756.257 811.178 756.49 811.514 756.798C811.85 757.106 812.116 757.484 812.312 757.932C812.508 758.371 812.606 758.875 812.606 759.444V759.612ZM808.994 761.516C809.246 761.516 809.484 761.474 809.708 761.39C809.932 761.306 810.128 761.185 810.296 761.026C810.464 760.867 810.595 760.676 810.688 760.452C810.791 760.219 810.842 759.957 810.842 759.668V759.388C810.842 759.099 810.791 758.842 810.688 758.618C810.595 758.385 810.464 758.189 810.296 758.03C810.128 757.871 809.932 757.75 809.708 757.666C809.484 757.582 809.246 757.54 808.994 757.54C808.742 757.54 808.504 757.582 808.28 757.666C808.056 757.75 807.86 757.871 807.692 758.03C807.524 758.189 807.389 758.385 807.286 758.618C807.193 758.842 807.146 759.099 807.146 759.388V759.668C807.146 759.957 807.193 760.219 807.286 760.452C807.389 760.676 807.524 760.867 807.692 761.026C807.86 761.185 808.056 761.306 808.28 761.39C808.504 761.474 808.742 761.516 808.994 761.516Z" fill="#1E1E1E"/>
<g filter="url(#filter0_d_101_2477)">
<path d="M458.524 90H257.485C232.917 90 213 109.992 213 134.652V675.348C213 700.008 232.917 720 257.485 720H458.514C483.082 720 502.999 700.008 502.999 675.348V134.652C502.999 109.992 483.082 90 458.514 90H458.524ZM403.485 113.495C403.485 121.074 397.363 127.218 389.813 127.218H326.197C318.646 127.218 312.525 121.074 312.525 113.495V113.423C312.525 105.844 318.646 99.6997 326.197 99.6997H389.813C397.363 99.6997 403.485 105.844 403.485 113.423V113.495Z" fill="#F4F5F5" fill-opacity="0.01" shape-rendering="crispEdges"/>
</g>
<g filter="url(#filter1_d_101_2477)">
<path d="M892.524 90H691.485C666.917 90 647 109.992 647 134.652V675.348C647 700.008 666.917 720 691.485 720H892.514C917.082 720 936.999 700.008 936.999 675.348V134.652C936.999 109.992 917.082 90 892.514 90H892.524ZM837.485 113.495C837.485 121.074 831.363 127.218 823.813 127.218H760.197C752.646 127.218 746.525 121.074 746.525 113.495V113.423C746.525 105.844 752.646 99.6997 760.197 99.6997H823.813C831.363 99.6997 837.485 105.844 837.485 113.423V113.495Z" fill="#F4F5F5" fill-opacity="0.01" shape-rendering="crispEdges"/>
</g>
</g>
<defs>
<filter id="filter0_d_101_2477" x="193" y="85" width="330" height="670" filterUnits="userSpaceOnUse" color-interpolation-filters="sRGB">
<feFlood flood-opacity="0" result="BackgroundImageFix"/>
<feColorMatrix in="SourceAlpha" type="matrix" values="0 0 0 0 0 0 0 0 0 0 0 0 0 0 0 0 0 0 127 0" result="hardAlpha"/>
<feOffset dy="15"/>
<feGaussianBlur stdDeviation="10"/>
<feComposite in2="hardAlpha" operator="out"/>
<feColorMatrix type="matrix" values="0 0 0 0 0 0 0 0 0 0 0 0 0 0 0 0 0 0 0.1 0"/>
<feBlend mode="normal" in2="BackgroundImageFix" result="effect1_dropShadow_101_2477"/>
<feBlend mode="normal" in="SourceGraphic" in2="effect1_dropShadow_101_2477" result="shape"/>
</filter>
<filter id="filter1_d_101_2477" x="627" y="85" width="330" height="670" filterUnits="userSpaceOnUse" color-interpolation-filters="sRGB">
<feFlood flood-opacity="0" result="BackgroundImageFix"/>
<feColorMatrix in="SourceAlpha" type="matrix" values="0 0 0 0 0 0 0 0 0 0 0 0 0 0 0 0 0 0 127 0" result="hardAlpha"/>
<feOffset dy="15"/>
<feGaussianBlur stdDeviation="10"/>
<feComposite in2="hardAlpha" operator="out"/>
<feColorMatrix type="matrix" values="0 0 0 0 0 0 0 0 0 0 0 0 0 0 0 0 0 0 0.1 0"/>
<feBlend mode="normal" in2="BackgroundImageFix" result="effect1_dropShadow_101_2477"/>
<feBlend mode="normal" in="SourceGraphic" in2="effect1_dropShadow_101_2477" result="shape"/>
</filter>
<clipPath id="clip0_101_2477">
<rect width="1150" height="810" fill="white"/>
</clipPath>
</defs>
</svg>
