<svg width="1920" height="1280" viewBox="0 0 1920 1280" fill="none" xmlns="http://www.w3.org/2000/svg">
<rect width="1920" height="1280" fill="#F5F5F5"/>
<path d="M229.164 536.387V478.956H350.736V536.387H326.659V615.33H252.847V536.387H229.164ZM354.825 557.307C354.825 537.176 359.365 522.045 368.443 511.914C377.653 501.783 392.652 496.718 413.441 496.718C434.229 496.718 448.702 500.928 456.86 509.349C465.017 517.769 469.096 531.584 469.096 550.794L468.109 565.991H413.638V572.701C416.927 573.49 421.73 573.885 428.045 573.885C441.466 573.885 452.32 573.293 460.609 572.109L464.754 571.517V608.62C463.701 609.278 461.991 610.133 459.623 611.186C457.386 612.107 451.926 613.356 443.242 614.935C434.558 616.514 424.888 617.304 414.23 617.304C393.179 617.304 377.982 612.304 368.64 602.304C359.43 592.305 354.825 577.306 354.825 557.307ZM410.678 548.426V556.123H421.927V548.426C421.927 546.715 421.335 545.334 420.151 544.281C419.098 543.229 417.717 542.702 416.006 542.702C414.428 542.702 413.112 543.229 412.059 544.281C411.138 545.334 410.678 546.715 410.678 548.426ZM605.493 615.33V552.768C605.493 551.189 604.901 549.873 603.717 548.82C602.665 547.636 601.349 547.044 599.77 547.044C598.191 547.044 596.875 547.636 595.823 548.82C594.77 549.873 594.244 551.189 594.244 552.768V615.33H541.549V552.768C541.549 551.189 540.957 549.873 539.773 548.82C538.721 547.636 537.339 547.044 535.629 547.044C534.05 547.044 532.734 547.636 531.681 548.82C530.629 549.873 530.103 551.189 530.103 552.768V615.33H474.25V498.691H523.984L525.958 513.099C526.484 511.651 527.668 509.875 529.51 507.77C531.353 505.665 533.326 503.889 535.431 502.441C541.22 498.626 548.852 496.718 558.325 496.718C573.719 496.718 584.442 501.849 590.494 512.112C591.547 510.138 592.928 508.23 594.639 506.388C596.349 504.415 599.704 502.31 604.704 500.073C609.835 497.836 615.756 496.718 622.466 496.718C635.36 496.718 645.031 500.27 651.478 507.375C658.056 514.48 661.346 524.808 661.346 538.36V615.33H605.493Z" fill="#021B3F"/>
<g clip-path="url(#clip0_116_694)">
<path d="M612.689 419.609L606.323 425.686C605.182 426.774 604.657 428.359 604.927 429.914L631.068 581.442C631.473 583.778 632.879 585.824 634.921 587.033L645.273 593.172L642.375 606.106L653.372 612.861L664.707 602.176L679.191 606.139L690.107 595.714L704.558 598.238L714.607 586.903L728.104 592.074L737.585 581.688L752.902 585.121L748.419 574.821L757.963 571.494C760.847 570.488 762.758 567.743 762.696 564.686C762.417 551.396 761.15 514.449 755.512 479.722C749.94 445.404 741.726 416.282 738.562 405.684C737.821 403.204 735.413 401.61 732.842 401.894L723.322 402.934L723.346 390.068L709.936 398.861L697.951 393.314L684.387 402.785L671.005 395.495L658.082 406.897L644.589 398.509L631.892 408.891L616.238 402.164L608.924 407.673L612.684 419.6L612.689 419.609Z" fill="#EE4726" stroke="#345DD1" stroke-width="2.40758" stroke-linecap="round" stroke-linejoin="round"/>
<path d="M650.579 592.777C652.091 593.538 653.825 593.75 655.476 593.375L742.568 573.604" fill="#EE4726"/>
<path d="M650.579 592.777C652.091 593.538 653.825 593.75 655.476 593.375L742.568 573.604" stroke="#345DD1" stroke-width="2.40758" stroke-linecap="round" stroke-linejoin="round"/>
<path d="M623.856 417.862L715.989 406.011" stroke="#345DD1" stroke-width="2.40758" stroke-linecap="round" stroke-linejoin="round"/>
<path d="M620.244 428.079C620.244 428.079 630.389 464.8 635.951 505.44C641.512 546.08 644.315 581.881 644.315 581.881" fill="#EE4726"/>
<path d="M620.244 428.079C620.244 428.079 630.389 464.8 635.951 505.44C641.512 546.08 644.315 581.881 644.315 581.881" stroke="#345DD1" stroke-width="2.40758" stroke-linecap="round" stroke-linejoin="round"/>
<path d="M699.116 507.332L687.801 497.649C684.955 495.212 684.315 490.7 686.371 487.571L694.706 474.883L689.337 470.289C686.491 467.852 682.519 468.416 680.462 471.546L656.348 508.257C654.292 511.386 654.932 515.898 657.778 518.335L666.123 525.476L674.468 532.616C677.313 535.053 681.286 534.49 683.342 531.36L699.121 507.337L699.116 507.332ZM689.082 511.873L670.014 514.579L679.524 522.717C680.742 523.761 681.016 525.692 680.135 527.036C679.697 527.705 679.047 528.105 678.358 528.201C677.67 528.297 676.938 528.1 676.331 527.575L661.491 514.873C660.903 514.372 660.513 513.635 660.398 512.826C660.282 512.017 660.455 511.199 660.879 510.553L671.603 494.23C672.484 492.887 674.188 492.646 675.407 493.691C676.625 494.736 676.899 496.666 676.018 498.01L669.147 508.468L688.215 505.762C689.703 505.55 691.099 506.749 691.34 508.435C691.581 510.12 690.57 511.661 689.082 511.873Z" fill="#FF826E"/>
<path d="M736.044 463.88L727.699 456.739L719.354 449.599C716.509 447.162 712.536 447.725 710.48 450.855L694.701 474.878L706.016 484.561C708.862 486.998 709.503 491.51 707.446 494.64L699.111 507.328L704.48 511.921C707.326 514.358 711.299 513.794 713.355 510.664L737.469 473.954C739.525 470.824 738.885 466.312 736.039 463.876L736.044 463.88ZM732.938 471.662L722.215 487.985C721.776 488.654 721.126 489.054 720.438 489.15C719.749 489.247 719.017 489.049 718.411 488.524C717.192 487.479 716.918 485.549 717.799 484.205L724.67 473.747L705.602 476.453C704.114 476.665 702.718 475.466 702.477 473.78C702.236 472.095 703.248 470.554 704.735 470.342L723.804 467.636L714.294 459.499C713.075 458.454 712.801 456.523 713.682 455.179C714.563 453.836 716.268 453.595 717.486 454.64L732.326 467.338C732.914 467.838 733.304 468.575 733.419 469.384C733.535 470.193 733.362 471.012 732.938 471.657V471.662Z" fill="#FF826E"/>
</g>
<path d="M778.334 615.33H719.521V498.691H769.058L771.032 513.099C771.295 512.704 771.624 512.178 772.018 511.52C772.413 510.862 773.531 509.743 775.374 508.165C777.216 506.454 779.321 504.941 781.689 503.625C788.268 500.336 796.557 498.691 806.556 498.691V561.451L778.334 558.688V615.33ZM810.684 557.307C810.684 537.176 815.223 522.045 824.301 511.914C833.511 501.783 848.511 496.718 869.299 496.718C890.087 496.718 904.56 500.928 912.718 509.349C920.875 517.769 924.954 531.584 924.954 550.794L923.967 565.991H869.496V572.701C872.786 573.49 877.588 573.885 883.904 573.885C897.324 573.885 908.179 573.293 916.468 572.109L920.612 571.517V608.62C919.56 609.278 917.849 610.133 915.481 611.186C913.244 612.107 907.784 613.356 899.1 614.935C890.416 616.514 880.746 617.304 870.088 617.304C849.037 617.304 833.84 612.304 824.499 602.304C815.289 592.305 810.684 577.306 810.684 557.307ZM866.536 548.426V556.123H877.785V548.426C877.785 546.715 877.193 545.334 876.009 544.281C874.957 543.229 873.575 542.702 871.865 542.702C870.286 542.702 868.97 543.229 867.918 544.281C866.997 545.334 866.536 546.715 866.536 548.426ZM1007.87 617.304C1000.89 617.304 995.566 615.988 991.882 613.356V633.684H933.069V498.691H982.606L984.579 513.099C986.948 506.125 992.21 501.257 1000.37 498.494C1003.79 497.31 1007.6 496.718 1011.81 496.718C1026.55 496.718 1037.6 502.375 1044.97 513.691C1052.34 524.874 1056.02 539.61 1056.02 557.899C1056.02 576.187 1051.81 590.66 1043.39 601.318C1035.1 611.975 1023.26 617.304 1007.87 617.304ZM988.921 555.531V572.109C988.921 573.819 989.382 575.201 990.303 576.253C991.355 577.306 992.671 577.832 994.25 577.832C995.96 577.832 997.342 577.306 998.394 576.253C999.579 575.201 1000.17 573.819 1000.17 572.109V555.531C1000.17 553.952 999.579 552.636 998.394 551.583C997.342 550.399 996.026 549.807 994.447 549.807C992.868 549.807 991.553 550.399 990.5 551.583C989.447 552.636 988.921 553.952 988.921 555.531ZM1064.32 557.307C1064.32 537.176 1068.86 522.045 1077.94 511.914C1087.15 501.783 1102.15 496.718 1122.94 496.718C1143.72 496.718 1158.2 500.928 1166.35 509.349C1174.51 517.769 1178.59 531.584 1178.59 550.794L1177.6 565.991H1123.13V572.701C1126.42 573.49 1131.22 573.885 1137.54 573.885C1150.96 573.885 1161.81 573.293 1170.1 572.109L1174.25 571.517V608.62C1173.2 609.278 1171.49 610.133 1169.12 611.186C1166.88 612.107 1161.42 613.356 1152.74 614.935C1144.05 616.514 1134.38 617.304 1123.72 617.304C1102.67 617.304 1087.48 612.304 1078.13 602.304C1068.92 592.305 1064.32 577.306 1064.32 557.307ZM1120.17 548.426V556.123H1131.42V548.426C1131.42 546.715 1130.83 545.334 1129.65 544.281C1128.59 543.229 1127.21 542.702 1125.5 542.702C1123.92 542.702 1122.61 543.229 1121.55 544.281C1120.63 545.334 1120.17 546.715 1120.17 548.426ZM1257.16 553.754V562.635H1274.92V609.212C1274.27 609.87 1273.15 610.659 1271.57 611.58C1270.12 612.37 1266.24 613.554 1259.92 615.133C1253.61 616.58 1246.31 617.304 1238.02 617.304C1207.89 617.304 1192.82 604.146 1192.82 577.832V553.754H1185.13V504.612C1190.78 502.902 1195.78 499.744 1200.13 495.139C1204.47 490.534 1207.43 486.389 1209.01 482.705L1211.37 476.982H1260.91V498.691H1274.92V553.754H1257.16ZM1312.47 508.362C1302.47 508.362 1295.11 506.388 1290.37 502.441C1285.63 498.494 1283.26 492.179 1283.26 483.495C1283.26 474.811 1285.63 468.561 1290.37 464.746C1295.24 460.93 1302.61 459.022 1312.47 459.022C1332.21 459.022 1342.08 466.983 1342.08 482.903C1342.08 491.981 1339.64 498.494 1334.77 502.441C1329.91 506.388 1322.47 508.362 1312.47 508.362ZM1283.26 615.33V512.901H1342.08V615.33H1283.26ZM1473.48 615.33H1423.75L1421.77 600.923C1421.25 602.37 1420.13 604.146 1418.42 606.252C1416.84 608.357 1415.13 610.133 1413.29 611.58C1408.42 615.396 1402.17 617.304 1394.54 617.304C1380.72 617.304 1369.93 612.041 1362.17 601.515C1354.41 590.989 1350.53 576.319 1350.53 557.504C1350.53 538.558 1354.47 523.69 1362.37 512.901C1370.26 502.112 1381.05 496.718 1394.74 496.718C1398.95 496.718 1402.7 497.244 1405.99 498.297C1409.27 499.218 1411.51 500.139 1412.7 501.06L1414.47 502.441V468.298H1473.48V615.33ZM1406.38 555.531V572.109C1406.38 573.819 1406.84 575.201 1407.76 576.253C1408.81 577.306 1410.13 577.832 1411.71 577.832C1413.42 577.832 1414.8 577.306 1415.85 576.253C1417.04 575.201 1417.63 573.819 1417.63 572.109V555.531C1417.63 553.952 1417.04 552.636 1415.85 551.583C1414.8 550.399 1413.48 549.807 1411.91 549.807C1410.33 549.807 1409.01 550.399 1407.96 551.583C1406.91 552.636 1406.38 553.952 1406.38 555.531ZM1597.63 540.729L1596.64 565.004L1601.57 564.806V609.607C1599.21 611.58 1595.13 613.356 1589.34 614.935C1583.55 616.514 1578.09 617.304 1572.96 617.304C1567.83 617.304 1563.75 616.843 1560.72 615.922C1557.7 615.001 1555.46 614.014 1554.01 612.962C1552.56 611.778 1551.45 610.462 1550.66 609.015C1549.47 606.909 1548.88 605.133 1548.88 603.686C1541.64 612.764 1530.13 617.304 1514.34 617.304C1492.63 617.304 1481.78 608.094 1481.78 589.674C1481.78 578.621 1485.99 570.793 1494.41 566.188C1502.83 561.451 1517.57 558.623 1538.62 557.701C1538.62 553.096 1533.55 550.794 1523.42 550.794C1516.58 550.794 1510 551.649 1503.69 553.36C1497.5 555.07 1493.03 556.78 1490.26 558.491L1485.92 561.057V509.151C1487.11 508.23 1488.88 507.112 1491.25 505.796C1493.62 504.349 1499.21 502.507 1508.03 500.27C1516.84 497.902 1526.51 496.718 1537.04 496.718C1558.09 496.718 1573.42 500.27 1583.02 507.375C1592.76 514.48 1597.63 525.598 1597.63 540.729ZM1541.78 572.109V564.214L1530.53 567.372V572.109C1530.53 573.819 1531.05 575.201 1532.1 576.253C1533.29 577.306 1534.67 577.832 1536.25 577.832C1537.96 577.832 1539.28 577.306 1540.2 576.253C1541.25 575.201 1541.78 573.819 1541.78 572.109ZM1632.87 539.15C1632.87 535.597 1630.57 533.821 1625.96 533.821C1621.36 533.821 1617.54 534.94 1614.52 537.176L1606.23 488.824C1610.83 484.218 1619.98 480.863 1633.66 478.758C1639.19 477.837 1645.11 477.377 1651.42 477.377C1667.34 477.377 1678.59 480.271 1685.17 486.06C1691.88 491.85 1695.24 500.007 1695.24 510.533C1695.24 515.269 1694.18 519.809 1692.08 524.151C1690.11 528.492 1687.93 532.111 1685.57 535.005C1683.2 537.768 1680.96 541.584 1678.86 546.452C1676.88 551.32 1675.9 556.583 1675.9 562.241V566.78H1621.23V563.03C1621.23 559.609 1621.82 556.517 1623 553.754C1624.19 550.991 1625.5 548.886 1626.95 547.439C1630.9 544.018 1632.87 541.255 1632.87 539.15ZM1635.63 573.293H1661.29C1668.53 573.293 1674.05 575.266 1677.87 579.214C1681.68 583.029 1683.59 588.358 1683.59 595.2C1683.59 602.041 1681.68 607.436 1677.87 611.383C1674.05 615.199 1668.53 617.106 1661.29 617.106H1635.63C1628.4 617.106 1622.87 615.199 1619.06 611.383C1615.24 607.436 1613.33 602.041 1613.33 595.2C1613.33 588.358 1615.24 583.029 1619.06 579.214C1622.87 575.266 1628.4 573.293 1635.63 573.293Z" fill="#021B3F"/>
<g clip-path="url(#clip1_116_694)">
<path d="M146.461 750.468C145.796 758.119 155.383 763.815 161.643 763.006L263.238 749.822C270.61 748.864 276.104 742.556 276.032 735.122L274.491 567.251C274.433 560.904 268.746 553.07 259.164 554.784" fill="#345DD1"/>
<path d="M146.461 750.468C145.796 758.119 155.383 763.815 161.643 763.006L263.238 749.822C270.61 748.864 276.104 742.556 276.032 735.122L274.491 567.251C274.433 560.904 268.746 553.07 259.164 554.784" stroke="#345DD1" stroke-width="2.40758" stroke-linecap="round" stroke-linejoin="round"/>
<path d="M145.046 584.003L146.461 750.468C146.49 756.776 152.042 761.634 158.297 760.825L259.892 747.641C267.264 746.683 272.758 740.375 272.686 732.94L271.145 565.069C271.087 558.723 265.449 553.879 259.165 554.784L157.637 569.403C150.386 570.448 145.012 576.674 145.046 584.003Z" fill="#EE4726" stroke="#345DD1" stroke-width="2.40758" stroke-linecap="round" stroke-linejoin="round"/>
<path d="M156.222 696.966C156.284 696.966 156.347 696.966 156.414 696.952L258.009 683.768C260.788 683.407 262.858 681.023 262.834 678.226L262.001 565.151C261.992 564.333 261.313 563.822 260.682 563.822C260.614 563.822 260.542 563.827 260.47 563.837L158.942 578.46C156.222 578.85 154.18 581.219 154.194 583.964L154.902 695.594C154.902 696.432 155.586 696.966 156.222 696.966Z" fill="#FF826E"/>
</g>
<g clip-path="url(#clip2_116_694)">
<path d="M1547.25 837.187C1547.29 837.187 1548.32 840.979 1549.51 841.054C1555.94 841.442 1577.33 843.002 1600.48 847.531C1635.89 854.459 1658.05 865.003 1664.56 878.026C1665.84 880.581 1669.39 880.839 1671.02 878.489C1678.29 868.031 1696.26 862.502 1722.99 862.502C1749.72 862.502 1773.84 867.687 1774.09 867.741L1777.65 868.489L1813.14 724.48L1810.23 720.58" fill="#345DD1"/>
<path d="M1547.25 837.187C1547.29 837.187 1548.32 840.979 1549.51 841.054C1555.94 841.442 1577.33 843.002 1600.48 847.531C1635.89 854.459 1658.05 865.003 1664.56 878.026C1665.84 880.581 1669.39 880.839 1671.02 878.489C1678.29 868.031 1696.26 862.502 1722.99 862.502C1749.72 862.502 1773.84 867.687 1774.09 867.741L1777.65 868.489L1813.14 724.48L1810.23 720.58" stroke="#345DD1" stroke-width="2.68964" stroke-linecap="round" stroke-linejoin="round"/>
<path d="M1688.98 727.309C1716.34 698.261 1810.22 720.575 1810.22 720.575L1774.86 864.056C1774.86 864.056 1688.98 846.03 1667.93 876.342C1650.67 841.818 1547.25 837.186 1547.25 837.186L1577.84 696.153C1577.84 696.153 1673.83 699.52 1688.99 727.309H1688.98Z" fill="#EE4726" stroke="#345DD1" stroke-width="2.68964" stroke-linecap="round" stroke-linejoin="round"/>
<path d="M1688.98 727.31C1712.4 691.737 1776.97 696.158 1776.97 696.158L1746.66 832.964C1746.66 832.964 1691.93 833.825 1667.93 876.343C1662.04 831.286 1583.74 811.931 1583.74 811.931L1614.05 684.367C1614.05 684.367 1682.25 691.737 1688.98 727.31Z" fill="#EE4726" stroke="#345DD1" stroke-width="2.68964" stroke-linecap="round" stroke-linejoin="round"/>
<path d="M1681.89 842.227L1698.15 736.024C1712.06 715.47 1743.31 710.252 1760.86 709.181L1736.1 820.941C1708.08 820.785 1681.89 842.227 1681.89 842.227Z" fill="#FF826E"/>
<path d="M1688.98 727.31C1696.14 678.896 1655.31 659.531 1655.31 659.531L1632.99 790.037C1632.99 790.037 1670.46 819.505 1667.94 876.337" fill="#EE4726"/>
<path d="M1688.98 727.31C1696.14 678.896 1655.31 659.531 1655.31 659.531L1632.99 790.037C1632.99 790.037 1670.46 819.505 1667.94 876.337" stroke="#345DD1" stroke-width="2.68964" stroke-linecap="round" stroke-linejoin="round"/>
<path d="M1688.98 735.728L1672.14 846.03" stroke="#345DD1" stroke-width="2.68964" stroke-linecap="round" stroke-linejoin="round"/>
<path d="M1675.23 851.098L1695.16 725.363" stroke="#EE4726" stroke-width="2.68964" stroke-linecap="round" stroke-linejoin="round"/>
<path d="M1695.36 834.008L1717.35 709.176" stroke="#EE4726" stroke-width="2.68964" stroke-linecap="round" stroke-linejoin="round"/>
<path d="M1716.2 826.364L1740.25 702.436" stroke="#EE4726" stroke-width="2.68964" stroke-linecap="round" stroke-linejoin="round"/>
<path d="M1738.95 826.574L1765.05 703.55" stroke="#EE4726" stroke-width="2.68964" stroke-linecap="round" stroke-linejoin="round"/>
<path d="M1693.2 741.92C1704.36 706.346 1762.8 706.346 1762.8 706.346" stroke="#EE4726" stroke-width="2.68964" stroke-linecap="round" stroke-linejoin="round"/>
<path d="M1689.68 766.729C1703.41 734.437 1756.44 733.84 1756.44 733.84" stroke="#EE4726" stroke-width="2.68964" stroke-linecap="round" stroke-linejoin="round"/>
<path d="M1685.86 792.754C1702.17 763.744 1749.79 762.549 1749.79 762.549" stroke="#EE4726" stroke-width="2.68964" stroke-linecap="round" stroke-linejoin="round"/>
<path d="M1682.11 819.936C1700.99 794.201 1743.19 792.415 1743.19 792.415" stroke="#EE4726" stroke-width="2.68964" stroke-linecap="round" stroke-linejoin="round"/>
<path d="M1678.74 848.219C1700.21 825.766 1736.98 823.383 1736.98 823.383" stroke="#EE4726" stroke-width="2.68964" stroke-linecap="round" stroke-linejoin="round"/>
</g>
<path d="M324.02 800.67V664.295H396.253C419.015 664.295 435.527 667.584 445.79 674.163C456.053 680.742 461.184 691.333 461.184 705.938C461.184 711.069 460.526 715.806 459.21 720.148C457.895 724.489 456.579 727.581 455.263 729.423L453.29 732.186C457.763 734.423 460.921 739.883 462.763 748.567C463.552 752.12 463.947 756.198 463.947 760.803C463.947 773.171 460.131 782.907 452.5 790.012C445.001 797.117 433.685 800.67 418.555 800.67H324.02ZM403.161 732.384V722.121C403.161 720.411 402.634 719.095 401.582 718.174C400.529 717.121 399.214 716.595 397.635 716.595H391.911V732.384H403.161ZM408.687 742.054H391.911V753.304H408.687C410.134 753.304 411.384 752.777 412.437 751.725C413.621 750.541 414.213 749.159 414.213 747.58C414.213 746.001 413.687 744.686 412.634 743.633C411.581 742.581 410.266 742.054 408.687 742.054ZM534.666 802.446H526.772C507.562 802.446 493.155 797.709 483.55 788.236C474.077 778.763 469.34 763.501 469.34 742.449C469.34 721.397 474.077 706.069 483.55 696.465C493.155 686.86 507.562 682.057 526.772 682.057H534.666C553.876 682.057 568.283 686.86 577.887 696.465C587.492 706.069 592.295 721.397 592.295 742.449C592.295 763.501 587.492 778.763 577.887 788.236C568.414 797.709 554.007 802.446 534.666 802.446ZM525.193 740.87V757.448C525.193 759.159 525.653 760.54 526.574 761.593C527.627 762.645 528.943 763.172 530.522 763.172C532.232 763.172 533.613 762.645 534.666 761.593C535.85 760.54 536.442 759.159 536.442 757.448V740.87C536.442 739.291 535.85 737.976 534.666 736.923C533.613 735.739 532.298 735.147 530.719 735.147C529.14 735.147 527.824 735.739 526.772 736.923C525.719 737.976 525.193 739.291 525.193 740.87ZM659.404 800.67H600.591V684.031H650.128L652.102 698.438C652.365 698.043 652.694 697.517 653.089 696.859C653.483 696.201 654.602 695.083 656.444 693.504C658.286 691.794 660.391 690.281 662.759 688.965C669.338 685.676 677.627 684.031 687.626 684.031V746.791L659.404 744.028V800.67ZM807.603 726.068L806.616 750.343L811.55 750.146V794.946C809.182 796.92 805.103 798.696 799.314 800.275C793.525 801.854 788.065 802.643 782.933 802.643C777.802 802.643 773.723 802.183 770.697 801.262C767.671 800.341 765.434 799.354 763.987 798.301C762.54 797.117 761.421 795.802 760.632 794.354C759.448 792.249 758.856 790.473 758.856 789.026C751.619 798.104 740.107 802.643 724.318 802.643C702.609 802.643 691.754 793.433 691.754 775.013C691.754 763.961 695.964 756.133 704.385 751.527C712.805 746.791 727.542 743.962 748.593 743.041C748.593 738.436 743.528 736.134 733.396 736.134C726.555 736.134 719.976 736.989 713.661 738.699C707.477 740.41 703.003 742.12 700.24 743.831L695.898 746.396V694.491C697.083 693.57 698.859 692.452 701.227 691.136C703.595 689.689 709.187 687.847 718.003 685.61C726.818 683.242 736.488 682.057 747.014 682.057C768.066 682.057 783.394 685.61 792.999 692.715C802.735 699.82 807.603 710.938 807.603 726.068ZM751.751 757.448V749.554L740.501 752.712V757.448C740.501 759.159 741.028 760.54 742.08 761.593C743.264 762.645 744.646 763.172 746.225 763.172C747.935 763.172 749.251 762.645 750.172 761.593C751.224 760.54 751.751 759.159 751.751 757.448ZM942.416 739.094V747.975H960.178V794.552C959.52 795.209 958.402 795.999 956.823 796.92C955.376 797.709 951.494 798.893 945.179 800.472C938.863 801.92 931.561 802.643 923.272 802.643C893.142 802.643 878.077 789.486 878.077 763.172V739.094H870.38V689.952C876.038 688.241 881.037 685.084 885.379 680.479C889.721 675.874 892.681 671.729 894.26 668.045L896.629 662.322H946.165V684.031H960.178V739.094H942.416ZM1027.33 800.67H968.518V684.031H1018.05L1020.03 698.438C1020.29 698.043 1020.62 697.517 1021.02 696.859C1021.41 696.201 1022.53 695.083 1024.37 693.504C1026.21 691.794 1028.32 690.281 1030.69 688.965C1037.26 685.676 1045.55 684.031 1055.55 684.031V746.791L1027.33 744.028V800.67ZM1125.01 802.446H1117.11C1097.9 802.446 1083.49 797.709 1073.89 788.236C1064.42 778.763 1059.68 763.501 1059.68 742.449C1059.68 721.397 1064.42 706.069 1073.89 696.465C1083.49 686.86 1097.9 682.057 1117.11 682.057H1125.01C1144.22 682.057 1158.62 686.86 1168.23 696.465C1177.83 706.069 1182.63 721.397 1182.63 742.449C1182.63 763.501 1177.83 778.763 1168.23 788.236C1158.75 797.709 1144.35 802.446 1125.01 802.446ZM1115.53 740.87V757.448C1115.53 759.159 1115.99 760.54 1116.91 761.593C1117.97 762.645 1119.28 763.172 1120.86 763.172C1122.57 763.172 1123.95 762.645 1125.01 761.593C1126.19 760.54 1126.78 759.159 1126.78 757.448V740.87C1126.78 739.291 1126.19 737.976 1125.01 736.923C1123.95 735.739 1122.64 735.147 1121.06 735.147C1119.48 735.147 1118.16 735.739 1117.11 736.923C1116.06 737.976 1115.53 739.291 1115.53 740.87ZM1296.72 796.723C1288.16 800.67 1273.1 802.643 1251.52 802.643C1229.94 802.643 1214.42 797.709 1204.94 787.841C1195.6 777.973 1190.93 762.645 1190.93 741.857C1190.93 721.069 1196.19 705.938 1206.72 696.465C1217.25 686.86 1233.03 682.057 1254.09 682.057C1263.56 682.057 1271.85 682.715 1278.95 684.031C1286.06 685.347 1290.79 686.662 1293.16 687.978L1296.72 689.952V742.054H1256.26V750.738C1258.62 751.133 1262.64 751.33 1268.3 751.33C1277.77 751.33 1286.26 750.935 1293.75 750.146L1296.72 749.949V796.723ZM1420.69 726.068L1419.7 750.343L1424.63 750.146V794.946C1422.26 796.92 1418.19 798.696 1412.4 800.275C1406.61 801.854 1401.15 802.643 1396.02 802.643C1390.88 802.643 1386.81 802.183 1383.78 801.262C1380.75 800.341 1378.52 799.354 1377.07 798.301C1375.62 797.117 1374.5 795.802 1373.71 794.354C1372.53 792.249 1371.94 790.473 1371.94 789.026C1364.7 798.104 1353.19 802.643 1337.4 802.643C1315.69 802.643 1304.84 793.433 1304.84 775.013C1304.84 763.961 1309.05 756.133 1317.47 751.527C1325.89 746.791 1340.62 743.962 1361.68 743.041C1361.68 738.436 1356.61 736.134 1346.48 736.134C1339.64 736.134 1333.06 736.989 1326.74 738.699C1320.56 740.41 1316.09 742.12 1313.32 743.831L1308.98 746.396V694.491C1310.16 693.57 1311.94 692.452 1314.31 691.136C1316.68 689.689 1322.27 687.847 1331.08 685.61C1339.9 683.242 1349.57 682.057 1360.1 682.057C1381.15 682.057 1396.48 685.61 1406.08 692.715C1415.82 699.82 1420.69 710.938 1420.69 726.068ZM1364.83 757.448V749.554L1353.58 752.712V757.448C1353.58 759.159 1354.11 760.54 1355.16 761.593C1356.35 762.645 1357.73 763.172 1359.31 763.172C1361.02 763.172 1362.33 762.645 1363.25 761.593C1364.31 760.54 1364.83 759.159 1364.83 757.448ZM1490.47 800.67H1431.65V684.031H1481.19L1483.16 698.438C1483.43 698.043 1483.76 697.517 1484.15 696.859C1484.55 696.201 1485.66 695.083 1487.51 693.504C1489.35 691.794 1491.45 690.281 1493.82 688.965C1500.4 685.676 1508.69 684.031 1518.69 684.031V746.791L1490.47 744.028V800.67ZM1584 752.712H1535.25L1524.2 666.071H1594.66L1584 752.712ZM1546.5 758.83H1572.16C1579.39 758.83 1584.92 760.803 1588.73 764.75C1592.55 768.566 1594.46 773.961 1594.46 780.934C1594.46 787.776 1592.55 793.104 1588.73 796.92C1584.92 800.735 1579.39 802.643 1572.16 802.643H1546.5C1539.13 802.643 1533.54 800.735 1529.72 796.92C1526.04 793.104 1524.2 787.776 1524.2 780.934C1524.2 773.961 1526.11 768.566 1529.92 764.75C1533.74 760.803 1539.26 758.83 1546.5 758.83Z" fill="#021B3F"/>
<defs>
<clipPath id="clip0_116_694">
<rect width="160.249" height="225.191" fill="white" transform="translate(603.656 388.874)"/>
</clipPath>
<clipPath id="clip1_116_694">
<rect width="133.395" height="210.943" fill="white" transform="translate(143.842 553.339)"/>
</clipPath>
<clipPath id="clip2_116_694">
<rect width="268.582" height="223.261" fill="white" transform="translate(1545.91 658.186)"/>
</clipPath>
</defs>
</svg>
